<svg xmlns="http://www.w3.org/2000/svg" width="48" height="48" viewBox="0 0 127 127">
  <defs>
    <clipPath id="A">
      <path
        d="M180 360C80.589 360 0 279.411 0 180h0C0 80.589 80.589 0 180 0h0c99.411 0 180 80.589 180 180h0c0 99.411-80.589 180-180 180z" />
    </clipPath>
    <clipPath id="C">
      <path d="M0 360h360V0H0z" />
    </clipPath>
  </defs>
  <g transform="matrix(.352778 0 0 -.352778 .000061 127.00046)">
    <g clip-path="url(#A)">
      <path
        d="M180 360C80.589 360 0 279.411 0 180h0C0 80.589 80.589 0 180 0h0c99.411 0 180 80.589 180 180h0c0 99.411-80.589 180-180 180z"
        fill="url(#B)" />
    </g>
    <g clip-path="url(#C)">
      <path
        d="M250.066 127.957L258.04 180h-49.917v33.768c0 14.226 6.961 28.122 29.337 28.122h22.706v44.298s-20.605 3.519-40.298 3.519c-41.109 0-67.991-24.909-67.991-70.042V180h-45.715v-52.043h45.715V2.177C161.041.734 170.432 0 180 0s18.959.76 28.123 2.177v125.78z"
        fill="#fefefe" />
    </g>
  </g>
</svg>