<?xml version="1.0" encoding="UTF-8" standalone="no"?>
<svg
   xmlns:dc="http://purl.org/dc/elements/1.1/"
   xmlns:cc="http://creativecommons.org/ns#"
   xmlns:rdf="http://www.w3.org/1999/02/22-rdf-syntax-ns#"
   xmlns:svg="http://www.w3.org/2000/svg"
   xmlns="http://www.w3.org/2000/svg"
   xmlns:xlink="http://www.w3.org/1999/xlink"
   xmlns:sodipodi="http://sodipodi.sourceforge.net/DTD/sodipodi-0.dtd"
   xmlns:inkscape="http://www.inkscape.org/namespaces/inkscape"
   width="512"
   height="512"
   version="1.1"
   viewBox="0 0 512 512"
   id="svg1008"
   sodipodi:docname="quasicrystals-icon.svg"
   inkscape:export-filename="/home/h/hsb-blog/src/images/quasicrystals-icon.png"
   inkscape:export-xdpi="96"
   inkscape:export-ydpi="96"
   inkscape:version="1.0.2 (1.0.2+r75+1)">
  <sodipodi:namedview
     pagecolor="#ffffff"
     bordercolor="#666666"
     borderopacity="1"
     objecttolerance="10"
     gridtolerance="10"
     guidetolerance="10"
     inkscape:pageopacity="0"
     inkscape:pageshadow="2"
     inkscape:window-width="1920"
     inkscape:window-height="1002"
     id="namedview1010"
     showgrid="false"
     inkscape:zoom="0.79199219"
     inkscape:cx="69.452638"
     inkscape:cy="225.71239"
     inkscape:window-x="0"
     inkscape:window-y="41"
     inkscape:window-maximized="1"
     inkscape:current-layer="g1004" />
  <defs
     id="defs998">
    <linearGradient
       id="linearGradient11415-7">
      <stop
         stop-color="#fbd900"
         offset="0"
         id="stop987" />
      <stop
         stop-color="#ff0c0c"
         offset="1"
         id="stop989" />
    </linearGradient>
    <radialGradient
       id="radialGradient2255"
       cx="179.47"
       cy="40.098"
       r="260.55"
       gradientTransform="matrix(.93668 0 0 .37715 11.363 24.975)"
       gradientUnits="userSpaceOnUse"
       xlink:href="#linearGradient11415-7" />
    <radialGradient
       id="radialGradient2269"
       cx="179.47"
       cy="40.098"
       r="260.55"
       gradientTransform="matrix(.20756 0 0 .18007 142.22 32.877)"
       gradientUnits="userSpaceOnUse">
      <stop
         stop-color="#fbd900"
         offset="0"
         id="stop993" />
      <stop
         stop-color="#ff420c"
         offset="1"
         id="stop995" />
    </radialGradient>
  </defs>
  <namedview
     id="base"
     cx="1149.1057"
     cy="376.41315"
     bordercolor="#666666"
     borderopacity="1.0"
     current-layer="g11385"
     document-rotation="0"
     document-units="px"
     fit-margin-bottom="0"
     fit-margin-left="0"
     fit-margin-right="0"
     fit-margin-top="0"
     guide-bbox="true"
     pagecolor="#ffffff"
     pageopacity="0.0"
     pageshadow="2"
     showgrid="false"
     showguides="false"
     units="px"
     window-height="1002"
     window-maximized="1"
     window-width="1920"
     window-x="0"
     window-y="41"
     zoom="0.70710678" />
  <metadata
     id="metadata1000">
    <RDF>
      <Work
         about="">
        <format>image/svg+xml</format>
        <type
           resource="http://purl.org/dc/dcmitype/StillImage" />
      </Work>
    </RDF>
    <rdf:RDF>
      <cc:Work
         rdf:about="">
        <dc:format>image/svg+xml</dc:format>
        <dc:type
           rdf:resource="http://purl.org/dc/dcmitype/StillImage" />
        <dc:title />
      </cc:Work>
    </rdf:RDF>
  </metadata>
  <g
     transform="matrix(8.754 0 0 8.754 -1326.6 -112.39)"
     stroke="url(#radialGradient2255)"
     groupmode="layer"
     label="Layer 1"
     id="g1006">
    <rect
       style="opacity:0.993245;fill:#ffffff;fill-opacity:1;stroke:#fd9206;stroke-width:0.799977;stroke-miterlimit:1.7;stroke-dasharray:none;stroke-opacity:1;paint-order:markers fill stroke"
       id="rect1584"
       width="92.480949"
       height="84.772926"
       x="139.96469"
       y="-2.8014729" />
    <g
       fill="#959595"
       stroke="url(#radialGradient2255)"
       stroke-width=".8"
       id="g1004">
      <path
         d="m 204.95,49.734 11.413,3.7082 m -4.3593,6 -7.0534,-9.7082 m -11.413,27.708 -7.0534,-9.7082 -1e-5,12 m 1e-5,-12 11.413,3.7082 m -4.3593,6 -7.0534,-9.7082 m 7.0534,9.7082 11.413,3.7082 -7.0534,-9.7082 m -32.573,6 -11.413,3.7082 m 32.573,-13.416 1e-5,12 m -7.0534,-2.2918 7.0534,-9.7082 m 7.0534,-9.7082 11.413,3.7082 m -7.0534,9.7082 7.0534,-9.7082 m -18.466,6 7.0534,-9.7082 m -7.0534,9.7082 11.413,3.7082 m -36.932,-7.4164 11.413,3.7082 m -7.0534,9.7082 7.0534,-9.7082 m -18.466,6 7.0534,-9.7082 m -7.0534,9.7082 11.413,3.7082 m 2.6942,-23.125 11.413,3.7082 m -7.0534,9.7082 7.0534,-9.7082 m -18.466,6 7.0534,-9.7082 m -7.0534,9.7082 11.413,3.7082 m -7.0535,9.7083 -11.413,3.7082 m 1e-5,-7.4164 11.413,3.7082 m -11.413,-15.708 -1e-5,12 m 14.107,-31.416 11.413,3.7082 m -11.413,-3.7082 1e-5,12 m 11.413,-8.2918 -2e-5,12 m -11.413,-3.7082 11.413,3.7082 m -25.52,3.7083 -7.0534,-9.7082 m 7.0534,9.7082 7.0534,-9.7082 m -14.107,-2e-5 7.0534,-9.7082 m 7.0534,9.7082 -7.0534,-9.7082 m 0,19.416 -7.0534,-9.7082 m 21.16,-9.7082 1e-5,12 m -7.0534,-2.2918 7.0534,-9.7082 m -7.0534,9.7082 -2e-5,12 7.0534,-9.7082 m -7.0535,-2.2917 v 12 m -7.0534,-2.2918 7.0534,-9.7082 m -7.0534,9.7082 -2e-5,12 7.0534,-9.7082 m 11.413,3.7082 7.0534,-9.7082 m 7.0534,9.7082 -7.0534,-9.7082 m 0,19.416 -7.0534,-9.7082 m 7.0534,9.7082 7.0534,-9.7082 m 25.52,3.7082 -7.0534,-9.7082 m 7.0534,-2.2918 v 12 m 0,-12 -7.0534,-9.7082 v 12 m -7.0534,9.7082 7.0534,-9.7082 m 7.0534,9.7082 -7.0534,-9.7082 m 0,19.416 -7.0534,-9.7082 m 7.0534,9.7082 7.0534,-9.7082 m -18.466,6 11.413,3.7082 m -51.039,-82.249 v 12 l 7.0534,-9.7082 m -7.0534,-2.2918 -1e-5,12 m 66.811,17.125 v 12 m -1e-5,-12 1e-5,12 -11.413,3.7082 m 11.413,-15.708 -11.413,3.7082 v 12 m 7.0534,9.7082 -7.0534,-9.7082 m 11.413,-3.7082 -11.413,3.7082 m 2.6942,15.708 -1e-5,12 m -2.6942,-47.125 -11.413,3.7082 -7.0534,-9.7082 m 18.466,6 -7.0534,-9.7082 -11.413,3.7082 m -18.466,6 1e-5,12 m -11.413,-3.7082 11.413,3.7082 m -11.413,-15.708 11.413,3.7082 m -11.413,-3.7082 v 12 m 32.573,13.416 v 12 m -7.0534,-2.2918 7.0534,-9.7082 m -7.0534,9.7082 v 12 l 7.0534,-9.7082 m 4.3592,-56.833 11.413,3.7082 m 7.0534,9.7082 -7.0534,-9.7082 m 7.0534,-2.2918 v 12 m 0,-12 v 12 m -29.879,53.125 -7.0534,-9.7082 m 7.0534,-2.2918 v 12 m 0,-12 -7.0534,-9.7082 v 12 m -7.0534,-33.708 -7.0534,-9.7082 m 7.0534,9.7082 7.0534,-9.7082 m -14.107,-4e-6 7.0534,-9.7082 m 7.0534,9.7082 -7.0534,-9.7082 m 7.0534,41.125 -11.413,-3.7082 m 4.3592,-6 7.0534,9.7082 m -7.0534,-9.7082 -11.413,-3.7082 7.0534,9.7082 m 18.466,13.416 -7.0534,-9.7082 m 7.0534,9.7082 7.0534,-9.7082 m -14.107,-4e-6 7.0534,-9.7082 m 7.0534,9.7082 -7.0534,-9.7082 m 18.466,13.416 -11.413,-3.7082 m 4.3592,-6 7.0534,9.7082 m -7.0534,-9.7082 -11.413,-3.7082 7.0534,9.7082 m 27.185,-18 -11.413,3.7082 m 0,-7.4164 11.413,3.7082 m -11.413,-3.7082 -11.413,3.7082 11.413,3.7082 m 0,9e-6 v 12 m -11.413,-3.7082 11.413,3.7082 m -11.413,-15.708 11.413,3.7082 m -11.413,-3.7082 v 12 m 11.413,-15.708 7.0534,-9.7082 m -7.0534,9.7082 11.413,3.7082 m -11.413,-3.7082 -7.0534,-9.7082 m 7.0534,9.7082 7.0534,-9.7082 m -14.107,5e-6 7.0534,-9.7082 m 7.0534,9.7082 -7.0534,-9.7082 m 0,19.416 -11.413,3.7082 -7.0534,-9.7082 m 18.466,6 -7.0534,-9.7082 -11.413,3.7082 m 7.0534,9.7082 v 12 m -11.413,-3.7082 11.413,3.7082 m -11.413,-15.708 11.413,3.7082 m -11.413,-3.7082 v 12 m -7.0534,9.7082 -7.0534,-9.7082 m 7.0534,9.7082 7.0534,-9.7082 m -14.107,-4e-6 7.0534,-9.7082 m 7.0534,9.7082 -7.0534,-9.7082 m -18.466,-25.416 11.413,3.7082 7.0534,-9.7082 m 18.466,6 11.413,3.7082 m -7.0534,9.7082 7.0534,-9.7082 m -18.466,6 7.0534,-9.7082 m -7.0534,9.7082 11.413,3.7082 m -1e-5,4e-6 -11.413,3.7082 m 0,-7.4164 11.413,3.7082 m -11.413,-3.7082 -11.413,3.7082 11.413,3.7082 m -11.413,-3.7082 11.413,3.7082 m -4.3593,6 -7.0534,-9.7082 m 7.0534,9.7082 11.413,3.7082 -7.0534,-9.7082 m -29.879,-17.125 11.413,3.7082 m -7.0534,9.7082 7.0534,-9.7082 m -18.466,6 7.0534,-9.7082 m -7.0534,9.7082 11.413,3.7082 m 7.0534,9.7082 1e-5,12 m -11.413,-3.7082 11.413,3.7082 m -11.413,-15.708 11.413,3.7082 m -11.413,-3.7082 v 12 m 11.413,-8.2918 -11.413,-3.7082 m 4.3592,-6 7.0534,9.7082 m -7.0534,-9.7082 -11.413,-3.7082 7.0534,9.7082 m 18.466,-6 v 12 m -7.0534,-2.2918 7.0534,-9.7082 m -7.0534,9.7082 v 12 l 7.0534,-9.7082 m -7.0534,-21.708 7.0534,-9.7082 m 4.3592,6 -11.413,3.7082 m -10e-6,19.416 -7.0534,-9.7082 m 7.0534,9.7082 7.0534,-9.7082 m -14.107,-3e-6 7.0534,-9.7082 m 7.0534,9.7082 -7.0534,-9.7082 m 18.466,6 -7.0534,-9.7082 m 7.0534,9.7082 7.0534,-9.7082 m -18.466,13.416 -7.0534,-9.7082 m 11.413,-3.7082 -11.413,3.7082 m 18.466,6 -11.413,3.7082 m 11.413,-3.7082 -7.0534,-9.7082 m 14.107,38.833 11.413,3.7082 m -4.3593,6 -7.0534,-9.7082 m 7.0534,9.7082 11.413,3.7082 -7.0534,-9.7082 m -15.772,2.2918 11.413,3.7082 m -11.413,-3.7082 v 12 m 11.413,-8.2918 v 12 m -11.413,-3.7082 11.413,3.7082 m -43.986,-41.125 1e-5,6.365348 0,5.634652 m -1e-5,-12 -11.413,3.7082 m 11.413,8.2918 -11.413,3.7082 m -10e-6,-12 10e-6,12 m 4.3592,6 7.0534,-9.7082 -11.413,3.7082 m 11.413,-15.708 -11.413,3.7082 m 11.413,-3.7082 -7.0534,-9.7082 m 11.413,66.541 7.0534,-9.7082 m 7.0534,9.7082 -7.0534,-9.7082 m -25.519,-15.708 7.0534,-9.7082 m 1e-5,-3.8e-5 7.0534,-9.7082 m 7.0534,9.7082 -7.0534,-9.7082 m 0,19.416 -7.0534,-9.7082 m 7.0534,9.7082 7.0534,-9.7082 m 36.932,38.833 7.0534,-9.7082 m -62.452,-47.125 v 12"
         fill="#959595"
         stroke="url(#radialGradient2269)"
         stroke-width="0.8"
         id="path1002"
         sodipodi:nodetypes="ccccccccccccccccccccccccccccccccccccccccccccccccccccccccccccccccccccccccccccccccccccccccccccccccccccccccccccccccccccccccccccccccccccccccccccccccccccccccccccccccccccccccccccccccccccccccccccccccccccccccccccccccccccccccccccccccccccccccccccccccccccccccccccccccccccccccccccccccccccccccccccccccccccccccccccccccccccccccccccccccccccccccccccccccccccccccccccccccccccccccccccccccc"
         style="fill:#ffffff;stroke-width:0.79997713;stroke-miterlimit:1.7;stroke-dasharray:none;fill-opacity:1" />
      <path
         id="rect1573"
         style="opacity:0.993245;fill:#ffffff;fill-opacity:1;stroke:#fd9206;stroke-width:0.77381768;stroke-opacity:1;paint-order:markers fill stroke;stroke-miterlimit:4;stroke-dasharray:none"
         d="M 147.47392,8.7704736 V 75.39448 h 66.62401 V 8.7704736 Z m 33.312,5.0343064 a 28.277609,28.277608 0 0 1 28.2777,28.277697 28.277609,28.277608 0 0 1 -28.2777,28.277473 28.277609,28.277608 0 0 1 -28.27747,-28.277473 28.277609,28.277608 0 0 1 28.27747,-28.277697 z" />
    </g>
  </g>
</svg>
