<?xml version="1.0" encoding="UTF-8"?>
<svg width="512" height="512" version="1.1" viewBox="0 0 512 512" xmlns="http://www.w3.org/2000/svg" xmlns:cc="http://creativecommons.org/ns#" xmlns:dc="http://purl.org/dc/elements/1.1/" xmlns:rdf="http://www.w3.org/1999/02/22-rdf-syntax-ns#" xmlns:xlink="http://www.w3.org/1999/xlink">
 <defs>
  <linearGradient id="linearGradient11415-7">
   <stop stop-color="#fbd900" offset="0"/>
   <stop stop-color="#ff0c0c" offset="1"/>
  </linearGradient>
  <radialGradient id="radialGradient2255" cx="179.47" cy="40.098" r="260.55" gradientTransform="matrix(.93668 0 0 .37715 11.363 24.975)" gradientUnits="userSpaceOnUse" xlink:href="#linearGradient11415-7"/>
  <radialGradient id="radialGradient2269" cx="179.47" cy="40.098" r="260.55" gradientTransform="matrix(.20756 0 0 .18007 142.22 32.877)" gradientUnits="userSpaceOnUse">
   <stop stop-color="#fbd900" offset="0"/>
   <stop stop-color="#ff420c" offset="1"/>
  </radialGradient>
 </defs>
 <namedview id="base" cx="1149.1057" cy="376.41315" bordercolor="#666666" borderopacity="1.0" current-layer="g11385" document-rotation="0" document-units="px" fit-margin-bottom="0" fit-margin-left="0" fit-margin-right="0" fit-margin-top="0" guide-bbox="true" pagecolor="#ffffff" pageopacity="0.0" pageshadow="2" showgrid="false" showguides="false" units="px" window-height="1002" window-maximized="1" window-width="1920" window-x="0" window-y="41" zoom="0.70710678"/>
 <metadata>
  <RDF>
   <Work about="">
    <format>image/svg+xml</format>
    <type resource="http://purl.org/dc/dcmitype/StillImage"/>
   </Work>
  </RDF>
  <rdf:RDF>
   <cc:Work rdf:about="">
    <dc:format>image/svg+xml</dc:format>
    <dc:type rdf:resource="http://purl.org/dc/dcmitype/StillImage"/>
    <dc:title/>
   </cc:Work>
  </rdf:RDF>
 </metadata>
 <g transform="matrix(8.754 0 0 8.754 -1326.6 -112.39)" stroke="url(#radialGradient2255)" groupmode="layer" label="Layer 1">
  <g fill="#959595" stroke="url(#radialGradient2255)" stroke-width=".8">
   <path d="m204.95 49.734 11.413 3.7082m-4.3593 6-7.0534-9.7082m-11.413 27.708-7.0534-9.7082-1e-5 12m1e-5 -12 11.413 3.7082m-4.3593 6-7.0534-9.7082m7.0534 9.7082 11.413 3.7082-7.0534-9.7082m-32.573 6-11.413 3.7082m32.573-13.416 1e-5 12m-7.0534-2.2918 7.0534-9.7082m7.0534-9.7082 11.413 3.7082m-7.0534 9.7082 7.0534-9.7082m-18.466 6 7.0534-9.7082m-7.0534 9.7082 11.413 3.7082m-36.932-7.4164 11.413 3.7082m-7.0534 9.7082 7.0534-9.7082m-18.466 6 7.0534-9.7082m-7.0534 9.7082 11.413 3.7082m2.6942-23.125 11.413 3.7082m-7.0534 9.7082 7.0534-9.7082m-18.466 6 7.0534-9.7082m-7.0534 9.7082 11.413 3.7082m-7.0535 9.7083-11.413 3.7082m1e-5 -7.4164 11.413 3.7082m-11.413-15.708-1e-5 12m14.107-31.416 11.413 3.7082m-11.413-3.7082 1e-5 12m11.413-8.2918-2e-5 12m-11.413-3.7082 11.413 3.7082m-25.52 3.7083-7.0534-9.7082m7.0534 9.7082 7.0534-9.7082m-14.107-2e-5 7.0534-9.7082m7.0534 9.7082-7.0534-9.7082m0 19.416-7.0534-9.7082m21.16-9.7082 1e-5 12m-7.0534-2.2918 7.0534-9.7082m-7.0534 9.7082-2e-5 12 7.0534-9.7082m-7.0535-2.2917v12m-7.0534-2.2918 7.0534-9.7082m-7.0534 9.7082-2e-5 12 7.0534-9.7082m11.413 3.7082 7.0534-9.7082m7.0534 9.7082-7.0534-9.7082m0 19.416-7.0534-9.7082m7.0534 9.7082 7.0534-9.7082m25.52 3.7082-7.0534-9.7082m7.0534-2.2918v12m0-12-7.0534-9.7082v12m-7.0534 9.7082 7.0534-9.7082m7.0534 9.7082-7.0534-9.7082m0 19.416-7.0534-9.7082m7.0534 9.7082 7.0534-9.7082m-18.466 6 11.413 3.7082m-51.039-82.249v12l7.0534-9.7082m-7.0534-2.2918-1e-5 12m66.811 17.125v12m-1e-5 -12 1e-5 12-11.413 3.7082m11.413-15.708-11.413 3.7082v12m7.0534 9.7082-7.0534-9.7082m11.413-3.7082-11.413 3.7082m2.6942 15.708-1e-5 12m-2.6942-47.125-11.413 3.7082-7.0534-9.7082m18.466 6-7.0534-9.7082-11.413 3.7082m-18.466 6 1e-5 12m-11.413-3.7082 11.413 3.7082m-11.413-15.708 11.413 3.7082m-11.413-3.7082v12m32.573 13.416v12m-7.0534-2.2918 7.0534-9.7082m-7.0534 9.7082v12l7.0534-9.7082m4.3592-56.833 11.413 3.7082m7.0534 9.7082-7.0534-9.7082m7.0534-2.2918v12m0-12v12m-29.879 53.125-7.0534-9.7082m7.0534-2.2918v12m0-12-7.0534-9.7082v12m-7.0534-33.708-7.0534-9.7082m7.0534 9.7082 7.0534-9.7082m-14.107-4e-6 7.0534-9.7082m7.0534 9.7082-7.0534-9.7082m7.0534 41.125-11.413-3.7082m4.3592-6 7.0534 9.7082m-7.0534-9.7082-11.413-3.7082 7.0534 9.7082m18.466 13.416-7.0534-9.7082m7.0534 9.7082 7.0534-9.7082m-14.107-4e-6 7.0534-9.7082m7.0534 9.7082-7.0534-9.7082m18.466 13.416-11.413-3.7082m4.3592-6 7.0534 9.7082m-7.0534-9.7082-11.413-3.7082 7.0534 9.7082m27.185-18-11.413 3.7082m0-7.4164 11.413 3.7082m-11.413-3.7082-11.413 3.7082 11.413 3.7082m0 9e-6v12m-11.413-3.7082 11.413 3.7082m-11.413-15.708 11.413 3.7082m-11.413-3.7082v12m11.413-15.708 7.0534-9.7082m-7.0534 9.7082 11.413 3.7082m-11.413-3.7082-7.0534-9.7082m7.0534 9.7082 7.0534-9.7082m-14.107 5e-6 7.0534-9.7082m7.0534 9.7082-7.0534-9.7082m0 19.416-11.413 3.7082-7.0534-9.7082m18.466 6-7.0534-9.7082-11.413 3.7082m7.0534 9.7082v12m-11.413-3.7082 11.413 3.7082m-11.413-15.708 11.413 3.7082m-11.413-3.7082v12m-7.0534 9.7082-7.0534-9.7082m7.0534 9.7082 7.0534-9.7082m-14.107-4e-6 7.0534-9.7082m7.0534 9.7082-7.0534-9.7082m-18.466-25.416 11.413 3.7082 7.0534-9.7082m18.466 6 11.413 3.7082m-7.0534 9.7082 7.0534-9.7082m-18.466 6 7.0534-9.7082m-7.0534 9.7082 11.413 3.7082m-1e-5 4e-6 -11.413 3.7082m0-7.4164 11.413 3.7082m-11.413-3.7082-11.413 3.7082 11.413 3.7082m-11.413-3.7082 11.413 3.7082m-4.3593 6-7.0534-9.7082m7.0534 9.7082 11.413 3.7082-7.0534-9.7082m-29.879-17.125 11.413 3.7082m-7.0534 9.7082 7.0534-9.7082m-18.466 6 7.0534-9.7082m-7.0534 9.7082 11.413 3.7082m7.0534 9.7082 1e-5 12m-11.413-3.7082 11.413 3.7082m-11.413-15.708 11.413 3.7082m-11.413-3.7082v12m11.413-8.2918-11.413-3.7082m4.3592-6 7.0534 9.7082m-7.0534-9.7082-11.413-3.7082 7.0534 9.7082m18.466-6v12m-7.0534-2.2918 7.0534-9.7082m-7.0534 9.7082v12l7.0534-9.7082m-7.0534-21.708 7.0534-9.7082m4.3592 6-11.413 3.7082m-1e-5 19.416-7.0534-9.7082m7.0534 9.7082 7.0534-9.7082m-14.107-3e-6 7.0534-9.7082m7.0534 9.7082-7.0534-9.7082m18.466 6-7.0534-9.7082m7.0534 9.7082 7.0534-9.7082m-18.466 13.416-7.0534-9.7082m11.413-3.7082-11.413 3.7082m18.466 6-11.413 3.7082m11.413-3.7082-7.0534-9.7082m14.107 38.833 11.413 3.7082m-4.3593 6-7.0534-9.7082m7.0534 9.7082 11.413 3.7082-7.0534-9.7082m-15.772 2.2918 11.413 3.7082m-11.413-3.7082v12m11.413-8.2918v12m-11.413-3.7082 11.413 3.7082m-43.986-41.125 1e-5 12m-1e-5 -12-11.413 3.7082m11.413 8.2918-11.413 3.7082m-1e-5 -12 1e-5 12m4.3592 6 7.0534-9.7082-11.413 3.7082m11.413-15.708-11.413 3.7082m11.413-3.7082-7.0534-9.7082m11.413 66.541 7.0534-9.7082m7.0534 9.7082-7.0534-9.7082m-25.519-15.708 7.0534-9.7082m1e-5 -3.8e-5 7.0534-9.7082m7.0534 9.7082-7.0534-9.7082m0 19.416-7.0534-9.7082m7.0534 9.7082 7.0534-9.7082m36.932 38.833 7.0534-9.7082m-62.452-47.125v12" fill="#959595" stroke="url(#radialGradient2269)" stroke-width=".8"/>
  </g>
 </g>
</svg>
