<svg xmlns="http://www.w3.org/2000/svg" xmlns:xlink="http://www.w3.org/1999/xlink" viewBox="0 0 493.183 154.781">
   <defs>
      <linearGradient id="b">
         <stop offset="0" stop-color="#fbd900" />
         <stop offset="1" stop-color="#ff420c" />
      </linearGradient>
      <linearGradient id="a">
         <stop offset="0" stop-color="#fbd900" />
         <stop offset="1" stop-color="#ff0c0c" />
      </linearGradient>
      <radialGradient xlink:href="#a" id="c" cx="179.465" cy="40.098" fx="179.465" fy="40.098" r="260.548"
         gradientTransform="matrix(.93668 0 0 .37715 11.363 24.975)" gradientUnits="userSpaceOnUse"
         spreadMethod="pad" />
      <radialGradient xlink:href="#b" id="d" gradientUnits="userSpaceOnUse"
         gradientTransform="matrix(1.56132 0 0 .49378 -100.737 20.298)" cx="179.465" cy="40.098" fx="179.465"
         fy="40.098" r="260.548" spreadMethod="pad" />
   </defs>
   <path
      d="M212.004 122.275l11.413 3.708m-11.413-3.708v12m11.413-8.292v12m-11.413-3.708l11.413 3.708m7.053-21.708v12m-7.053-2.292l7.053-9.708m-7.053 9.708v12m0 0l7.053-9.708m0-12l11.413 3.708m-11.413-3.708v12m11.413-8.292v12m-11.413-3.709l11.413 3.709m11.413-15.708v12m0-12l-11.413 3.708m11.413 8.292l-11.413 3.708m0-12v12m-122.21-3.708l-11.412 3.708m0-12v12m11.413-15.708v12m0-12l-11.413 3.708m-41.291-6l11.412 3.708m-11.412-3.708v12m11.412-8.292v12m-11.412-3.708l11.412 3.708m-22.825-19.416l11.413 3.708m-11.413-3.708v12m11.413-8.292v12m-11.413-3.708l11.413 3.708m-18.466 6l-7.054-9.708m7.054 9.708l7.053-9.708m-14.107 0l7.054-9.709m7.053 9.709l-7.053-9.709m59.757 7.417l-7.053-9.708m11.412-3.709l-11.412 3.709m18.466 6l-11.413 3.708m11.413-3.708l-7.054-9.709M-76.4-25.099l7.054 9.708m4.359-6L-76.4-25.099m11.413 3.708l7.053 9.708m0 0l-11.412-3.708m11.412 3.708v-12m-7.053 2.292l7.053 9.708m-7.053-9.708v-12m0 0l7.053 9.708m-7.053-21.708l11.413 3.708m0 0v12M-64.987-45.39v12m0 0l11.413 3.708m7.053-2.292l-7.053-9.708m0 0l7.053-9.708m0 19.416l7.053-9.708m0 0l-7.053-9.708m0 31.416v-12m-7.053 2.292l7.053 9.708m-7.053-9.708v-12m0 0l7.053 9.708m-18.466-1.416l7.053 9.708m4.36-6l-11.413-3.708m11.413 3.708l7.053 9.708m0 0l-11.413-3.708m55.399-25.416v12m0 0l-11.413 3.708m11.413-15.708l-11.413 3.708m0 0v12m-7.054 9.708l7.054-9.708m4.36 6l-11.414 3.708m11.413-3.708l7.054-9.708m0 0l-11.413 3.708m0-12v12m-7.054-2.292l7.054-9.708m-7.054 9.708v12m0 0l7.054-9.708m-7.054 9.708l-7.053-9.708m7.053-2.292v12m0-12l-7.053-9.708m0 0v12m87.971-7.416L48.504-37.1m0 0l-7.054-9.708m18.466 6l-7.053-9.709m0 0L41.45-46.807m73.865-7.417v12m-7.054-2.292l7.054-9.708m-7.054 9.708v12m0 0l7.054-9.708m-7.054 9.708l7.054-9.708m4.359 6l-11.413 3.708m11.413-3.708l7.053-9.708m0 0l-11.412 3.708m204.792-15.708v12m-7.054-2.292l7.054-9.708m-7.054 9.708v12m0 0l7.054-9.708m29.87 9.711l-7.054-9.708m7.054 9.708l7.053-9.708m-14.107 0l7.054-9.708m7.053 9.708l-7.053-9.708M428.2-6.221l11.413 3.708M428.2-6.22v12m11.413-8.292v12M428.2 5.78l11.413 3.708M428.2-18.22l11.413 3.708M428.2-18.22v12m11.413-8.292v12M428.2-6.22l11.413 3.708m-34.238 132.207l-7.053-9.708m11.412-3.708l-11.412 3.708m18.466 6l-11.413 3.708m11.413-3.708l-7.054-9.708m-22.825 0l11.413 3.708m-4.36 6l-7.053-9.708m7.053 9.708l11.413 3.708m0 0l-7.053-9.708m-15.772 14.292l-7.054-9.709m7.054-2.291v12m0-12l-7.054-9.709m0 0v12m0-12l11.413 3.709m-4.36 6l-7.053-9.708m7.054 9.708l11.412 3.708m0 0l-7.053-9.708m-41.292 18l-7.053-9.709m7.053 9.709l7.054-9.709m-14.107 0l7.053-9.708m7.054 9.708l-7.054-9.708m18.467 6l-11.413 3.708m11.413-3.708l-7.054-9.708m-4.36 13.416l-7.052-9.708m11.412-3.708l-11.412 3.708m-173.24 15.705l-7.053-9.708m7.053 9.708l7.053-9.708m-14.106 0l7.053-9.708m7.053 9.708l-7.053-9.708m-29.879 9.708l-11.413 3.708m0-12v12m11.413-15.708v12m0-12l-11.413 3.708m0 12l-11.412 3.709m0-12v12m11.412-15.709v12m0-12l-11.412 3.709m34.238 8.291l7.053-9.708m4.36 6l-11.413 3.708m11.413-3.708l7.053-9.708m0 0l-11.413 3.708m-41.291 1.417l-7.054-9.709m11.413-3.708l-11.413 3.708m18.466 6l-11.412 3.709m11.412-3.709l-7.053-9.708m-68.476 19.417l-7.053-9.709m7.053-2.291v12m0-12l-7.053-9.709m0 0v12m59.757 19.417l-7.053-9.708m7.053-2.292v12m0-12l-7.053-9.708m0 0v12M11.57 93.15v12m-7.053-2.292l7.053-9.708m-7.053 9.708v12m0 0l7.053-9.708m119.515 19.416l-11.412 3.709m0-12v12m11.412-15.709v12m0-12l-11.412 3.709m-136.316 8.291l-11.413 3.709m0-12v12m11.413-15.709v12m0-12l-11.413 3.709m-25.52 3.708l-11.412 3.708m0-12v12m11.413-15.708v12m0-12l-11.413 3.708m22.825 4.584l-11.412 3.708m0-12v12m11.412-15.708v12m0-12l-11.412 3.708m18.466-13.417v12m-7.054-2.291l7.054-9.709m-7.054 9.709v12m0 0l7.054-9.709m7.053 9.709l-7.053-9.709m7.053-2.291v12m0-12l-7.053-9.709m0 0v12m136.316 3.709v12m0-12l-11.413 3.708m11.413 8.292l-11.413 3.708m0-12v12m-59.758-7.417l7.054-9.708m-7.054 9.708l11.413 3.709m-4.36-13.417l11.414 3.708m-7.054 9.709l7.054-9.709m41.291 1.417v12m0-12l-11.413 3.708m11.413 8.292l-11.413 3.708m0-12v12m-66.81-24.541l11.412 3.708m-4.36 6l-7.053-9.708m7.054 9.708l11.412 3.708m0 0l-7.053-9.708m-25.52 15.708l-7.053-9.708m7.054-2.292v12m0-12l-7.054-9.708m0 0v12m-18.466 1.417l7.053-9.709m4.36 6l-11.413 3.709m11.413-3.709l7.053-9.708m0 0l-11.413 3.708m39.627-23.124v12M11.57 93.15l7.054-9.708M11.57 93.15v12m0 0l7.054-9.708m-28.214 7.416v12m-7.053-2.292l7.053-9.708m-7.053 9.708v12m0 0l7.053-9.708m14.107-12v12m-7.053-2.292l7.053-9.708m-7.053 9.708v12m0 0l7.053-9.708m-32.573-10.583l-7.053-9.709m7.053 9.709l7.053-9.709m-14.106 0l7.053-9.708m7.053 9.708l-7.053-9.708m39.626 20.292l7.054-9.708m-7.054 9.708l11.413 3.708m-4.36-13.416l11.414 3.708m-7.054 9.708l7.054-9.708m-72.2 17.125l7.054-9.709m7.053 9.709l-7.053-9.709m0 19.417l-7.054-9.708m7.054 9.708l7.053-9.708m11.413-35.125l7.053-9.708m7.054 9.708l-7.054-9.708m0 19.416l-7.053-9.708m7.053 9.708l7.054-9.708m-43.986 17.125l7.053-9.709m4.36 6l-11.413 3.709m11.413-3.709l7.053-9.708m0 0l-11.413 3.708m-32.573 1.417l7.054-9.708m7.053 9.708l-7.053-9.708m0 19.416l-7.054-9.708m7.054 9.708l7.053-9.708m0 0v12m-7.053-2.292l7.053-9.708m-7.053 9.708v12m0 0l7.053-9.708m0-12v12m-7.053-2.292l7.053-9.708m-7.053 9.708v12m0 0l7.053-9.708m-7.053 9.708l7.053-9.708m4.36 6l-11.413 3.708m11.413-3.708l7.053-9.708m0 0l-11.413 3.708m11.413-3.708l-11.413 3.708m0-12v12m11.413-15.708v12m0-12l-11.413 3.708m4.36 18l7.053-9.708m4.36 6l-11.413 3.708m11.412-3.708l7.054-9.709m0 0l-11.413 3.709m36.932-7.417v12m0-12l-11.413 3.708m11.413 8.292l-11.413 3.708m0-12v12m25.52 8.292l7.053-9.708m7.054 9.708l-7.054-9.708m0 19.416l-7.053-9.708m7.053 9.708l7.054-9.708M30.038 87.15v12m-11.413-3.708l11.413 3.708M18.625 83.442l11.413 3.708m-11.413-3.708v12m-39.627-.876l-7.053-9.708m11.413-3.708l-11.413 3.708m18.466 6l-11.413 3.708m11.413-3.708l-7.053-9.708m-4.36 13.416v12m-7.053-2.291l7.053-9.709m-7.053 9.709v12m0 0l7.053-9.709M-2.535 81.15v12m-7.054-2.292l7.054-9.708m-7.054 9.708v12m0 0l7.054-9.708m-25.52-8.292l7.053-9.708m4.36 6l-11.413 3.708m11.413-3.708l7.053-9.708m0 0l-11.413 3.708m-18.466 1.416v12m-7.053-2.291l7.053-9.709m-7.053 9.709v12m0 0l7.053-9.709m-18.466 1.417l7.054-9.708m4.359 6l-11.413 3.708m11.413-3.708l7.053-9.709m0 0l-11.412 3.709m-14.107 0l7.053-9.709m7.054 9.709l-7.054-9.709m0 19.417l-7.053-9.708m7.053 9.708l7.054-9.708m-7.054-21.709v12m-7.053-2.291l7.053-9.709m-7.053 9.709v12m0 0l7.053-9.709m7.054 9.709l-7.054-9.709m7.054-2.291v12m0-12l-7.054-9.709m0 0v12m0-24v12m-7.053-2.291l7.053-9.709m-7.053 9.709v12m0 0l7.053-9.709m7.054 9.709l-7.054-9.709m7.054-2.291v12m0-12l-7.054-9.709m0 0v12m-15.772-41.124l11.413 3.708m0 0v12m-11.413-15.708v12m0 0l11.413 3.708M-76.4-5.683l7.054-9.708M-76.4-5.683l11.413 3.708m-4.36-13.416l11.413 3.708m-7.053 9.708l7.053-9.708m-18.466 6l11.413 3.708m-4.36 6L-76.4-5.683m7.054 9.708l11.412 3.709m0 0l-7.053-9.709m2.694 23.125l-7.053-9.708m11.412-3.708l-11.412 3.708m18.466 6l-11.413 3.708m11.413-3.708l-7.054-9.708m-22.825 0l11.413 3.708m-4.36 6l-7.053-9.708m7.053 9.708l11.413 3.708m0 0l-7.053-9.708m11.412-3.708l-11.412 3.708m0-7.417l11.412 3.709m-11.412-3.709L-80.76 7.734m0 0l11.413 3.708m18.466 25.416l-11.413 3.708m0-7.416l11.413 3.708m-11.413-3.708l-11.413 3.708m0 0l11.413 3.708m-7.053 9.709l7.053-9.709m4.36 6l-11.413 3.709m11.412-3.709l7.054-9.708m0 0l-11.413 3.708m0-19.416l11.413 3.708m0 0v12M-62.293 21.15v12m0 0l11.413 3.708m-7.054-60.54l11.413 3.707m0 0v12m-11.413-15.708v12m0 0l11.413 3.708m11.413-15.708v12m0 0l-11.413 3.708m11.413-15.708l-11.413 3.708m0 0v12m11.413-27.708v12m0 0l-11.413 3.708m11.413-15.708l-11.413 3.708m0 0v12m18.466-25.416v12m-7.053-2.292l7.053-9.708m-7.053 9.708v12m0 0l7.053-9.708m-18.466 1.416l7.053-9.708m4.36 6l-11.413 3.708m11.413-3.708l7.053-9.708m0 0l-11.413 3.708m11.413 27.708l-7.053-9.708m0 0l7.053-9.708m0 19.416l7.053-9.708m0 0l-7.053-9.708m32.573 6l-7.054-9.708m0 0l7.054-9.708m0 19.416l7.053-9.708m0 0l-7.053-9.708M11.57-37.1v12m-7.053-2.292l7.053-9.708m-7.053 9.708v12m0 0l7.053-9.708m11.413-15.708v12m0 0L11.571-25.1m11.413-15.708L11.571-37.1m0 0v12m11.413-15.708L34.397-37.1m0 0v12M22.984-40.807v12m0 0L34.397-25.1m32.573-6l-7.054-9.708m0 0l7.054-9.709m0 19.417l7.053-9.708m0 0l-7.053-9.709M41.45-27.39l-7.053-9.708m0 0l7.053-9.708m0 19.416l7.054-9.708m0 0l-7.054-9.708M66.97-31.1l-11.413 3.708m0 0l-7.053-9.708m18.466 6l-7.054-9.708m0 0L48.504-37.1m48.344-11.125l11.413 3.708m0 0v12M96.848-48.224v12m0 0l11.413 3.708M4.518-15.39l7.053-9.708m4.36 6L4.518-15.391m11.413-3.708l7.053-9.708m0 0L11.571-25.1m85.277-23.125v12m0 0l-11.412 3.708m11.412-15.708l-11.412 3.708m0 0v12m0-12v12m0 0l-11.413 3.709m11.413-15.709l-11.413 3.709m0 0v12m34.238-3.709l-11.413 3.709m0-7.417l11.413 3.708M96.85-36.224l-11.413 3.708m0 0l11.412 3.709m18.467 6L103.902-19.1m0 0l-7.054-9.708m18.467 6l-7.054-9.709m0 0l-11.413 3.709m29.88 2.291l-11.413 3.709m0 0l-7.054-9.709m18.466 6l-7.053-9.708m0 0l-11.413 3.708M96.848-9.39l-7.053-9.708m0 0l7.053-9.708m0 19.416l7.054-9.708m0 0l-7.054-9.708m0 19.416l7.054-9.708m4.36 6L96.847-9.391m11.413-3.708l7.054-9.708m0 0L103.902-19.1m-25.52-3.708l7.054-9.709m0 0l11.412 3.709m-18.466 6L89.795-19.1m0 0l7.053-9.708m-22.825-12v12M66.97-31.1l7.053-9.708M66.97-31.1v12m0 0l7.053-9.708M66.97-19.1l7.053-9.708m4.36 6L66.97-19.1m11.412-3.708l7.054-9.709m0 0l-11.413 3.709M66.97-31.1v12m0-12l-11.413 3.708m11.413 8.292l-11.413 3.708m0-12v12m0 0l-7.053-9.708m7.053-2.292v12m0-12l-7.053-9.708m0 0v12m71.17-11.125l7.053-9.708m4.36 6l-11.413 3.708m11.412-3.708l7.054-9.708m0 0l-11.413 3.708m4.36 6l7.053-9.708m0 0l11.413 3.708m-18.467 6l11.413 3.708m0 0l7.054-9.708m-7.054 9.708l-11.412 3.708m0-7.416l11.412 3.708m-11.412-3.708l-11.413 3.708m0 0l11.413 3.708m11.412-3.708l7.054-9.708m0 0l11.412 3.708m-18.466 6l11.413 3.708m0 0l7.053-9.708m48.345 11.125l-7.053-9.708m0 0l7.053-9.709m0 19.417l7.054-9.708m0 0l-7.054-9.709m25.52-3.708l11.412 3.708m0 0v12M234.83-54.224v12m0 0l11.412 3.708m0-12l11.413 3.709m0 0v12m-11.413-15.709v12m0 0l11.413 3.709m25.52 3.708l-7.054-9.708m0 0l7.054-9.709m0 19.417l7.053-9.708m0 0l-7.053-9.709m96.68-2.83v12m0-12l-11.412 3.709m11.412 8.292l-11.412 3.708m0-12v12m34.238-15.708l11.412 3.708m-11.412-3.708v12m11.412-8.292v12m-11.412-3.708l11.412 3.708m18.467 13.416l-7.054-9.708m7.054-2.292v12m0-12l-7.054-9.708m0 0v12m-11.413-15.708l11.413 3.708m-11.413-3.708v12m11.413-8.292v12m-11.413-3.708l11.413 3.708m2.694 85.957l-7.053-9.708m0 0l7.053-9.708m0 19.416l7.054-9.708m0 0l-7.054-9.708m0 31.416l-7.053-9.708m7.053-2.292v12m0-12l-7.053-9.708m0 0v12m18.466 13.417L428.2 71.445m0-7.417l11.413 3.709M428.2 64.028l-11.412 3.709m0 0l11.412 3.708m0-7.417l-11.412 3.709m0 0l-7.054-9.709m18.466 6l-7.053-9.708m0 0l-11.413 3.708m11.413-15.708v12m0 0l-11.413 3.708m11.413-15.708l-11.413 3.708m0 0v12m29.879-29.124L428.2 32.612m0 0l-7.053-9.708m18.466 6l-7.053-9.708m0 0l-11.413 3.708m0 19.416l-7.054-9.708m0 0l7.054-9.708m0 19.416l7.053-9.708m0 0l-7.053-9.708m0-50.833l11.413 3.708m-4.36 6l-7.053-9.708m7.053 9.708l11.413 3.708m0 0l-7.053-9.708m-11.413 39.708L428.2 5.78m-7.053 9.708l11.413 3.709M428.2 5.779l11.413 3.708m-7.053 9.709l7.053-9.709m-18.466-18l-7.054-9.708m7.054 9.708l7.053-9.708m-14.107 0l7.054-9.708m7.053 9.708l-7.053-9.708m-7.054 9.708l-7.053-9.708m7.053 9.708l7.054-9.708m-14.107 0l7.053-9.708m7.054 9.708l-7.054-9.708m7.054 29.124v12m0-12l-11.413 3.709m11.413 8.291l-11.413 3.709m0-12v12m11.413-15.709l-11.413 3.709m11.413-3.709l-7.054-9.708m-4.359 13.417l-7.053-9.709m11.412-3.708l-11.412 3.708m18.466 18v12m0-12l-11.413 3.709m11.413 8.291l-11.413 3.709m0-12v12M428.2-18.221v12m-7.053-2.292l7.053-9.708m-7.053 9.708v12m0 0L428.2-6.22m-14.107-31.416l11.413 3.708m-4.36 6l-7.053-9.708m7.054 9.708l11.413 3.708m0 0l-7.054-9.708m-29.879 2.292l11.413 3.708m-4.36 6l-7.053-9.708m7.054 9.708l11.412 3.708m0 0l-7.053-9.708m-11.413-3.708l7.054-9.708m0 0l11.412 3.708m-18.466 6l11.413 3.708m0 0l7.053-9.708m-11.412 66.54l7.053-9.707m0 0l11.413 3.708m-18.466 6l11.412 3.708m0 0l7.054-9.708m0 19.416l-11.413 3.708m0 0l-7.053-9.708m18.466 6l-7.054-9.708m0 0l-11.412 3.708M428.2-6.22v12m-7.054-2.293L428.2-6.22m-7.053 9.708v12m0 0L428.2 5.78m-29.878-2.292l11.412 3.709m-11.412-3.709v12m11.412-8.291v12m-11.412-3.709l11.412 3.709M398.321-8.513l11.413 3.709m-11.413-3.709v12m11.413-8.291v12m-11.413-3.709l11.413 3.709m22.826 12l-11.413 3.708m0-7.417l11.413 3.709m-11.413-3.709l-11.413 3.709m0 0l11.413 3.708m-29.879 2.292l7.054-9.709m-7.054 9.709l11.413 3.708m-4.36-13.417l11.413 3.709m-7.053 9.708l7.053-9.708M78.382 110.275l-11.412 3.708m0-12v12m11.412-15.708v12m0-12l-11.412 3.708m45.65 4.583l-11.412 3.709m0-12v12m11.412-15.709v12m0-12l-11.412 3.709m0 12l-11.413 3.708m0-12v12m11.413-15.708v12m0-12l-11.413 3.708m-34.238-3.708l11.413 3.708m-11.413-3.708v12m11.413-8.292v12m-11.413-3.708l11.413 3.708m11.412-15.708l-11.412 3.708m11.412-3.708l-7.053-9.709m-4.36 13.417l-7.053-9.708m11.413-3.709l-11.413 3.709M313.044-36.221l7.054-9.708m0 0l11.413 3.708m-18.467 6l11.413 3.708m0 0l7.054-9.708m18.466 6l-11.413 3.708m0 0l-7.053-9.708m18.466 6l-7.054-9.708m0 0l-11.412 3.708m0 19.417l-7.054-9.709m7.054 9.709l7.053-9.709m-14.107 0l7.054-9.708m7.053 9.708l-7.053-9.708m36.932-7.416v12m0-12L357.03-45.93m11.413 8.292L357.03-33.93m0-12v12m4.36 6l7.053-9.708m4.359 6l-11.413 3.708m11.413-3.708l7.053-9.708m0 0l-11.412 3.708m-18.466 13.416l7.053-9.708m4.36 6l-11.413 3.708m11.412-3.708l7.054-9.708m0 0L357.03-33.93m-43.977-14.295v12m0 0l-11.412 3.708m11.412-15.708l-11.412 3.708m0 0v12m0-12v12m0 0l-11.413 3.709m11.413-15.709l-11.413 3.709m0 0v12m-25.52 3.708l-7.053-9.708m7.053-2.292v12m0-12l-7.053-9.708m0 0v12m-11.413-3.709l11.413 3.709m-4.36 6l-7.053-9.709m7.054 9.709l11.412 3.708m0 0l-7.053-9.708m18.466-6v12m0 0L264.708-25.1m11.413-15.708L264.708-37.1m0 0v12M234.83-54.224v12m0 0l-11.413 3.708m11.413-15.708l-11.413 3.708m0 0v12m0-12v12m-7.053-2.291l7.053-9.709m-7.053 9.709v12m0 0l7.053-9.709m18.466 6l-11.413 3.709m0 0l-7.053-9.709m18.466 6l-7.053-9.708m0 0l-11.413 3.708m0 19.417l-7.053-9.708m7.053 9.708l7.053-9.708m-14.106 0l7.053-9.709m7.053 9.709l-7.053-9.709m-21.16 9.709l-7.054-9.709m7.054-2.291v12m0-12l-7.054-9.709m0 0v12m21.16-2.291v12M209.31-31.1l7.054-9.708M209.31-31.1v12m0 0l7.054-9.708M209.31-19.1l-7.053-9.708m7.053-2.292v12m0-12l-7.053-9.708m0 0v12M183.79-42.224l11.412 3.708m-4.359 6l-7.053-9.708m7.053 9.708l11.413 3.709m0 0l-7.054-9.709m-22.825-7.416l11.413 3.708m-4.36 6l-7.053-9.708m7.053 9.708l11.413 3.708m0 0l-7.053-9.708m-4.36 6l-11.412 3.708m11.412-3.708l-7.053-9.708m-4.36 13.416l-7.053-9.708m11.413-3.708l-11.413 3.708m29.88 9.708v12m-11.414-3.708l11.413 3.708m-11.413-15.708l11.413 3.708m-11.413-3.708v12m0 0l-11.412 3.708m0-12v12m11.412-15.708v12m0-12l-11.412 3.708m11.412 20.292L168.02-8.516m0-12v12m11.412-15.708v12m0-12l-11.412 3.708m22.825 0v12m-11.413-3.708l11.413 3.708m-11.413-15.708l11.413 3.708m-11.413-3.708v12m11.413 3.708l-11.413 3.709m0-7.417l11.413 3.708m-11.413-3.708L168.02-8.516m0 0l11.412 3.709m-18.466-18l-7.053-9.709m7.053 9.709l7.054-9.709m-14.107 0l7.053-9.708m7.054 9.708l-7.054-9.708m7.054 9.708v12m-7.054-2.291l7.054-9.709m-7.054 9.709v12m0 0l7.054-9.709m-18.466-6l11.412 3.709m-11.412-3.709v12m11.412-8.291v12m-11.412-3.709l11.412 3.709M398.322 3.487v12m0-12l-11.413 3.709m11.413 8.291l-11.413 3.709m0-12v12M37.09 84.858l11.413 3.708M37.09 84.858v12m11.413-8.292v12M37.09 96.858l11.413 3.708m-51.04 12l-7.053-9.708m7.054 9.708l7.053-9.708m-14.107 0l7.054-9.708m7.053 9.708l-7.053-9.708m58.092 17.125l-7.053-9.709m7.053-2.291v12m0-12l-7.053-9.709m0 0v12m41.291-6l-11.413 3.709m11.413-3.709l-7.053-9.708m-4.36 13.417l-7.053-9.709m11.413-3.708l-11.413 3.708m29.879 9.709l-11.413 3.708m0-7.417l11.413 3.709m-11.413-3.709l-11.413 3.709m0 0l11.413 3.708m-41.291-1.417v12m-11.413-3.708l11.413 3.708M37.09 96.858l11.413 3.708M37.09 96.858v12m11.413-20.292l11.412 3.709m-4.359 6l-7.053-9.709m7.053 9.709l11.413 3.708m0 0l-7.054-9.708M4.518 102.858l-7.053-9.708m7.053 9.708l7.053-9.708m-14.106 0l7.053-9.708m7.053 9.708l-7.053-9.708m137.981 37.416l7.054-9.708m-7.054 9.708l11.413 3.708m-4.36-13.416l11.413 3.708m-7.053 9.708l7.053-9.708m-130.928 3.708l-7.053-9.708m0 0l7.053-9.708m0 19.416l7.054-9.708m0 0l-7.054-9.708m7.054 9.708l-7.054-9.708m7.054-2.292v12m0-12l-7.054-9.708m0 0v12M142.5-36.224l11.413 3.708m-4.36 6l-7.053-9.708m7.054 9.708l11.412 3.709m0 0l-7.053-9.709m-4.36 6l-11.412 3.709m11.413-3.709l-7.054-9.708m-4.36 13.417l-7.052-9.709m11.412-3.708l-11.412 3.708m18.466 6v12m0-12l-11.413 3.709m11.413 8.291l-11.413 3.709m0-12v12m-11.413-15.709l11.413 3.709m-11.413-3.709v12m11.413-8.291v12m-11.413-3.709l11.413 3.709m-11.413-15.709v12m0 0l-11.412 3.709m11.412-15.709l-11.412 3.709m0 0v12m4.359-25.417l11.413 3.708m-4.36 6l-7.053-9.708m7.053 9.708l11.413 3.709m0 0l-7.053-9.709m36.932 12v12m-7.054-2.291l7.054-9.709m-7.054 9.709v12m0 0l7.054-9.709m246.074-9.705l-11.412 3.708m0-7.416l11.412 3.708m-11.412-3.708l-11.413 3.708m0 0l11.413 3.708m-11.413-3.708l11.413 3.708m-4.36 6l-7.053-9.708m7.054 9.708l11.412 3.709m0 0l-7.053-9.709m-4.36 6L386.91-4.804m11.413-3.709l-7.054-9.708m-4.36 13.417l-7.053-9.709m11.413-3.708l-11.413 3.708m18.467 6v12m0-12l-11.413 3.709m11.413 8.291l-11.413 3.709m0-12v12M375.496-8.513l11.413 3.709m-11.413-3.709v12m11.413-8.291v12m-11.413-3.709l11.413 3.709m15.772-60.541v12m0-12l-11.413 3.708m11.413 8.292l-11.413 3.708m0-12v12m-22.825 19.416v12m0 0L357.03-2.513m11.413-15.708l-11.413 3.708m0 0v12m22.825-50.832l11.413 3.708m-11.413-3.708v12m11.413-8.292v12m-11.413-3.708l11.413 3.708m-7.053 9.708l7.053-9.708m4.36 6l-11.413 3.708m11.412-3.708l7.054-9.708m0 0l-11.413 3.708m11.413 15.708l-11.413 3.708m11.413-3.708l-7.054-9.708m-4.359 13.416l-7.053-9.708m11.412-3.708l-11.412 3.708m-11.413-3.708l11.413 3.708m-4.36 6l-7.053-9.708m7.053 9.708l11.413 3.708m0 0l-7.053-9.708m-4.36-13.416l11.413 3.708m-7.053 9.708l7.053-9.708m-18.466 6l7.053-9.708m-7.053 9.708l11.413 3.708m-15.772 9.708l11.412 3.708m-4.359 6l-7.053-9.708m7.053 9.708l11.413 3.709m0 0l-7.054-9.709m11.413-3.708l-11.413 3.708m0-7.416l11.413 3.708m-11.413-3.708l-11.412 3.708m0 0l11.412 3.708m0-7.416l-11.412 3.708m11.412-3.708l-7.053-9.708m-4.36 13.416l-7.053-9.708m11.413-3.708l-11.413 3.708m7.054 9.708l-11.413 3.708m11.413-3.708l-7.054-9.708m-4.359 13.416l-7.053-9.708m11.412-3.708l-11.412 3.708m0-12v12m0 0l-11.413 3.708m11.413-15.708l-11.413 3.708m0 0v12m18.466-25.416v12m-7.053-2.292l7.053-9.708m-7.053 9.708v12m0 0l7.053-9.708m18.466 37.416l-7.053-9.708m7.053-2.292v12m0-12l-7.053-9.708m0 0v12M423.84 96.861l-7.053-9.708m11.412-3.708l-11.412 3.708m18.466 6l-11.413 3.708m11.413-3.708l-7.054-9.708m-48.345 23.125l11.413 3.708m-4.36 6l-7.053-9.708m7.054 9.708l11.413 3.708m0 0l-7.054-9.708m-22.825-7.417l11.413 3.708m-4.36 6l-7.053-9.708m7.053 9.708l11.413 3.709m0 0l-7.053-9.709m-22.826-7.416l11.413 3.708m-4.36 6l-7.053-9.708m7.054 9.708l11.412 3.708m0 0l-7.053-9.708m-4.36 18l-7.053-9.708m7.054-2.292v12m0-12l-7.054-9.708m0 0v12m0-12v12m0-12l-11.413 3.708m11.413 8.292l-11.413 3.708m0-12v12M149.553 99.15v12m-7.054-2.292l7.054-9.708m-7.054 9.708v12m0 0l7.054-9.708m-18.467 1.416l7.054-9.708m4.36 6l-11.414 3.708m11.413-3.708l7.054-9.708m0 0l-11.413 3.708m11.413-3.708l11.412 3.708m-11.412-3.708v12m11.412-8.292v12m-11.412-3.708l11.412 3.708m159.133 3.711l7.053-9.708m4.36 6l-11.413 3.708m11.413-3.708l7.053-9.708m0 0l-11.413 3.708m11.413 15.708l-7.053-9.708m7.053 9.708l7.054-9.708m-14.107 0l7.053-9.708m7.054 9.708l-7.054-9.708m-29.879 9.708l7.054-9.708m-7.054 9.708l11.413 3.709m-4.36-13.417l11.413 3.708m-7.053 9.709l7.053-9.709m41.292-95.665l7.053-9.709m-7.053 9.709l11.412 3.708m-4.359-13.417l11.413 3.709m-7.054 9.708l7.054-9.708m-29.879 9.708l7.053-9.708m4.36 6l-11.413 3.708m11.413-3.708l7.053-9.709m0 0l-11.413 3.709M345.617 114.86l-7.053-9.708m7.053-2.292v12m0-12l-7.053-9.708m0 0v12m18.466-6l-11.413 3.708m11.413-3.708l-7.053-9.708m-4.36 13.416l-7.053-9.708m11.413-3.708l-11.413 3.708m0 0v12m0-12l-11.413 3.708m11.413 8.292l-11.413 3.708m0-12v12m11.413-15.708l-11.413 3.708m0-7.416l11.413 3.708m-11.413-3.708l-11.412 3.708m0 0l11.412 3.708m-11.412-3.708l11.412 3.708m-11.412-3.708v12m11.412-8.292v12m-11.412-3.708l11.412 3.708m41.292-18l11.412 3.708m-11.412-3.708v12m11.412-8.292v12m-11.412-3.708l11.412 3.708m-22.825-7.416l-7.053-9.708m7.053-2.292v12m0-12l-7.053-9.708m0 0v12m0-12v12m0-12l-11.413 3.708m11.413 8.292l-11.413 3.708m0-12v12m11.413-15.708l-11.413 3.708m0-7.416l11.413 3.708m-11.413-3.708l-11.413 3.708m0 0l11.413 3.708m-11.413-3.708l11.413 3.708m-11.413-3.708v12m11.413-8.292v12m-11.413-3.708l11.413 3.708M264.7 124.57l-11.413 3.708m0-12v12M264.7 112.57v12m0-12l-11.413 3.708m62.452-23.125l-7.054-9.708m11.413-3.708l-11.413 3.708m18.466 6l-11.412 3.708m11.412-3.708l-7.053-9.708m-18.466 13.416l7.053-9.708m7.054 9.708l-7.054-9.708m0 19.416l-7.053-9.708m7.053 9.708l7.054-9.708m-25.52 39.708l-7.053-9.708m7.053-2.292v12m0-12l-7.053-9.708m0 0v12m0-12v12m-7.054-2.292l7.054-9.708m-7.054 9.708v12m0 0l7.054-9.708m-29.87-6.878l-11.413 3.708m0-7.417l11.413 3.709m-11.413-3.709l-11.413 3.709m0 0l11.413 3.708m34.23.878L264.7 124.57m0-12v12m11.412-15.709v12m0-12L264.7 112.57m32.573-1.417l11.412 3.708m-7.053 9.708l7.053-9.708m-18.466 6l7.054-9.708m-7.054 9.708l11.413 3.708m7.053-21.708v12m-11.413-3.708l11.413 3.708m-11.412-15.708l11.412 3.708m-11.412-3.708v12m-14.107 0l7.053-9.708m7.054 9.708l-7.054-9.708m0 19.416l-7.053-9.708m7.053 9.708l7.054-9.708m0 0l-7.054-9.708m7.054-2.292v12m0-12l-7.054-9.708m0 0v12m-7.053-2.292l-7.054-9.708m0 0l7.054-9.708m0 19.416l7.053-9.708m0 0l-7.053-9.708M264.7 112.57l-7.054-9.709m0 0l7.054-9.708m0 19.417l7.053-9.709m0 0l-7.053-9.708m-22.817 19.413l-11.413 3.709m11.413-3.709l-7.053-9.708m-4.36 13.417l-7.053-9.709m11.413-3.708l-11.413 3.708m41.283 6.004l-11.413 3.708m0 0l-7.054-9.708m18.467 6l-7.054-9.709m0 0l-11.413 3.709m-11.412-3.709l11.412 3.709m-4.359 6l-7.053-9.709m7.053 9.709l11.413 3.708m0 0l-7.054-9.708m-73.855-7.42v12m0-12l-11.413 3.708m11.413 8.292l-11.413 3.708m0-12v12m18.466 6l-7.053-9.708m7.053 9.708l7.054-9.708m-14.107 0l7.053-9.708m7.054 9.708l-7.054-9.708m0-12v12m-7.053-2.292l7.053-9.708m-7.053 9.708v12m0 0l7.053-9.708m7.054 9.708l-7.054-9.708m7.054-2.292v12m0-12l-7.054-9.708m0 0v12m32.573 20.833l7.054-9.709m-7.054 9.709l11.413 3.708m-4.36-13.417l11.413 3.709m-7.053 9.708l7.053-9.708m-43.985 14.291l-7.054-9.708m7.054 9.708l7.053-9.708m-14.107 0l7.054-9.708m7.053 9.708l-7.053-9.708m25.52 23.125l-7.054-9.709m7.053-2.291v12m0-12l-7.053-9.709m0 0v12m-11.413-15.708l11.413 3.708m-11.413-3.708v12m11.413-8.292v12m-11.413-3.708l11.413 3.708m-11.413-15.708l7.054-9.708m0 0l11.412 3.708m-18.466 6l11.413 3.708m0 0l7.053-9.708m-18.466 18l-7.053-9.708m7.053-2.292v12m0-12l-7.053-9.708m0 0v12m96.68-11.997l-11.412 3.708m11.413-3.708l-7.054-9.708m-4.359 13.416l-7.053-9.708m11.412-3.708L264.7 93.153m-52.696 9.705l11.413 3.708m-4.36 6l-7.053-9.708m7.054 9.708l11.412 3.709m0 0l-7.053-9.709m-29.879 2.292l-7.053-9.708m7.053 9.708l7.054-9.708m-14.107 0l7.053-9.708m7.054 9.708l-7.054-9.708m18.466 13.416l-11.412-3.708m4.359-6l7.053 9.708m-7.053-9.708l-11.413-3.708m0 0l7.054 9.708m4.359-6l11.413 3.708m-4.36 6l-7.053-9.708m7.053 9.708l11.413 3.708m0 0l-7.053-9.708m-4.36 25.417l-7.053-9.709m7.053 9.709l7.054-9.709m-14.107 0l7.053-9.708m7.054 9.708l-7.054-9.708m126.56-29.121l-11.413 3.708m11.413-3.708l-7.053-9.709m-4.36 13.417l-7.053-9.708m11.413-3.709l-11.413 3.709m55.398 44.832v12m-11.412-3.708l11.412 3.708m-11.412-15.708l11.412 3.708m-11.412-3.708v12M204.95 93.15l7.053-9.708m-7.053 9.708l11.413 3.708m-4.36-13.416l11.413 3.708m-7.053 9.708l7.053-9.708m0 19.416l-7.053-9.708m7.053 9.708l7.053-9.708m-14.106 0l7.053-9.708m7.053 9.708l-7.053-9.708m11.404 15.711l7.053-9.708m-7.053 9.708l11.412 3.709m-4.359-13.417l11.413 3.708m-7.054 9.709l7.054-9.709m-7.054 9.709l7.054-9.709m4.36 6l-11.414 3.709m11.413-3.709l7.054-9.708m0 0l-11.413 3.708M264.7 112.57l7.053-9.708m4.36 6L264.7 112.57m11.412-3.708l7.054-9.708m0 0l-11.413 3.708m-29.87-21.71V93.15m0-12l-11.413 3.708m11.413 8.292l-11.413 3.708m0-12v12m11.404-15.705l11.413 3.708m-11.413-3.708v12m11.413-8.292v12m-11.413-3.708l11.413 3.708M264.7 81.153v12m0-12l-11.413 3.708m11.413 8.292l-11.413 3.708m0-12v12m22.825-19.416v12m0-12L264.7 81.153m11.412 8.292L264.7 93.153m0-12v12m25.52-3.708l7.052-9.708m0 0l11.413 3.708m-18.466 6l11.413 3.708m0 0l7.053-9.708M230.47 96.858l-7.053-9.708m7.053-2.292v12m0-12l-7.053-9.708m0 0v12m66.802 2.295l-7.053-9.708m0 0l7.053-9.709m0 19.417l7.054-9.708m0 0l-7.054-9.709m-14.107 7.417L264.7 81.153m11.412-3.708l-7.053-9.708m-4.36 13.416l-7.053-9.708m11.413-3.708l-11.413 3.708m-15.772 9.708l-11.412 3.708m11.412-3.708l-7.053-9.708m-4.36 13.416l-7.053-9.708m11.413-3.708l-11.413 3.708m.01 31.413l7.053-9.708m4.359 6l-11.413 3.708m11.413-3.708l7.053-9.708m0 0l-11.412 3.708m59.748-7.413v12m-7.053-2.292l7.053-9.708m-7.053 9.708v12m0 0l7.053-9.708m0-12l11.413 3.708m-4.36 6l-7.053-9.708m7.054 9.708l11.412 3.708m0 0l-7.053-9.708m-25.52-15.708l-7.053-9.708m7.053 9.708l7.054-9.708m-14.107 0l7.053-9.709m7.054 9.709l-7.054-9.709M264.708 81.15l-11.412 3.708m11.412-3.708l-7.053-9.708m-4.36 13.416l-7.053-9.708m11.413-3.708l-11.413 3.708m73.856-7.413v12m0-12l-11.413 3.708m11.413 8.292l-11.413 3.708m0-12v12m-51.039-12l7.054-9.708m4.359 6l-11.413 3.708m11.413-3.708l7.053-9.709m0 0L264.7 61.737M391.268 90.86v12m0-12l-11.413 3.708m11.413 8.292l-11.413 3.708m0-12v12M290.22 58.03v12m-7.053-2.292l7.053-9.709m-7.053 9.709v12m0 0l7.053-9.709m11.413-8.291v12m-11.413-3.709l11.413 3.709m-11.413-15.709l11.413 3.709m-11.413-3.709v12m-7.053-2.291v12m-7.054-2.292l7.054-9.708m-7.054 9.708v12m0 0l7.054-9.708m0 19.416v12m-7.054-2.292l7.054-9.708m-7.054 9.708v12m0 0l7.054-9.708m25.52-39.708l-7.054-9.708m0 0l7.053-9.708m0 19.416l7.054-9.708m0 0l-7.054-9.708m0 19.416l7.054-9.708m4.359 6l-11.413 3.708m11.413-3.708l7.053-9.709m0 0l-11.412 3.709m4.359 6l7.053-9.709m4.36 6l-11.413 3.709m11.413-3.708l7.053-9.709m0 0l-11.413 3.708m11.413 15.709l-7.053-9.709m7.053 9.709l7.053-9.709m-14.106 0l7.053-9.708m7.053 9.708l-7.053-9.708m-48.345 15.708l11.413 3.709m-4.36 6l-7.053-9.709m7.054 9.709l11.412 3.708m0 0l-7.053-9.708m7.053 9.708l-7.053-9.708m7.053-2.292v12m0-12l-7.053-9.708m0 0v12m-66.811-2.292l11.412 3.708m-4.359 6l-7.053-9.708m7.053 9.708l11.413 3.708m0 0l-7.054-9.708M172.378 87.15v12m0-12l-11.413 3.708m11.413 8.292l-11.413 3.708m0-12v12M149.553 87.15l11.412 3.708m-11.412-3.708v12m11.412-8.292v12m-11.412-3.708l11.412 3.708M149.553 87.15v12m0-12l-11.413 3.708m11.413 8.292l-11.413 3.708m0-12v12m119.506-43.413v12m0-12l-11.413 3.708m11.413 8.292l-11.413 3.708m0-12v12M234.83 59.442l11.412 3.708m-11.412-3.708v12m11.412-8.292v12m-11.412-3.708l11.412 3.708M234.83 59.442v12m0-12l-11.413 3.708m11.413 8.292l-11.413 3.708m0-12v12m4.35-25.413l11.413 3.708m-4.36 6l-7.053-9.708m7.054 9.708l11.412 3.708m0 0l-7.053-9.708m-4.35 5.997l-11.413 3.708m0 0l-7.053-9.708m18.466 6l-7.054-9.708m0 0l-11.412 3.708m29.87 9.711l-7.054-9.708m7.053-2.292v12m0-12l-7.053-9.708m0 0v12m14.107-12v12m-7.054-2.292l7.054-9.708m-7.054 9.708v12m0 0l7.054-9.708M264.7 37.737v12m0 0l-11.413 3.708M264.7 37.737l-11.413 3.708m0 0v12m-7.054-2.292l-7.053-9.708m7.053 9.708l7.054-9.708m-14.107 0l7.053-9.708m7.054 9.708l-7.054-9.708m-18.457 5.997l11.413 3.708m-11.413-3.708v12m11.413-8.292v12m-11.413-3.708l11.413 3.708m-34.238-3.708l11.413 3.708m-4.36 6l-7.053-9.708m7.053 9.708l11.413 3.708m0 0l-7.053-9.708M30.037 75.15l7.054-9.708m7.053 9.708l-7.053-9.708m0 19.416l-7.054-9.708m7.054 9.708l7.053-9.708m11.413 3.708l11.413 3.708m-7.054 9.709l7.054-9.709m-18.466 6l7.053-9.708m-7.053 9.708l11.412 3.709m0 0l7.054-9.709m4.359 6l-11.413 3.709m11.413-3.709l7.053-9.708m0 0L66.97 82.566m11.412-3.708L66.97 82.566m0-7.416l11.412 3.708M66.97 75.15l-11.413 3.708m0 0l11.413 3.708m112.461 6.876l7.054-9.708m7.053 9.708l-7.053-9.708m0 19.416l-7.054-9.708m7.054 9.708l7.053-9.708m-14.107-12v12m-7.053-2.292l7.053-9.708m-7.053 9.708v12m0 0l7.053-9.708m14.107 0l-7.053-9.708m7.053-2.292v12m0-12l-7.053-9.708m0 0v12m0-12l11.412 3.708m-4.359 6l-7.053-9.708m7.053 9.708l11.413 3.708m0 0l-7.054-9.708m-36.932 19.416l-7.053-9.708m11.412-3.708l-11.412 3.708m18.466 6l-11.413 3.708m11.413-3.708l-7.054-9.708m-22.825 0l11.413 3.708m-4.36 6l-7.053-9.708m7.054 9.708l11.412 3.708m0 0l-7.053-9.708m92.321-17.997l7.054-9.708m4.36 6l-11.414 3.708m11.413-3.708l7.054-9.708m0 0l-11.413 3.708M138.14 102.858l-7.054-9.708m7.054-2.292v12m0-12l-7.054-9.708m0 0v12m55.399-25.416v12m-7.054-2.292l7.054-9.708m-7.054 9.708v12m0 0l7.054-9.708m7.053-21.709l11.413 3.709m-7.054 9.708l7.054-9.708m-18.466 6l7.053-9.709m-7.053 9.709l11.412 3.708m-36.932-7.417l11.413 3.709m-7.054 9.708l7.054-9.708m-18.466 6l7.053-9.709m-7.053 9.709l11.412 3.708m2.695-23.125l11.412 3.708m-7.053 9.709l7.053-9.709m-18.466 6l7.054-9.708m-7.054 9.708l11.413 3.709m-7.054 9.708l-11.412 3.708m0-7.416l11.412 3.708m-11.412-3.708l-11.413 3.708m0 0l11.413 3.708m-11.413-15.708v12m0-12l-11.412 3.708m11.412 8.292l-11.412 3.708m0-12v12m-18.467 25.416l7.054-9.708m4.36 6l-11.414 3.708m11.413-3.708l7.054-9.708m0 0l-11.413 3.708m34.238-35.124v12m0-12l-11.413 3.708m11.413 8.292l-11.413 3.708m0-12v12m25.52-35.125l11.412 3.708m-11.412-3.708v12m11.412-8.292v12m-11.412-3.708l11.412 3.708m-25.52 3.709l-7.053-9.709m7.054 9.709l7.053-9.709m-14.107 0l7.054-9.708m7.053 9.708l-7.053-9.708m0 19.417l-11.413 3.708m11.413-3.708l-7.054-9.709M142.5 65.442l-7.053-9.708m11.412-3.709l-11.412 3.709m32.573-13.417v12m-7.054-2.292l7.054-9.708m-7.054 9.708v12m0 0l7.054-9.708m-7.054-2.292v12m-7.053-2.291l7.053-9.709m-7.053 9.709v12m0 0l7.053-9.709m-71.17 30.541l-7.053-9.708m7.053 9.708l7.053-9.708m-14.106 0l7.053-9.708m7.053 9.708l-7.053-9.708m82.583-7.416l7.053-9.709m7.054 9.709l-7.054-9.709m0 19.417l-7.053-9.708m7.053 9.708l7.054-9.708m-96.69 7.416l11.413 3.708m-4.36 6l-7.053-9.708m7.053 9.708l11.413 3.708m0 0l-7.053-9.708M89.795 94.566l7.053-9.708m-7.053 9.708l11.413 3.709m-4.36-13.417l11.413 3.708m-7.053 9.709l7.053-9.709m11.413-3.708l-7.054-9.708m7.054-2.292v12m0-12l-7.054-9.708m0 0v12m7.054 9.708v12m-7.054-2.292l7.054-9.708m-7.054 9.708v12m0 0l7.054-9.708m0-12l-11.413 3.708m11.413-3.708l-7.054-9.708m-4.359 13.416l-7.053-9.708m11.412-3.708l-11.412 3.708m110.796-7.416l11.413 3.708m0 0v12m-11.413-15.708v12m0 0l11.413 3.708M89.795 113.983l-11.413 3.708m0-7.416l11.413 3.708m-11.413-3.708l-11.412 3.708m0 0l11.412 3.708m52.705-24.541l-11.413 3.708m0-12v12m11.413-15.708v12m0-12l-11.413 3.708m92.33-13.416l-7.053-9.708m7.053-2.292v12m0-12l-7.053-9.708m0 0v12m-103.743 36.54l7.053-9.708m4.36 6l-11.413 3.709m11.412-3.709l7.054-9.708m0 0l-11.413 3.708m-18.466 13.417v12m-11.413-3.708l11.413 3.708M78.382 98.275l11.413 3.708m-11.413-3.708v12m119.515-38.833l7.054-9.708m7.053 9.708l-7.053-9.708m0 19.416l-7.054-9.708m7.054 9.708l7.053-9.708m-87.971 31.416l7.053-9.708m7.054 9.708l-7.054-9.708m0 19.416l-7.053-9.708m7.053 9.708l7.054-9.708m-18.466-30l-7.054-9.708m11.413-3.708L112.62 63.15m18.467 6l-11.413 3.708m11.413-3.708l-7.054-9.708m7.054 9.708v12m0-12l-11.413 3.708m11.413 8.292l-11.413 3.708m0-12v12m29.879 2.292l-11.413 3.708m11.413-3.708l-7.054-9.708m-4.36 13.416l-7.053-9.708m11.413-3.708l-11.413 3.708M331.511-22.804l-11.413 3.708m11.413-3.708l-7.054-9.709m-4.36 13.417l-7.053-9.708m11.413-3.709l-11.413 3.709m89.637 57.708l-11.413 3.708m0-7.416l11.413 3.708m-11.413-3.708l-11.413 3.708m0 0l11.413 3.708M357.03-14.513v12m0-12l-11.413 3.709m11.413 8.291l-11.413 3.709m0-12v12m-7.053-33.709v12m-7.053-2.291l7.053-9.709m-7.053 9.709v12m0 0l7.053-9.709m0 19.417l-7.053-9.708m7.053 9.708l7.053-9.708m-14.106 0l7.053-9.709m7.053 9.709l-7.053-9.709m0 31.417l7.053-9.708m4.36 6l-11.413 3.708m11.413-3.708l7.053-9.709m0 0l-11.413 3.709m-32.573-30v12m-7.053-2.292l7.053-9.708m-7.053 9.708v12m0 0l7.053-9.708m-18.466-6l7.054-9.709m0 0l11.412 3.709m-18.466 6l11.413 3.708m0 0l7.053-9.708m25.52 27.708L327.15 2.612m0 0l-7.053-9.708m18.466 6l-7.053-9.708m0 0l-11.413 3.708m-25.52-15.708l11.413 3.708m0 0v12m-11.413-15.708v12m0 0l11.413 3.708m-22.825 74.833l-7.054-9.709m0 0l7.054-9.708m0 19.417l7.053-9.709m0 0l-7.053-9.708m92.33-44.833l-11.413 3.709m0 0l-7.053-9.709m18.466 6l-7.053-9.708m0 0L357.03-2.513M193.538 77.442l11.413 3.708m0 0v12m-11.413-15.708v12m0 0l11.413 3.708m85.268-35.122l7.053-9.708m0 0l11.413 3.708m-18.466 6l11.413 3.709m0 0l7.053-9.709m4.36-68.832v12m-7.054-2.292l7.053-9.708m-7.053 9.708v12m0 0l7.053-9.708m-18.466-6l11.413 3.708m0 0v12m-11.413-15.708v12m0 0l11.413 3.708M283.175-19.1l-7.054-9.708m7.054-2.292v12m0-12l-7.054-9.708m0 0v12m14.107-12v12m-7.053-2.292l7.053-9.708m-7.053 9.708v12m0 0l7.053-9.708m-7.062 9.71l7.053-9.707m4.36 6l-11.413 3.708m11.412-3.708l7.054-9.709m0 0l-11.413 3.709m4.36 6v12m0 0l-11.413 3.708m11.412-15.708l-11.412 3.708m0 0v12M246.242-19.1l7.054-9.708m0 0l11.413 3.708m-18.467 6l11.413 3.708m0 0l7.054-9.708m18.466 6l-11.413 3.708m0 0l-7.054-9.708m18.467 6l-7.054-9.708m0 0L264.708-25.1m0 19.416l7.054-9.708m4.36 6l-11.413 3.708M276.12-9.39l7.054-9.708m0 0l-11.413 3.708m11.413-3.708v12m-7.054-2.292l7.054-9.708m-7.054 9.708v12m0 0l7.054-9.708m-7.054-2.292v12m0 0l-11.413 3.708M276.121-9.39L264.71-5.683m0 0v12m0-12l-7.054-9.708m0 0l7.053-9.708m0 19.416l7.054-9.708m0 0l-7.054-9.708M149.553-14.516l11.412 3.709M153.912-1.1l7.053-9.708m-18.466 6l7.054-9.709m-7.054 9.709L153.912-1.1m-22.825 0l7.053-9.708m4.36 6L131.086-1.1m11.412-3.708l7.054-9.709m0 0l-11.413 3.709m-18.466 6l7.053-9.709m0 0l11.413 3.709m-18.466 6L131.087-1.1m0 0l7.053-9.708m22.825 0v12M153.912-1.1l7.053-9.708M153.912-1.1v12m0 0l7.053-9.708M153.912-1.1v12m-11.413-3.708l11.413 3.708M142.499-4.807L153.912-1.1m-11.413-3.708v12M246.242-19.1l-11.412 3.708m0-7.416l11.412 3.708m-11.412-3.708L223.417-19.1m0 0l11.413 3.708M398.322 54.32l11.412 3.708m-4.36 6l-7.052-9.708m7.053 9.708l11.413 3.709m0 0l-7.054-9.709m7.054 9.709l-11.413 3.708m0-7.417l11.413 3.709m-11.413-3.709l-11.413 3.709m0 0l11.413 3.708M227.776 37.734l7.054-9.709m-7.054 9.709l11.413 3.708m-4.36-13.417l11.413 3.709m-7.053 9.708l7.053-9.708m-18.466 18l-7.053-9.709m7.053-2.291v12m0-12l-7.053-9.709m0 0v12m0-12v12m0 0l-11.413 3.709m11.413-15.709l-11.413 3.709m0 0v12m25.52-27.709l11.412 3.709m-11.412-3.709v12m11.412-8.291v12m-11.412-3.709l11.412 3.709m7.054-29.125l-11.413 3.708m0-12v12M253.296-9.39v12m0-12l-11.413 3.708m22.825 0v12M253.296 2.61l11.412 3.708M253.296-9.39l11.412 3.708M253.296-9.39v12m-7.054-21.708l11.413 3.708m-4.36 6l-7.053-9.708m7.054 9.708l11.412 3.708m0 0l-7.053-9.708m7.045 53.128l-11.413 3.708m11.413-3.708l-7.054-9.709m-4.36 13.417l-7.053-9.708m11.413-3.709l-11.413 3.709m11.422-15.712v12m0 0l-11.413 3.709m11.413-15.709l-11.413 3.709m0 0v12m78.215-64.247l-11.413 3.709m0-7.417l11.413 3.708m-11.413-3.708l-11.412 3.708m0 0l11.412 3.709m32.573 18v12m-7.053-2.292l7.053-9.708m-7.053 9.708v12m0 0l7.053-9.708m11.413-15.709l-11.413 3.709m11.413-3.709l-7.053-9.708m-4.36 13.417l-7.053-9.709m11.413-3.708l-11.413 3.708m48.345 27.709v12m-7.054-2.292l7.054-9.708m-7.054 9.708v12m0 0l7.054-9.708m-122.2-12.879l-11.413 3.708m0-7.416l11.412 3.708M253.296 2.61l-11.413 3.708m0 0l11.413 3.708m115.147 3.17l11.412 3.709m-11.412-3.708v12m11.412-8.292v12m-11.412-3.708l11.412 3.708m-11.412-15.708v12m0-12l-11.413 3.708m11.413 8.292l-11.413 3.708m0-12v12m-129.254 20.83l-11.412 3.708m11.412-3.708l-7.053-9.709m-4.36 13.417l-7.053-9.708m11.413-3.709l-11.413 3.709m85.268-54.538v12m0-12l-11.412 3.708m11.412 8.292l-11.412 3.708m0-12v12M241.883-5.683l-7.053-9.708m11.412-3.708l-11.412 3.708m18.466 6l-11.413 3.708m11.413-3.708l-7.054-9.708m36.924 55.42v12m-7.054-2.293l7.054-9.708m-7.054 9.708v12m0 0l7.054-9.708m7.053 9.708l-7.053-9.708m7.053-2.292v12m0-12l-7.053-9.708m0 0v12m18.466-37.416l11.412 3.708m0 0v12m-11.412-15.708v12m0 0l11.412 3.708M283.166-7.096v12m-7.054-2.292l7.054-9.708m-7.054 9.708v12m0 0l7.054-9.708m14.106 31.416v12m-7.053-2.292l7.053-9.708m-7.053 9.708v12m0 0l7.053-9.708m34.239-15.708l7.053-9.708m7.053 9.708l-7.053-9.708m0 19.416l-7.053-9.708m7.053 9.708l7.053-9.708M234.83-42.224l11.412 3.708m-4.359 6l-7.053-9.708m7.053 9.708l11.413 3.709m0 0l-7.054-9.709m11.404 66.544l7.054-9.708m7.053 9.708L264.7 18.32m0 19.417l-7.054-9.709m7.054 9.709l7.053-9.709m4.36 18v12m0 0L264.7 61.737m11.412-15.709L264.7 49.737m0 0v12m11.412-59.125v12m0 0L264.7 18.32m11.412-15.708L264.7 6.32m0 0v12m0-12v12m-7.054-2.292L264.7 6.32m-7.054 9.708v12m0 0l7.054-9.708m11.412 15.708v12m0-12L264.7 37.737m11.412 8.291L264.7 49.737m0-12v12m0-12l7.053-9.709m4.36 6L264.7 37.737m11.412-3.709l7.054-9.708m0 0l-11.413 3.708m11.413-3.708v12m-7.054-2.292l7.054-9.708m-7.054 9.708v12m0 0l7.054-9.708m14.106 0v12m-7.053-2.292l7.053-9.708m-7.053 9.708v12m0 0l7.053-9.708m-14.106-12l7.053-9.708m7.053 9.708l-7.053-9.708m0 19.416l-7.053-9.708m7.053 9.708l7.053-9.708m-7.053-21.708v12m-7.053-2.292l7.053-9.708m-7.053 9.708v12m0 0l7.053-9.708m-14.107-12l7.054-9.708m7.053 9.708l-7.053-9.708m0 19.416l-7.054-9.708m7.054 9.708l7.053-9.708m-7.053 9.708l-11.413 3.708m0 0L264.7 18.32m18.466 6l-7.054-9.708m0 0L264.7 18.32m55.398-25.416l-7.054-9.708m7.054-2.292v12m0-12l-7.054-9.708m0 0v12m18.467 49.416v12m0-12l-11.413 3.708m11.413 8.292l-11.413 3.708m0-12v12m18.466-37.416l7.053 9.708m-7.053 2.292v-12m0 12l7.053 9.708m0 0v-12m-7.053-21.708v12m0-12L327.15 2.612m11.413 8.292l-11.413 3.708m0-12v12m-7.053-21.708l7.053 9.708m-7.053 2.292v-12m0 12l7.053 9.708m0 0v-12m-32.573-1.416l11.413 3.708m-4.36 6l-7.053-9.708m7.054 9.708l11.412 3.708m0 0l-7.053-9.708m0 0l7.053-9.708m7.054 9.708l-7.054-9.708m0 19.416l-7.053-9.708m7.053 9.708l7.054-9.708m-18.466 6l-11.413 3.708m0 0l-7.053-9.708m18.466 6l-7.054-9.708m0 0l-11.412 3.708m18.466 6v12m0-12l-11.413 3.708m11.413 8.292l-11.413 3.708m0-12v12m11.413-15.708l11.412 3.708m0 0v12m-11.412-15.708v12m0 0l11.412 3.708m0-12l7.054-9.708m7.053 9.708l-7.053-9.708m0 19.416l-7.054-9.708m7.054 9.708l7.053-9.708m11.413-3.708v12m0-12l-11.413 3.708m11.413 8.292l-11.413 3.708m0-12v12m0 31.416l-11.412 3.709m0 0l-7.054-9.709m18.466 6l-7.053-9.708m0 0l-11.413 3.708M297.272 36.32l-7.053-9.708m11.413-3.708l-11.413 3.708m18.466 6l-11.413 3.708m11.413-3.708l-7.053-9.708m0 0l11.412 3.708m-4.359 6l-7.053-9.708m7.053 9.708l11.413 3.708m0 0l-7.054-9.708m7.054 9.708l-7.054-9.708m7.054-2.292v12m0-12l-7.054-9.708m0 0v12m14.107 31.416l-7.053-9.708m11.413-3.708l-11.413 3.708m18.466 6l-11.413 3.708m11.413-3.708l-7.053-9.708m0-12l7.053-9.708m7.053 9.708l-7.053-9.708m0 19.416l-7.053-9.708m7.053 9.708l7.053-9.708m-14.106 0l7.053 9.708m-7.053 2.292v-12m0 12l7.053 9.708m0 0v-12m-18.466-6l7.053-9.708m4.36 6l-11.413 3.708m11.413-3.708l7.053-9.708m0 0l-11.413 3.708m-7.053 21.708l-11.413 3.708m0-7.416l11.413 3.708m-11.413-3.708l-11.413 3.708m0 0l11.413 3.708m22.826-19.416v12m0-12l-11.413 3.708m11.413 8.292l-11.413 3.708m0-12v12m-11.413-15.708v12m0 0l-11.413 3.708m11.413-15.708l-11.413 3.708m0 0v12m22.826-12v12m-11.413-3.708l11.413 3.708m-11.413-15.708l11.413 3.708m-11.413-3.708v12m-62.443-24.878l7.054-9.709m4.359 6l-11.413 3.709m11.413-3.709l7.053-9.708m0 0l-11.412 3.708m66.802-5.121l-7.054-9.708m7.054-2.292v12m0-12l-7.054-9.708m0 0v12m18.467-18v12m0-12l-11.413 3.708m11.413 8.292l-11.413 3.708m0-12v12m18.466 49.416l7.053-9.708m-7.053 9.708l11.413 3.708m-4.36-13.416l11.413 3.708m-7.053 9.708l7.053-9.708m11.413-3.708L357.03 36.32m0-7.416l11.413 3.708m-11.413-3.708l-11.413 3.708m0 0l11.413 3.708m-18.466 6l11.413 3.708m-11.413-3.708v12m11.413-8.292v12m-11.413-3.708l11.413 3.708m7.053-41.124l-11.413 3.708m11.413-3.708l-7.053-9.708m-4.36 13.416l-7.053-9.708m11.413-3.708l-11.413 3.708m41.291 18l-11.412 3.708m0-7.416l11.412 3.708m-11.412-3.708l-11.413 3.708m0 0l11.413 3.708m-11.413-3.708l-11.413 3.708m0-12v12m11.413-15.708v12m0-12l-11.413 3.708m45.651 12l11.413 3.708m-4.36 6l-7.053-9.708m7.054 9.708l11.412 3.708m0 0l-7.053-9.708m11.412-3.708l-11.412 3.708m0-7.416l11.412 3.708m-11.412-3.708l-11.413 3.708m0 0l11.413 3.708m-45.65-19.416l-7.054-9.708m7.053 9.708l7.053-9.708m-14.106 0l7.053-9.709m7.053 9.709l-7.053-9.709m71.17 73.958l-11.412 3.708m0-7.416l11.412 3.708m-11.412-3.708l-11.413 3.708m0 0l11.413 3.708M327.15 89.445l-7.053-9.708m7.053-2.292v12m0-12l-7.053-9.708m0 0v12m59.757-50.833l7.054-9.708m4.36 6l-11.414 3.708m11.413-3.708l7.054-9.709m0 0l-11.413 3.709M338.564 54.32l11.413 3.708m-4.36 6l-7.053-9.708m7.053 9.708l11.413 3.709m0 0l-7.053-9.709m7.053 29.125l7.053-9.708m-7.053 9.708l11.413 3.708m-4.36-13.416l11.413 3.708m-7.053 9.708l7.053-9.708m-18.466 6l-7.053-9.708m7.053 9.708l7.054-9.708m-14.107 0l7.053-9.708m7.054 9.708l-7.054-9.708m41.292-13.417l-7.054-9.708m7.054-2.292v12m0-12l-7.054-9.708m0 0v12m-22.825 19.416l-11.413 3.709m11.413-3.709l-7.054-9.708m-4.359 13.417l-7.053-9.709m11.412-3.708l-11.412 3.708m25.52 15.709l-11.414 3.708m11.413-3.708l-7.053-9.709m-4.36 13.417l-7.053-9.708m11.413-3.709l-11.413 3.709m-18.466 6l7.053-9.709m-7.053 9.709l11.413 3.708m-4.36-13.417l11.413 3.709m-7.053 9.708l7.053-9.708m22.825-38.833l11.413 3.708m-11.413-3.708v12m11.413-8.292v12m-11.413-3.708l11.413 3.708m-11.413-15.708v12m0 0l-11.412 3.708m11.412-15.708l-11.412 3.708m0 0v12m18.466 6l-11.413 3.708m0 0l-7.053-9.708m18.466 6l-7.054-9.708m0 0l-11.412 3.708m11.412-3.708l11.413 3.708m-4.36 6l-7.053-9.708m7.054 9.708l11.413 3.708m0 0l-7.054-9.708m-4.36 32.833l-7.053-9.708m0 0l7.054-9.709m0 19.417l7.053-9.708m0 0l-7.053-9.709m-18.466-25.416v12m-7.054-2.292l7.054-9.708m-7.054 9.708v12m0 0l7.054-9.708m-18.466 1.416l7.053-9.708m4.36 6l-11.413 3.708m11.412-3.708l7.054-9.708m0 0L357.03 36.32m41.292 6l11.412 3.708m0 0v12M398.322 42.32v12m0 0l11.412 3.708M361.39 42.32v12m0 0l-11.412 3.708m11.412-15.708l-11.412 3.708m0 0v12m-34.238 35.125v12m-7.054-2.292l7.054-9.708m-7.054 9.708v12m0 0l7.054-9.708m41.291-18l11.413 3.708m-11.413-3.708v12m11.413-8.292v12m-11.413-3.708l11.413 3.708m0-38.833l-7.054-9.708m0 0l7.054-9.708m0 19.416l7.053-9.708m0 0l-7.053-9.708m22.825 46.25l-11.413 3.707m0-7.416l11.413 3.708m-11.413-3.708l-11.412 3.708m0 0l11.412 3.708m18.467-40.249l-11.413 3.708m0-7.416l11.413 3.708m-11.413-3.708l-11.413 3.708m0 0l11.413 3.708m0 19.417l-11.413 3.708m0-7.416l11.413 3.708m-11.413-3.708l-11.412 3.708m0 0l11.412 3.708m29.879-17.125l-11.413 3.709m0 0l-7.053-9.709m18.466 6l-7.053-9.708m0 0l-11.413 3.708m-18.466 32.833l7.053-9.708m4.36 6l-11.413 3.708m11.412-3.708l7.054-9.708m0 0l-11.413 3.708m4.36 6l7.053-9.708m-7.054 9.708l11.413 3.708m-4.36-13.416l11.414 3.708m-7.054 9.708l7.054-9.708m-11.413-3.708l7.053-9.708m-7.053 9.708l11.413 3.708m-4.36-13.416l11.413 3.708m-7.053 9.708l7.053-9.708m-36.932-7.417l11.412 3.709m-4.359 6l-7.053-9.709m7.053 9.709l11.413 3.708m0 0l-7.054-9.708M71.33 88.567l7.053-9.709m4.36 6l-11.413 3.708m11.413-3.708l7.053-9.708m0 0l-11.413 3.708M142.5 65.442l-11.412 3.708m11.412-3.708l-7.053-9.708m-4.36 13.416l-7.053-9.708m11.413-3.708l-11.413 3.708M223.417-19.1l7.053-9.708m4.36 6L223.417-19.1m11.413-3.708l7.053-9.709m0 0l-11.413 3.709m-18.466 88.249l11.413 3.708m-11.413-3.708v12m11.413-8.292v12m-11.413-3.708l11.413 3.708m11.413-97.957l7.053-9.709m-7.053 9.709l11.412 3.708m-4.359-13.417l11.413 3.709m-7.054 9.708l7.054-9.708m-25.52 66.54l-7.053-9.708m7.053 9.709l7.054-9.709m-14.107 0l7.053-9.708m7.054 9.708l-7.054-9.708m14.107-12l11.413 3.708m-7.054 9.709l7.054-9.709m-18.466 6l7.053-9.708m-7.053 9.708l11.412 3.709M209.31-7.1l-7.053-9.708m7.053-2.292v12m0-12l-7.053-9.708m0 0v12m-11.413-3.709l11.413 3.709m-4.36 6l-7.053-9.709m7.054 9.709L209.31-7.1m0 0l-7.053-9.708m7.053 41.124l-11.412 3.708m0 0l-7.054-9.708m18.466 6l-7.053-9.708m0 0l-11.413 3.708m43.986 9.708l-7.054-9.708m7.054-2.292v12m0-12l-7.054-9.708m0 0v12M197.898 1.193l-7.054-9.709m7.054-2.291v12m0-12l-7.054-9.709m0 0v12m-18.466 32.833v12m-11.413-3.708l11.413 3.708M160.965 20.61l11.413 3.708m-11.413-3.708v12m32.573 13.416v12m-7.053-2.291l7.053-9.709m-7.053 9.709v12m0 0l7.053-9.709M234.83-15.39v12m-11.413-3.708l11.413 3.708m-11.413-15.708l11.413 3.708m-11.413-3.708v12m-32.573-25.417l11.413 3.709m0 0v12m-11.413-15.709v12m0 0l11.413 3.709m32.573 32.832l-7.054-9.708m0 0l7.054-9.708m0 19.416l7.053-9.708m0 0L234.83-3.39m7.053 9.708L234.83-3.39m7.053-2.292v12m0-12l-7.053-9.708m0 0v12m-18.466-6l-7.054-9.708m7.054 9.708l7.053-9.708m-14.107 0l7.054-9.708m7.053 9.708l-7.053-9.708m7.053 9.708v12m-7.053-2.292l7.053-9.708m-7.053 9.708v12m0 0l7.053-9.708m-7.053 9.708l-7.054-9.708m7.054-2.292v12m0-12l-7.054-9.708m0 0v12m-11.412 8.292l-7.054-9.709m7.054-2.291v12m0-12l-7.054-9.709m0 0v12m18.466 1.417v12m-11.412-3.708L209.31 4.9m-11.412-15.708L209.31-7.1m-11.412-3.708v12m18.466 13.416l-7.054-9.708m7.054-2.292v12m0-12l-7.054-9.708m0 0v12m18.466 1.416v12m-11.412-3.708l11.412 3.708M216.364 2.61l11.412 3.708M216.364 2.61v12m0-12l7.053-9.708m0 0l11.413 3.708m-18.466 6l11.412 3.708m0 0l7.054-9.708m-48.345 71.125l-7.054-9.709m7.054-2.291v12m0-12l-7.054-9.709m0 0v12m-7.053-33.708l-7.053-9.708m7.053 9.708l7.053-9.708m-14.106 0l7.053-9.708m7.053 9.708l-7.053-9.708m7.053 41.124l-11.412-3.708m4.359-6l7.053 9.708m-7.053-9.708l-11.413-3.708m0 0l7.054 9.708m18.466 13.417l-7.054-9.709m7.054 9.709l7.053-9.709m-14.107 0l7.054-9.708m7.053 9.708l-7.053-9.708m18.466 13.417l-11.413-3.709m4.36-6l7.053 9.709m-7.054-9.709l-11.412-3.708m0 0l7.053 9.708m27.185-18l-11.413 3.709m0-7.417l11.413 3.708m-11.413-3.708l-11.413 3.708m0 0l11.413 3.709m0 0v12m-11.413-3.709l11.413 3.709m-11.413-15.709l11.413 3.709m-11.413-3.709v12m11.413-15.708l7.054-9.708m0 0l11.412 3.708m-18.466 6l11.413 3.708m0 0l7.053-9.708m-18.466 6l-7.053-9.708m7.053 9.708l7.054-9.708m-14.107 0l7.053-9.708m7.054 9.708l-7.054-9.708m0 19.416l-11.413 3.708m0 0l-7.053-9.708m18.466 6l-7.053-9.708m0 0l-11.413 3.708m7.053 9.708v12m-11.412-3.708l11.412 3.708m-11.412-15.708l11.412 3.708m-11.412-3.708v12m-7.054 9.708l-7.053-9.708m7.053 9.708l7.054-9.708m-14.107 0l7.053-9.708m7.054 9.708l-7.054-9.708M160.965 1.193l7.054-9.709m0 0l11.412 3.709m-18.466 6L172.378 4.9m0 0l7.053-9.708m18.466 6L209.31 4.9m-7.053 9.708l7.053-9.708m-18.466 6l7.053-9.708m-7.053 9.708l11.413 3.708m0 0l-11.413 3.708m0-7.416l11.413 3.708m-11.413-3.708l-11.413 3.708m0 0l11.413 3.708m-11.413-3.708l11.413 3.708m-4.36 6l-7.053-9.708m7.054 9.708l11.412 3.708m0 0l-7.053-9.708M160.965 1.193L172.378 4.9m-7.053 9.708l7.053-9.708m-18.466 6l7.053-9.708m-7.053 9.708l11.413 3.708m7.053 9.708v12m-11.413-3.708l11.413 3.708M160.965 20.61l11.413 3.708m-11.413-3.708v12m11.413-8.292l-11.413-3.708m4.36-6l7.053 9.708m-7.053-9.708l-11.413-3.708m0 0l7.053 9.708m18.466-6v12m-7.053-2.292l7.053-9.708m-7.053 9.708v12m0 0l7.053-9.708m-7.053-21.708l7.053-9.708m4.36 6L172.378 4.9m11.413-3.708l7.053-9.709m0 0l-11.413 3.709m-7.053 29.124l-7.053-9.708m7.053 9.708l7.053-9.708m-14.106 0l7.053-9.708m7.053 9.708l-7.053-9.708m18.466 6l-7.053-9.708m0 0l7.053-9.709m0 19.417l7.054-9.708m0 0l-7.054-9.709M179.431 14.61l-7.053-9.708m11.413-3.708L172.378 4.9m18.466 6l-11.413 3.708m11.413-3.708l-7.053-9.708m14.107 38.832l11.412 3.709m-4.36 6l-7.052-9.709m7.053 9.709l11.413 3.708m0 0l-7.054-9.708m-15.772 2.291l11.413 3.709m-11.413-3.709v12m11.413-8.291v12m-11.413-3.709l11.413 3.709M-39.468 76.566l7.054-9.708m4.359 6l-11.413 3.708m11.413-3.708l7.053-9.708m0 0l-11.412 3.708m11.412-3.708v12m-7.053-2.292l7.053-9.708m-7.053 9.708v12m0 0l7.053-9.708m-7.053-2.292v12m0-12l-11.413 3.708m11.413 8.292l-11.413 3.708m0-12v12M44.144 75.15l11.413 3.708m-7.053 9.708l7.053-9.708m-18.466 6l7.053-9.708m-7.053 9.708l11.413 3.708M30.038 75.15v12m-11.413-3.708l11.413 3.708M18.625 71.442l11.413 3.708m-11.413-3.708v12m-14.107 0l7.053-9.708m7.054 9.708l-7.054-9.708m0 19.416l-7.053-9.708m7.053 9.708l7.054-9.708m-14.107-12v12m-7.053-2.292l7.053-9.708m-7.053 9.708v12m0 0l7.053-9.708m14.107 0l-7.054-9.708m7.054-2.292v12m0-12l-7.054-9.708m0 0v12m0-12v12m-7.053-2.292l7.053-9.708m-7.053 9.708v12m0 0l7.053-9.708m-21.16-2.292l7.054-9.708m7.053 9.708l-7.053-9.708m0 19.416l-7.054-9.708m7.054 9.708l7.053-9.708m-43.986 5.124l-11.412 3.709m0-12v12m11.412-15.709v12m0-12l-11.412 3.709m41.291 3.167l-11.413 3.708m0-12v12m11.413-15.708v12m0-12l-11.413 3.708m-29.878-6.875l-7.054-9.709m11.413-3.708l-11.413 3.708m18.466 6l-11.412 3.709m11.412-3.709l-7.053-9.708m58.092 6.876v12m-7.053-2.292l7.053-9.708m-7.053 9.708v12m0 0l7.053-9.708m-69.505-54l-7.053-9.709m7.053 9.709l7.054-9.709m-14.107 0l7.053-9.708m7.054 9.708l-7.054-9.708m55.399-25.416v12m-7.054-2.292l7.054-9.708m-7.054 9.708v12m0 0l7.054-9.708m-7.054 9.708l-11.413 3.708m0-12v12M-9.589-27.39v12m0-12l-11.413 3.708m-36.932 12l11.413 3.708m-4.36 6l-7.053-9.708m7.054 9.708l11.412 3.709m0 0l-7.053-9.709M-57.934 7.734l7.054-9.709m-7.054 9.709l11.413 3.708m-4.36-13.417l11.413 3.709m-7.053 9.708l7.053-9.708m11.413-3.709l-7.053-9.708m7.053-2.292v12m0-12l-7.053-9.708m0 0v12m14.106-12v12m-7.053-2.292l7.053-9.708m-7.053 9.708v12m0 0l7.053-9.708M160.965 20.61v12m0-12l-11.412 3.708m11.412 8.292l-11.412 3.708m0-12v12m-7.054 9.708l7.054-9.708m4.359 6l-11.413 3.708m11.413-3.708l7.053-9.708m0 0l-11.412 3.708m11.412-15.708l-11.412 3.708m11.412-3.708l-7.053-9.708m-4.36 13.416L142.5 14.61m11.413-3.708l-11.413 3.708m29.879 72.541l-7.054-9.708m7.054 9.708l7.053-9.708m-14.107 0l7.054-9.708m7.053 9.708l-7.053-9.708M89.795 63.15v12m0-12l-11.413 3.708m11.413 8.292l-11.413 3.708m0-12v12m57.064-23.124l7.053-9.709m4.36 6l-11.413 3.709m11.412-3.709l7.054-9.708m0 0l-11.413 3.708m11.413-3.708l7.053-9.708m7.054 9.708l-7.054-9.708m0 19.416l-7.053-9.708m7.053 9.708l7.054-9.708m-43.986 17.125L112.62 63.15m0-7.416l11.413 3.708m-11.413-3.708l-11.412 3.708m0 0l11.412 3.708m0 0l-11.412 3.708m0-7.416l11.412 3.708m-11.412-3.708L89.795 63.15m0 0l11.413 3.708M89.795 63.15v12m0-12l-11.413 3.708m11.413 8.292l-11.413 3.708m0-12v12M89.795 63.15l11.413 3.708M89.795 63.15v12m11.413-8.292v12M89.795 75.15l11.413 3.708M-39.468 64.566l-11.412 3.709m0-12v12m11.412-15.709v12m0-12l-11.412 3.709m48.345-6.541v12m-7.054-2.292l7.054-9.708m-7.054 9.708v12m0 0l7.054-9.708m117.85-84.541v12M108.26-13.1l7.054-9.708M108.26-13.1v12m0 0l7.054-9.708M108.26-1.1l7.054-9.708m4.359 6L108.26-1.1m11.413-3.708l7.053-9.709m0 0l-11.412 3.709m-147.73 65.665v12m-7.053-2.292l7.054-9.708m-7.054 9.708v12m0 0l7.054-9.708m11.412-15.708v12m0-12l-11.412 3.708m11.412 8.292l-11.412 3.708m0-12v12m4.359-68.833l-11.413 3.709m11.413-3.709l-7.053-9.708m-4.36 13.417l-7.053-9.709m11.413-3.708l-11.413 3.708m258.525 79.417v12m-7.053-2.292l7.053-9.708m-7.053 9.708v12m0 0l7.053-9.708m-225.952-42v12m-7.054-2.292l7.054-9.708m-7.054 9.708v12m0 0l7.054-9.708M153.912 10.9l-11.413 3.708m0-7.416l11.413 3.708m-11.413-3.708L131.087 10.9m0 0l11.412 3.708M119.674-4.807v12m0-12L108.26-1.1m11.413 8.292L108.26 10.9m0-12v12m11.413-15.708L131.087-1.1m-11.413-3.708v12M131.087-1.1v12m-11.413-3.708l11.412 3.708m-25.519 35.124l11.413 3.709m-4.36 6l-7.053-9.709m7.053 9.709l11.413 3.708m0 0l-7.053-9.708m7.053-29.125l7.054-9.708m-7.054 9.708l11.413 3.708m-4.36-13.416l11.413 3.708m-7.053 9.708l7.053-9.708m-29.879 2.292l7.054-9.708M112.62 16.9l11.413 3.708m-4.36-13.416l11.414 3.708m-7.054 9.708l7.054-9.708m11.412-15.708v12m0-12L131.087-1.1m11.412 8.292L131.087 10.9m0-12v12M78.382-22.807L89.795-19.1m-11.413-3.708v12M89.795-19.1v12m-11.413-3.708L89.795-7.1M78.382-22.807v12m0-12L66.97-19.1m11.412 8.292L66.97-7.1m0-12v12m68.476 62.833l-11.413 3.708m11.413-3.708l-7.054-9.709m-4.359 13.417l-7.053-9.708m11.412-3.709l-11.412 3.709m-15.772 9.708L89.795 63.15m11.413-3.708l-7.054-9.708M89.795 63.15l-7.053-9.708m11.412-3.708l-11.412 3.708m52.704 2.292l-7.054-9.709m0 0l7.054-9.708m0 19.417l7.053-9.709m0 0l-7.053-9.708m-18.466 6l7.053-9.708m0 0l11.413 3.708m-18.466 6l11.412 3.708m0 0l7.054-9.708m-7.054 9.708l-11.412 3.709m0-7.417l11.412 3.708m-11.412-3.708l-11.413 3.708m0 0l11.413 3.709m-119.515-12v12m0-12l-11.413 3.708m11.413 8.292l-11.413 3.708m0-12v12m115.156-32.833l11.412 3.708m0 0v12M101.208 20.61v12m0 0l11.412 3.708M-39.468 21.15v12m0 0l-11.412 3.708m11.412-15.708l-11.412 3.708m0 0v12m29.878 26.292l7.054-9.708m4.36 6l-11.414 3.708m11.413-3.708l7.054-9.708m0 0l-11.413 3.708m-25.52-32.292l-11.412 3.708m0-7.416l11.412 3.708m-11.412-3.708l-11.413 3.708m0 0l11.413 3.708m25.52 8.292v12m-7.054-2.292l7.053-9.708m-7.053 9.708v12m0 0l7.053-9.708m43.986 26.292l7.053-9.708m0 0l11.413 3.708m-18.466 6l11.413 3.708m0 0l7.053-9.708m-58.093-45.708l-11.412 3.708m0-12v12m11.412-15.708v12m0-12l-11.412 3.708m174.913 34.583l-7.053-9.708m7.053-2.292v12m0-12l-7.053-9.708m0 0v12m14.107-12v12m-7.054-2.292l7.054-9.708m-7.054 9.708v12m0 0l7.054-9.708M112.62 55.734l-11.412 3.708m0 0l-7.054-9.708m18.466 6l-7.053-9.709m0 0l-11.413 3.709M142.5 34.025l-7.053-9.708m0 0l7.053-9.708m0 19.416l7.054-9.708m0 0l-7.054-9.708M94.154 49.734l-11.412 3.708m0-7.417l11.412 3.709m-11.412-3.709l-11.413 3.709m0 0l11.413 3.708m-11.413-3.708l11.413 3.708m-4.36 6l-7.053-9.708m7.053 9.708l11.413 3.708m0 0l-7.053-9.708m7.053 9.708l-11.413 3.708m0-7.416l11.413 3.708m-11.413-3.708L66.97 63.15m0 0l11.412 3.708m0-7.416L66.97 63.15m11.412-3.708l-7.053-9.708m-4.36 13.416l-7.053-9.708m11.413-3.708l-11.413 3.708M71.33-1.1l7.053-9.708M71.33-1.1l11.413 3.708m-4.36-13.416L89.795-7.1m-7.053 9.708l7.053-9.708m-66.81-21.708v12M15.93-19.1l7.053-9.708M15.931-19.1v12m0 0l7.053-9.708M15.931-19.1v12m0-12L4.518-15.391m11.413 8.292L4.518-3.391m0-12v12m92.33 6l-7.053-9.708m7.053-2.292v12m0-12l-7.053-9.708m0 0v12m18.466-6v12m0-12L96.848-9.391m11.413 8.292L96.848 2.609m0-12v12m27.185 18l11.413 3.708m0 0v12M124.033 20.61v12m0 0l11.413 3.708m-45.65-24l7.052-9.708m4.36 6l-11.413 3.708m11.413-3.708l7.053-9.708m0 0L96.848 2.609m-92.33-18l-7.053-9.708m7.053-2.292v12m0-12l-7.053-9.708m0 0v12m-43.986 67.957l7.053-9.708m7.054 9.708l-7.054-9.708m0 19.416l-7.053-9.708m7.053 9.708l7.054-9.708m115.156 3.167l7.053-9.708m4.36 6l-11.413 3.708m11.412-3.708l7.054-9.708m0 0l-11.413 3.708m15.772 9.708l-11.413 3.709m0-7.417l11.413 3.708m-11.413-3.708l-11.412 3.708m0 0l11.412 3.709m-152.088-42l11.413 3.708m-4.36 6l-7.053-9.708m7.054 9.708l11.412 3.708m0 0l-7.053-9.708m14.107 0v12m-7.054-2.292l7.054-9.708m-7.054 9.708v12m0 0l7.054-9.708m0 31.416l7.053-9.708m4.36 6l-11.413 3.708m11.412-3.708l7.054-9.708m0 0l-11.413 3.708m11.413-47.125l-7.054-9.708m11.413-3.708l-11.413 3.708m18.467 6l-11.413 3.708m11.413-3.708L-9.59-15.39M-25.36 33.15l-7.053-9.708m11.412-3.708l-11.412 3.708m18.466 6l-11.413 3.708m11.413-3.708l-7.054-9.708m39.627 20.291v12m-7.054-2.291l7.054-9.709m-7.054 9.709v12m0 0l7.054-9.709m0-12l11.412 3.709m0 0v12M18.625 40.025v12m0 0l11.412 3.709m-62.451-12.876v12m-7.054-2.292l7.054-9.708m-7.054 9.708v12m0 0l7.054-9.708m-25.52-8.292l7.054-9.708m4.359 6l-11.413 3.708m11.413-3.708l7.053-9.708m0 0l-11.412 3.708m55.398-8.833v12m-7.053-2.291l7.053-9.709m-7.053 9.709v12m0 0l7.053-9.709m7.053 9.709l-7.053-9.709m7.053-2.291v12m0-12l-7.053-9.709m0 0v12M264.7 49.737v12m-7.054-2.292l7.054-9.708m-7.054 9.708v12m0 0l7.054-9.708M22.984 2.609l11.413 3.708m0 0v12M22.984 2.61v12m0 0l11.413 3.708m2.694 78.541l-7.054-9.708m7.054-2.292v12m0-12l-7.054-9.708m0 0v12M-9.589-15.391l7.054-9.708m7.053 9.708l-7.053-9.708m0 19.416L-9.59-15.39m7.054 9.708l7.053-9.708m0 0v12m-7.053-2.292l7.053-9.708m-7.053 9.708v12m0 0L4.518-3.39m14.107 31.416v12m-7.054-2.291l7.054-9.709m-7.054 9.709v12m0 0l7.054-9.709M11.57 61.734l7.054-9.709m7.053 9.709l-7.053-9.709m0 19.417l-7.054-9.708m7.054 9.708l7.053-9.708m-72.2-50.292l7.054-9.708m7.054 9.708l-7.054-9.708m0 19.416l-7.053-9.708m7.053 9.708l7.054-9.708m-7.054 21.708l7.054-9.708m7.053 9.708l-7.053-9.708m0 19.416l-7.054-9.708m7.054 9.708l7.053-9.708m78.224-8.833l7.053-9.708m7.054 9.708l-7.054-9.708m0 19.416l-7.053-9.708m7.053 9.708l7.054-9.708M82.742 2.61l7.053-9.708m7.053 9.708l-7.053-9.708m0 19.416L82.742 2.61m7.053 9.708l7.053-9.708M48.504-5.683l7.053-9.708m4.36 6L48.503-5.683M59.916-9.39l7.054-9.708m0 0l-11.413 3.708m4.36 18l7.053-9.708m4.359 6L59.916 2.609M71.33-1.099l7.053-9.708m0 0L66.97-7.1m38.597 53.124l7.053-9.708m4.36 6l-11.413 3.708m11.413-3.708l7.053-9.708m0 0l-11.413 3.708M41.45-15.39l-7.053-9.708m7.053-2.292v12m0-12l-7.053-9.708m0 0v12m66.81 45.708l7.054-9.708m4.36 6l-11.413 3.708m11.412-3.708l7.054-9.708m0 0L108.26 10.9M66.97 63.15v12m0 0l11.412 3.708M66.97 63.15l11.412 3.708m0 0v12M37.091 65.442l11.413 3.708m-4.36 6l-7.053-9.708m7.053 9.708l11.413 3.708m0 0l-7.053-9.708m-69.506-49.416l7.054-9.709m7.053 9.709l-7.053-9.709m0 19.417l-7.054-9.708m7.054 9.708l7.053-9.708M66.97 63.15v12m0-12l-11.413 3.708M66.97 75.15l-11.413 3.708m0-12v12M18.625 52.025l11.412 3.709m-4.359 6l-7.053-9.709m7.053 9.709l11.413 3.708m0 0l-7.054-9.708M-28.055-1.975l7.053-9.708m7.054 9.708l-7.054-9.708m0 19.417l-7.053-9.709m7.053 9.709l7.054-9.709M94.154 42.317l7.054-9.708m0 0l11.412 3.708m-18.466 6l11.413 3.708m0 0l7.053-9.708m-126.568-6.875v12m0 0l-11.413 3.708m11.413-15.708l-11.413 3.708m0 0v12M-2.535-5.683v12m0 0l-11.413 3.708M-2.535-5.683l-11.413 3.708m0 0v12m122.21-11.124v12m-7.054-2.292l7.053-9.708m-7.053 9.708v12m0 0l7.053-9.708M4.518 71.44l-7.053-9.707m7.053-2.292v12m0-12l-7.053-9.708m0 0v12M-13.948-1.975v12m-7.054-2.291l7.054-9.709m-7.054 9.709v12m0 0l7.054-9.709m11.413 39.709l7.053-9.709m7.053 9.709l-7.053-9.709m0 19.417l-7.053-9.708m7.053 9.708l7.053-9.708m89.637-41.125v12m0-12l-11.413 3.708m11.413 8.292l-11.413 3.708m0-12v12m11.413-3.708v12m0-12l-11.413 3.708m11.413 8.292l-11.413 3.708m0-12v12m-92.33-10.583v12m0-12l-11.413 3.708m11.413 8.292l-11.413 3.708m0-12v12m0-12l7.053-9.708m4.36 6l-11.413 3.708m11.413-3.708l7.053-9.709m0 0l-11.413 3.709m11.413-3.709v12m-7.053-2.291l7.053-9.709m-7.053 9.709v12m0 0l7.053-9.709m14.107 0v12m-7.054-2.291l7.054-9.709m-7.054 9.709v12m0 0l7.054-9.709m-14.107-12l7.053-9.708m7.054 9.708l-7.054-9.708m0 19.417l-7.053-9.709m7.053 9.709l7.054-9.709M11.57 6.317v12m-7.053-2.292l7.053-9.708m-7.053 9.708v12m0 0l7.053-9.708m-14.106-12L4.518-3.39m7.053 9.708L4.518-3.39m0 19.416l-7.053-9.708m7.053 9.708l7.053-9.708m29.88-9.708l-7.054-9.708m7.053-2.292v12m0-12l-7.053-9.708m0 0v12M4.518 16.025l-11.413 3.709m0 0l-7.053-9.709m18.466 6l-7.053-9.708m0 0l-11.413 3.708M41.45-15.39l7.054-9.708m7.053 9.708l-7.053-9.708m0 19.416L41.45-15.39m7.054 9.708l7.053-9.708m11.413-3.708v12m-7.054-2.292l7.054-9.708m-7.054 9.708v12m0 0l7.054-9.708M78.382 8.609l11.413 3.708m0 0v12M78.382 8.61v12m0 0l11.413 3.708m-36.932 0v12m0-12L41.45 28.025m11.413 8.292L41.45 40.025m0-12v12M78.382 8.61L66.97 12.317m0 0L59.916 2.61m18.466 6L71.33-1.099m0 0L59.916 2.609m0 0l7.054 9.708m-7.054 2.292v-12m0 12l7.054 9.708m0 0v-12M59.916-9.39v12m0-12L48.504-5.683M59.916 2.61L48.504 6.317m0-12v12M37.09 53.442l11.413 3.708m0 0v12M37.09 53.442v12m0 0l11.413 3.708m34.238-35.125v12m0-12l-11.413 3.709m11.413 8.291l-11.413 3.709m0-12v12M41.45-15.391l7.054 9.708M41.45-3.39v-12m0 12l7.054 9.708m0 0v-12M15.93-7.099l11.412 3.708m-4.359 6l-7.053-9.708m7.053 9.708l11.413 3.708m0 0L27.343-3.39m0 0l7.054-9.708m7.053 9.708l-7.053-9.708m0 19.416L27.343-3.39m7.054 9.708L41.45-3.39m-18.466 6L11.571 6.317m0 0L4.518-3.39m18.466 6l-7.053-9.708m0 0L4.518-3.391m18.466 6v12m0-12L11.571 6.317m11.413 8.292l-11.413 3.708m0-12v12M22.984 2.61l11.413 3.708m0 0v12M22.984 2.61v12m0 0l11.413 3.708m0-12L41.45-3.39m7.054 9.708L41.45-3.39m0 19.416l-7.053-9.708m7.053 9.708l7.054-9.708m22.825-7.416l11.413 3.708m-4.36 6L71.33-1.099m7.053 9.708l11.413 3.708m0 0L82.742 2.61m41.291 18l-11.413 3.708m0-7.416l11.413 3.708m-11.413-3.708l-11.412 3.708m0 0l11.412 3.708M48.504-37.099v12m-7.054-2.292l7.054-9.708m-7.054 9.708v12m0 0l7.054-9.708m7.053 103.957l-7.053-9.708m7.053-2.292v12m0-12l-7.053-9.708m0 0v12m18.466-6l-11.413 3.708M66.97 63.15l-7.054-9.708m-4.359 13.416l-7.053-9.708m11.412-3.708L48.504 57.15M59.916 2.609v12m0-12L48.504 6.317m11.412 8.292l-11.412 3.708m0-12v12M37.09 53.442l11.413 3.708m0 0v12M37.09 53.442v12m0 0l11.413 3.708m-25.52-97.957v12m0 0L34.397-13.1M22.984-28.807L34.397-25.1m0 0v12m36.932 62.833l-11.413 3.708m0-7.417l11.413 3.709m-11.413-3.709l-11.412 3.709m0 0l11.412 3.708m0 0L48.504 57.15m0-7.416l11.412 3.708m-11.412-3.708L37.09 53.442m0 0l11.413 3.708m0-7.416L37.09 53.442m0 0l-7.054-9.708m18.467 6l-7.054-9.709m0 0l-11.413 3.709m-51.039-36l-11.412 3.708m11.412-3.708l-7.053-9.709m-4.36 13.417l-7.053-9.708m11.413-3.709l-11.413 3.709m76.559 63.708l-7.054-9.708m7.054-2.292v12m0-12l-7.054-9.708m0 0v12M18.625 28.025l-7.054-9.708m11.413-3.708l-11.413 3.708m18.467 6l-11.413 3.708m11.413-3.708l-7.054-9.708m0 0l11.413 3.708m-4.36 6l-7.053-9.708m7.054 9.708l11.412 3.708m0 0l-7.053-9.708m7.053 9.708l-7.053-9.708m7.053-2.292v12m0-12l-7.053-9.708m0 0v12m14.107 31.417l-7.054-9.709m11.413-3.708L41.45 40.025m18.466 6l-11.412 3.709m11.412-3.709l-7.053-9.708m29.879-2.292l-11.413 3.709m0-7.417l11.413 3.708m-11.413-3.708l-11.413 3.708m0 0l11.413 3.709m-11.413-3.709l7.054-9.708m4.359 6l-11.413 3.708m11.413-3.708l7.053-9.708m0 0L66.97 24.317m22.825 0v12m-7.053-2.292l7.053-9.708m-7.053 9.708v12m0 0l7.053-9.708m-36.932-12l7.053-9.708m7.054 9.708l-7.054-9.708m0 19.416l-7.053-9.708m7.053 9.708l7.054-9.708m-14.107 0l7.053 9.708m-7.053 2.292v-12m0 12l7.053 9.708m0 0v-12m-18.466-6l7.054-9.708m4.359 6L41.45 28.025m11.413-3.708l7.053-9.708m0 0l-11.412 3.708M41.45 40.025l-11.413 3.709m0-7.417l11.413 3.708m-11.413-3.708l-11.412 3.708m0 0l11.412 3.709m22.826-19.417v12m0-12L41.45 28.025m11.413 8.292L41.45 40.025m0-12v12M30.038 24.317v12m0 0l-11.413 3.708m11.413-15.708l-11.413 3.708m0 0v12m22.825-12v12m-11.412-3.708l11.412 3.708M30.038 24.317l11.412 3.708m-11.412-3.708v12m29.878-2.292v12m0 0l11.413 3.709M59.916 34.025l11.413 3.709m0 0v12m326.993 31.419l7.053-9.708m-7.053 9.708l11.412 3.708m-4.359-13.416l11.413 3.708m-7.054 9.708l7.054-9.708m0 0v12m-7.054-2.292l7.054-9.708m-7.054 9.708v12m0 0l7.054-9.708m-18.466-6l11.412 3.708m-11.412-3.708v12m11.412-8.292v12m-11.412-3.708l11.412 3.708m7.054 9.708l7.053-9.708m4.36 6l-11.413 3.708m11.412-3.708l7.054-9.708m0 0l-11.413 3.708m15.772 9.708l-11.413 3.709m0-7.417l11.413 3.708m-11.413-3.708l-11.412 3.708m0 0l11.412 3.709m-11.412-3.709l-7.054-9.708m7.054 9.708l7.053-9.708m-14.107 0l7.054-9.708m7.053 9.708l-7.053-9.708m-18.466 32.833l-7.054-9.708m11.413-3.709l-11.413 3.709m18.466 6l-11.412 3.708m11.412-3.708l-7.053-9.709m-4.36-25.416v12m-7.053-2.292l7.054-9.708m-7.054 9.708v12m0 0l7.054-9.708m4.359 13.416l-11.413 3.709m0-7.417l11.413 3.708m-11.413-3.708l-11.413 3.708m0 0l11.413 3.709M428.2 83.445l-11.412 3.708m0-12v12M428.2 71.445v12m0-12l-11.412 3.708m-18.466 18l11.412 3.708m-7.053 9.708l7.053-9.708m-18.466 6l7.054-9.708m-7.054 9.708l11.413 3.708m14.107 0l11.412 3.709m-7.053 9.708l7.053-9.708m-18.466 6l7.054-9.709m-7.054 9.709l11.413 3.708m-11.413-3.708l11.413 3.708m-4.36 6l-7.053-9.708m7.054 9.708l11.412 3.708m0 0l-7.053-9.708m-11.413-3.708l-7.053-9.709m7.053 9.709l7.054-9.709m-14.107 0l7.053-9.708m7.054 9.708l-7.054-9.708"
      stroke="url(#d)" fill="#959595" stroke-width=".8" transform="translate(65.007 38.53)" />
</svg>