<?xml version="1.0" encoding="UTF-8"?>
<svg version="1.1" viewBox="0 0 493.18 154.78" xmlns="http://www.w3.org/2000/svg" xmlns:xlink="http://www.w3.org/1999/xlink">
 <defs>
  <radialGradient id="d" cx="179.46" cy="40.098" r="260.55" gradientTransform="matrix(1.5613 0 0 .49378 -35.73 58.828)" gradientUnits="userSpaceOnUse">
   <stop stop-color="#fbd900" offset="0"/>
   <stop stop-color="#ff420c" offset="1"/>
  </radialGradient>
 </defs>
 <path d="m120.56 148.8 11.413 3.708m45.65-7.417-11.412 3.709m18.466 6-7.054-9.709m-189.02-131.66 7.054 9.708m4.359-6-11.413-3.708m11.413 3.708 7.053 9.708m0 0-11.412-3.708m11.412 3.708v-12m-7.053 2.292 7.053 9.708m-7.053-9.708v-12m0 0 7.053 9.708m-7.053-21.708 11.413 3.708m0 0v12m-11.413-15.707v12m0 0 11.413 3.708m7.053-2.292-7.053-9.708m0 0 7.053-9.708m0 19.416 7.053-9.708m0 0-7.053-9.708m0 31.416v-12m-7.053 2.292 7.053 9.708m-7.053-9.708v-12m0 0 7.053 9.708m-18.466-1.416 7.053 9.708m4.36-6-11.413-3.708m11.413 3.708 7.053 9.708m0 0-11.413-3.708m55.399-25.416v12m0 0-11.413 3.708m11.413-15.708-11.413 3.708m0 0v12m-7.054 9.708 7.054-9.708m4.36 6-11.414 3.708m11.413-3.708 7.054-9.708m0 0-11.413 3.708m0-12v12m-7.054-2.292 7.054-9.708m-7.054 9.708v12m0 0 7.054-9.708m-7.054 9.708-7.053-9.708m7.053-2.292v12m0-12-7.053-9.708m0 0v12m87.971-7.416-11.412 3.706m0 0-7.054-9.708m18.466 6-7.053-9.709m0 0-11.413 3.71m73.865-7.417v12m-7.054-2.292 7.054-9.708m-7.054 9.708v12m0 0 7.054-9.708m-7.054 9.708 7.054-9.708m4.359 6-11.413 3.708m11.413-3.708 7.053-9.708m0 0-11.412 3.708m204.79-15.708v12m-7.054-2.292 7.054-9.708m-7.054 9.708v12m0 0 7.054-9.708m29.87 9.711-7.054-9.708m7.054 9.708 7.053-9.708m-14.107 0 7.054-9.708m7.053 9.708-7.053-9.708m78.223 49.416 11.413 3.708m-11.413-3.707v12m11.413-8.292v12m-11.413-3.708 11.413 3.708m-11.413-27.708 11.413 3.708m-11.413-3.708v12m11.413-8.292v12m-11.413-3.708 11.413 3.708m-64.117 115.08 11.413 3.709m-29.879-5.125-11.412 3.708m-203.12-6.003-11.413 3.708m0 0-11.412 3.709m52.704-5.125-11.413 3.708m-41.291 1.417-7.054-9.709m11.413-3.708-11.413 3.708m18.466 6-11.412 3.709m11.412-3.709-7.053-9.708m-68.476 7.417-7.053-9.709m0 0v12m-36.934-19.417v12m-7.053-2.292 7.053-9.708m-7.053 9.708v12m0 0 7.053-9.708m119.52 7.416-11.412 3.709m-136.32-3.709-11.413 3.709m-25.519-8.292-11.413 3.708m22.825-7.416v12m0-12-11.412 3.708m18.466-13.417v12m-7.054-2.291 7.054-9.709m-7.054 9.709v12m0 0 7.054-9.709m7.053 9.709-7.053-9.709m7.053-2.291v12m0-12-7.053-9.709m0 0v12m136.32 3.709-11.413 3.708m-52.705-5.125 11.414 3.708m-36.932-7.416 11.412 3.708m-25.519 3.708-7.054-9.708m-18.466 13.417 7.053-9.709m4.36 6-11.413 3.709m11.413-3.709 7.053-9.708m0 0-11.413 3.708m39.627-23.124v12m-7.054-2.292 7.054-9.708m-7.054 9.708v12m0 0 7.054-9.708m-35.267 17.124 7.053-9.708m14.107 0v12m-7.053-2.292 7.053-9.708m-32.573 1.417-7.053-9.709m7.053 9.709 7.053-9.709m-14.106 0 7.053-9.708m7.053 9.708-7.053-9.708m39.626 20.292 7.054-9.708m-7.054 9.708 11.413 3.708m-4.36-13.416 11.414 3.708m-7.054 9.708 7.054-9.708m-72.2 17.125 7.054-9.709m7.053 9.709-7.053-9.709m18.466-25.416 7.053-9.708m7.054 9.708-7.054-9.708m0 19.416-7.053-9.708m7.053 9.708 7.054-9.708m-43.986 17.125 7.053-9.709m4.36 6-11.413 3.709m11.413-3.709 7.053-9.708m0 0-11.413 3.708m-32.573 1.417 7.054-9.708m7.053 9.708-7.053-9.708m0 19.416-7.054-9.708m7.054 9.708 7.053-9.708m0 0v12m-7.053-2.292 7.053-9.708m-7.053 9.708v12m0 0 7.053-9.708m0-12v12m-7.053-2.292 7.053-9.708m-7.053 9.708v12m0 0 7.053-9.708m-7.053 9.708 7.053-9.708m4.36 6-11.413 3.708m11.413-3.708 7.053-9.708m0 0-11.413 3.708m11.413-3.708-11.413 3.708m0-12v12m11.413-15.708v12m0-12-11.413 3.708m4.36 18 7.053-9.708m4.36 6-11.413 3.708m11.412-3.708 7.054-9.709m0 0-11.413 3.709m36.932-7.417v12m0-12-11.413 3.708m11.413 8.292-11.413 3.708m0-12v12m25.52 8.292 7.053-9.708m18.468-18v12m-11.413-3.708 11.413 3.708m-11.413-15.708 11.413 3.708m-11.413-3.708v12m-39.627-0.876-7.053-9.708m11.413-3.708-11.413 3.708m18.466 6-11.413 3.708m11.413-3.708-7.053-9.708m-4.36 13.416v12m-7.053-2.291 7.053-9.709m-7.053 9.709v12m0 0 7.053-9.709m18.467-25.416v12m-7.054-2.292 7.054-9.708m-7.054 9.708v12m0 0 7.054-9.708m-25.52-8.292 7.053-9.708m4.36 6-11.413 3.708m11.413-3.708 7.053-9.708m0 0-11.413 3.708m-18.466 1.416v12m-7.053-2.291 7.053-9.709m-7.053 9.709v12m0 0 7.053-9.709m-18.466 1.417 7.054-9.708m4.359 6-11.413 3.708m11.413-3.708 7.053-9.709m0 0-11.412 3.709m-14.107 0 7.053-9.709m7.054 9.709-7.054-9.709m0 19.417-7.053-9.708m7.053 9.708 7.054-9.708m-7.054-21.709v12m-7.053-2.291 7.053-9.709m-7.053 9.709v12m0 0 7.053-9.709m7.054 9.709-7.054-9.709m7.054-2.291v12m0-12-7.054-9.709m0 0v12m0-24v12m-7.053-2.291 7.053-9.709m-7.053 9.709v12m0 0 7.053-9.709m7.054 9.709-7.054-9.709m7.054-2.291v12m0-12-7.054-9.709m0 0v12m-15.772-41.124 11.413 3.708m0 0v12m-11.413-15.708v12m0 0 11.413 3.708m-14.107-38.833 7.054-9.708m-7.054 9.708 11.413 3.708m-4.36-13.416 11.413 3.708m-7.053 9.708 7.053-9.708m-18.466 6 11.413 3.708m-4.36 6-7.053-9.708m7.054 9.708 11.412 3.709m0 0-7.053-9.709m2.694 23.125-7.053-9.708m11.412-3.708-11.412 3.708m18.466 6-11.413 3.708m11.413-3.708-7.054-9.708m-22.825 0 11.413 3.708m-4.36 6-7.053-9.708m7.053 9.708 11.413 3.708m0 0-7.053-9.708m11.412-3.708-11.412 3.708m0-7.417 11.412 3.709m-11.412-3.709-11.414 3.709m0 0 11.413 3.708m18.466 25.416-11.413 3.708m0-7.416 11.413 3.708m-11.413-3.708-11.413 3.708m0 0 11.413 3.708m-7.053 9.709 7.053-9.709m4.36 6-11.413 3.709m11.412-3.709 7.054-9.708m0 0-11.413 3.708m0-19.416 11.413 3.708m0 0v12m-11.412-15.708v12m0 0 11.413 3.708m-7.054-60.54 11.413 3.707m0 0v12m-11.413-15.708v12m0 0 11.413 3.708m11.413-15.708v12m0 0-11.413 3.708m11.413-15.708-11.413 3.708m0 0v12m11.413-27.708v12m0 0-11.413 3.708m11.413-15.708-11.413 3.708m0 0v12m18.466-25.416v12m-7.053-2.292 7.053-9.708m-7.053 9.708v12m0 0 7.053-9.708m-18.466 1.416 7.053-9.708m4.36 6-11.413 3.708m11.413-3.708 7.053-9.708m0 0-11.413 3.708m11.413 27.708-7.053-9.708m0 0 7.053-9.708m0 19.416 7.053-9.708m0 0-7.053-9.708m32.573 6-7.054-9.708m0 0 7.054-9.708m0 19.416 7.053-9.708m0 0-7.053-9.708m7.052 9.707v12m-7.053-2.292 7.053-9.708m-7.053 9.708v12m0 0 7.053-9.708m11.413-15.708v12m0 0-11.412 3.708m11.413-15.708-11.413 3.708m0 0v12m11.413-15.708 11.413 3.708m0 0v12m-11.413-15.707v12m0 0 11.413 3.707m32.573-6-7.054-9.708m0 0 7.054-9.709m0 19.417 7.053-9.708m0 0-7.053-9.709m-25.52 23.127-7.053-9.708m0 0 7.053-9.708m0 19.416 7.054-9.708m0 0-7.054-9.708m25.52 15.706-11.413 3.708m0 0-7.053-9.708m18.466 6-7.054-9.708m0 0-11.412 3.708m48.344-11.125 11.413 3.708m0 0v12m-11.413-15.707v12m0 0 11.413 3.708m-103.74 17.126 7.053-9.708m4.36 6-11.413 3.707m11.413-3.708 7.053-9.708m0 0-11.413 3.707m85.277-23.125v12m0 0-11.412 3.708m11.412-15.708-11.412 3.708m0 0v12m0-12v12m0 0-11.413 3.709m11.413-15.709-11.413 3.709m0 0v12m34.238-3.709-11.413 3.709m0-7.417 11.413 3.708m-11.411-3.707-11.413 3.708m0 0 11.412 3.709m18.467 6-11.414 3.707m0 0-7.054-9.708m18.467 6-7.054-9.709m0 0-11.413 3.709m29.88 2.291-11.413 3.709m0 0-7.054-9.709m18.466 6-7.053-9.708m0 0-11.413 3.708m-11.413 23.127-7.053-9.708m0 0 7.053-9.708m0 19.416 7.054-9.708m0 0-7.054-9.708m0 19.416 7.054-9.708m4.36 6-11.415 3.707m11.413-3.708 7.054-9.708m0 0-11.412 3.707m-25.52-3.708 7.054-9.709m0 0 11.412 3.709m-18.466 6 11.413 3.708m0 0 7.053-9.708m-22.825-12v12m-7.053-2.292 7.053-9.708m-7.053 9.708v12m0 0 7.053-9.708m-7.053 9.708 7.053-9.708m4.36 6-11.413 3.708m11.412-3.708 7.054-9.709m0 0-11.413 3.709m-7.053-2.292v12m0-12-11.413 3.708m11.413 8.292-11.413 3.708m0-12v12m0 0-7.053-9.708m7.053-2.292v12m0-12-7.053-9.708m0 0v12m71.17-11.125 7.053-9.708m4.36 6-11.413 3.708m11.412-3.708 7.054-9.708m0 0-11.413 3.708m4.36 6 7.053-9.708m0 0 11.413 3.708m-18.467 6 11.413 3.708m0 0 7.054-9.708m-7.054 9.708-11.412 3.708m0-7.416 11.412 3.708m-11.412-3.708-11.413 3.708m0 0 11.413 3.708m11.412-3.708 7.054-9.708m0 0 11.412 3.708m-18.466 6 11.413 3.708m0 0 7.053-9.708m48.345 11.125-7.053-9.708m0 0 7.053-9.709m0 19.417 7.054-9.708m0 0-7.054-9.709m25.52-3.708 11.412 3.708m0 0v12m-11.412-15.707v12m0 0 11.412 3.708m0-12 11.413 3.709m0 0v12m-11.413-15.709v12m0 0 11.413 3.709m25.52 3.708-7.054-9.708m0 0 7.054-9.709m0 19.417 7.053-9.708m0 0-7.053-9.709m96.68-2.83v12m0-12-11.412 3.709m11.412 8.292-11.412 3.708m0-12v12m34.238-15.708 11.412 3.708m-11.412-3.708v12m11.412-8.292v12m-11.412-3.708 11.412 3.708m18.467 13.416-7.054-9.708m7.054-2.292v12m0-12-7.054-9.708m0 0v12m-11.413-15.708 11.413 3.708m-11.413-3.708v12m11.413-8.292v12m-11.413-3.708 11.413 3.708m2.694 85.957-7.053-9.708m0 0 7.053-9.708m0 19.416 7.054-9.708m0 0-7.054-9.708m0 31.416-7.053-9.708m7.053-2.292v12m0-12-7.053-9.708m0 0v12m18.466 13.417-11.413 3.708m0-7.417 11.413 3.709m-11.413-3.709-11.412 3.709m0 0 11.412 3.708m0-7.417-11.412 3.709m0 0-7.054-9.709m18.466 6-7.053-9.708m0 0-11.413 3.708m11.413-15.708v12m0 0-11.413 3.708m11.413-15.708-11.413 3.708m0 0v12m29.879-29.124-11.413 3.708m0 0-7.053-9.708m18.466 6-7.053-9.708m0 0-11.413 3.708m0 19.416-7.054-9.708m0 0 7.054-9.708m0 19.416 7.053-9.708m0 0-7.053-9.708m0-50.833 11.413 3.708m-4.36 6-7.053-9.708m7.053 9.708 11.413 3.708m0 0-7.053-9.708m-11.413 39.708 7.053-9.707m-7.053 9.708 11.413 3.709m-4.36-13.418 11.413 3.708m-7.053 9.709 7.053-9.709m-18.466-18-7.054-9.708m7.054 9.708 7.053-9.708m-14.107 0 7.054-9.708m7.053 9.708-7.053-9.708m-7.054 9.708-7.053-9.708m7.053 9.708 7.054-9.708m-14.107 0 7.053-9.708m7.054 9.708-7.054-9.708m7.054 29.124v12m0-12-11.413 3.709m11.413 8.291-11.413 3.709m0-12v12m11.413-15.709-11.413 3.709m11.413-3.709-7.054-9.708m-4.359 13.417-7.053-9.709m11.412-3.708-11.412 3.708m18.466 18v12m0-12-11.413 3.709m11.413 8.291-11.413 3.709m0-12v12m18.466-37.417v12m-7.053-2.292 7.053-9.708m-7.053 9.708v12m0 0 7.053-9.707m-14.107-31.416 11.413 3.708m-4.36 6-7.053-9.708m7.054 9.708 11.413 3.708m0 0-7.054-9.708m-29.879 2.292 11.413 3.708m-4.36 6-7.053-9.708m7.054 9.708 11.412 3.708m0 0-7.053-9.708m-11.413-3.708 7.054-9.708m0 0 11.412 3.708m-18.466 6 11.413 3.708m0 0 7.053-9.708m-11.412 66.54 7.053-9.707m0 0 11.413 3.708m-18.466 6 11.412 3.708m0 0 7.054-9.708m0 19.416-11.413 3.708m0 0-7.053-9.708m18.466 6-7.054-9.708m0 0-11.412 3.708m25.519-42.541v12m-7.054-2.293 7.054-9.707m-7.053 9.708v12m0 0 7.053-9.708m-29.878-2.292 11.412 3.709m-11.412-3.709v12m11.412-8.291v12m-11.412-3.709 11.412 3.709m-11.413-27.71 11.413 3.709m-11.413-3.709v12m11.413-8.291v12m-11.413-3.709 11.413 3.709m22.826 12-11.413 3.708m0-7.417 11.413 3.709m-11.413-3.709-11.413 3.709m0 0 11.413 3.708m-29.879 2.292 7.054-9.709m-7.054 9.709 11.413 3.708m-4.36-13.417 11.413 3.709m-7.053 9.708 7.053-9.708m-331.35 91.079-11.412 3.708m0-12v12m11.412-15.708v12m0-12-11.412 3.708m45.65 4.583-11.412 3.709m0-12v12m11.412-15.709v12m0-12-11.412 3.709m0 12-11.413 3.708m0-12v12m11.413-15.708v12m0-12-11.413 3.708m-34.238-3.708 11.413 3.708m-11.413-3.708v12m11.413-8.292v12m-11.413-3.708 11.413 3.708m11.412-15.708-11.412 3.708m11.412-3.708-7.053-9.709m-4.36 13.417-7.053-9.708m11.413-3.709-11.413 3.709m253.13-128.5 7.054-9.708m0 0 11.413 3.708m-18.467 6 11.413 3.708m0 0 7.054-9.708m18.466 6-11.413 3.708m0 0-7.053-9.708m18.466 6-7.054-9.708m0 0-11.412 3.708m0 19.417-7.054-9.709m7.054 9.709 7.053-9.709m-14.107 0 7.054-9.708m7.053 9.708-7.053-9.708m36.932-7.416v12m0-12-11.413 3.707m11.413 8.292-11.413 3.708m0-12v12m4.36 6 7.053-9.708m4.359 6-11.413 3.708m11.413-3.708 7.053-9.708m0 0-11.412 3.708m-18.466 13.416 7.053-9.708m4.36 6-11.413 3.708m11.412-3.708 7.054-9.708m0 0-11.413 3.708m-43.977-14.295v12m0 0-11.412 3.708m11.412-15.708-11.412 3.708m0 0v12m0-12v12m0 0-11.413 3.709m11.413-15.709-11.413 3.709m0 0v12m-25.52 3.708-7.053-9.708m7.053-2.292v12m0-12-7.053-9.708m0 0v12m-11.413-3.709 11.413 3.709m-4.36 6-7.053-9.709m7.054 9.709 11.412 3.708m0 0-7.053-9.708m18.466-6v12m0 0-11.413 3.708m11.413-15.708-11.413 3.708m0 0v12m-29.878-29.124v12m0 0-11.413 3.708m11.413-15.708-11.413 3.708m0 0v12m0-12v12m-7.053-2.291 7.053-9.709m-7.053 9.709v12m0 0 7.053-9.709m18.466 6-11.413 3.709m0 0-7.053-9.709m18.466 6-7.053-9.708m0 0-11.413 3.708m0 19.417-7.053-9.708m7.053 9.708 7.053-9.708m-14.106 0 7.053-9.709m7.053 9.709-7.053-9.709m-21.16 9.709-7.054-9.709m7.054-2.291v12m0-12-7.054-9.709m0 0v12m21.16-2.291v12m-7.053-2.293 7.054-9.708m-7.054 9.708v12m0 0 7.054-9.708m-7.054 9.708-7.053-9.708m7.053-2.292v12m0-12-7.053-9.708m0 0v12m-18.467-13.416 11.412 3.708m-4.359 6-7.053-9.708m7.053 9.708 11.413 3.709m0 0-7.054-9.709m-22.825-7.416 11.413 3.708m-4.36 6-7.053-9.708m7.053 9.708 11.413 3.708m0 0-7.053-9.708m-4.36 6-11.412 3.708m11.412-3.708-7.053-9.708m-4.36 13.416-7.053-9.708m11.413-3.708-11.413 3.708m29.88 9.708v12m-11.414-3.708 11.413 3.708m-11.413-15.708 11.413 3.708m-11.413-3.708v12m0 0-11.412 3.708m0-12v12m11.412-15.708v12m0-12-11.412 3.708m11.412 20.292-11.41 3.708m0-12v12m11.412-15.708v12m0-12-11.412 3.708m22.825 0v12m-11.413-3.708 11.413 3.708m-11.413-15.708 11.413 3.708m-11.413-3.708v12m11.413 3.708-11.413 3.709m0-7.417 11.413 3.708m-11.413-3.708-11.412 3.708m0 0 11.412 3.709m-18.466-18-7.053-9.709m7.053 9.709 7.054-9.709m-14.107 0 7.053-9.708m7.054 9.708-7.054-9.708m7.054 9.708v12m-7.054-2.291 7.054-9.709m-7.054 9.709v12m0 0 7.054-9.709m-18.466-6 11.412 3.709m-11.412-3.709v12m11.412-8.291v12m-11.412-3.709 11.412 3.709m237.36 14.294v12m0-12-11.413 3.709m11.413 8.291-11.413 3.709m0-12v12m-349.82 65.662 11.413 3.708m-11.413-3.708v12m11.413-8.292v12m-11.413-3.708 11.413 3.708m-51.04 12-7.053-9.708m7.054 9.708 7.053-9.708m-14.107 0 7.054-9.708m7.053 9.708-7.053-9.708m58.092 17.125-7.053-9.709m7.053-2.291v12m0-12-7.053-9.709m0 0v12m41.291-6-11.413 3.709m11.413-3.709-7.053-9.708m-4.36 13.417-7.053-9.709m11.413-3.708-11.413 3.708m29.879 9.709-11.413 3.708m0-7.417 11.413 3.709m-11.413-3.709-11.413 3.709m0 0 11.413 3.708m-41.291-1.417v12m-11.413-3.708 11.413 3.708m-11.413-15.708 11.413 3.708m-11.413-3.708v12m11.413-20.292 11.412 3.709m-4.359 6-7.053-9.709m7.053 9.709 11.413 3.708m0 0-7.054-9.708m-55.397 10.583-7.053-9.708m7.053 9.708 7.053-9.708m-14.106 0 7.053-9.708m7.053 9.708-7.053-9.708m145.03 27.708 11.413 3.708m-137.98-6 7.053-9.708m7.054 9.708-7.054-9.708m7.054 9.708-7.054-9.708m7.054-2.292v12m0-12-7.054-9.708m0 0v12m112.46-135.37 11.413 3.708m-4.36 6-7.053-9.708m7.054 9.708 11.412 3.709m0 0-7.053-9.709m-4.36 6-11.412 3.709m11.413-3.709-7.054-9.708m-4.36 13.417-7.052-9.709m11.412-3.708-11.412 3.708m18.466 6v12m0-12-11.413 3.709m11.413 8.291-11.413 3.709m0-12v12m-11.413-15.709 11.413 3.709m-11.413-3.709v12m11.413-8.291v12m-11.413-3.709 11.413 3.709m-11.413-15.709v12m0 0-11.412 3.709m11.412-15.709-11.412 3.709m0 0v12m4.359-25.417 11.413 3.708m-4.36 6-7.053-9.708m7.053 9.708 11.413 3.709m0 0-7.053-9.709m36.932 12v12m-7.054-2.291 7.054-9.709m-7.054 9.709v12m0 0 7.054-9.709m246.07-9.705-11.412 3.708m0-7.416 11.412 3.708m-11.412-3.708-11.413 3.708m0 0 11.413 3.708m-11.413-3.708 11.413 3.708m-4.36 6-7.053-9.708m7.054 9.708 11.412 3.709m0 0-7.053-9.709m-4.36 6-11.412 3.709m11.413-3.709-7.054-9.708m-4.36 13.417-7.053-9.709m11.413-3.708-11.413 3.708m18.467 6v12m0-12-11.413 3.709m11.413 8.291-11.413 3.709m0-12v12m-11.414-15.709 11.413 3.709m-11.413-3.709v12m11.413-8.291v12m-11.413-3.709 11.413 3.709m15.772-60.541v12m0-12-11.413 3.708m11.413 8.292-11.413 3.708m0-12v12m-22.825 19.416v12m0 0-11.413 3.708m11.413-15.708-11.413 3.708m0 0v12m22.825-50.832 11.413 3.708m-11.413-3.708v12m11.413-8.292v12m-11.413-3.708 11.413 3.708m-7.053 9.708 7.053-9.708m4.36 6-11.413 3.708m11.412-3.708 7.054-9.708m0 0-11.413 3.708m11.413 15.708-11.413 3.708m11.413-3.708-7.054-9.708m-4.359 13.416-7.053-9.708m11.412-3.708-11.412 3.708m-11.413-3.708 11.413 3.708m-4.36 6-7.053-9.708m7.053 9.708 11.413 3.708m0 0-7.053-9.708m-4.36-13.416 11.413 3.708m-7.053 9.708 7.053-9.708m-18.466 6 7.053-9.708m-7.053 9.708 11.413 3.708m-15.772 9.708 11.412 3.708m-4.359 6-7.053-9.708m7.053 9.708 11.413 3.709m0 0-7.054-9.709m11.413-3.708-11.413 3.708m0-7.416 11.413 3.708m-11.413-3.708-11.412 3.708m0 0 11.412 3.708m0-7.416-11.412 3.708m11.412-3.708-7.053-9.708m-4.36 13.416-7.053-9.708m11.413-3.708-11.413 3.708m7.054 9.708-11.413 3.708m11.413-3.708-7.054-9.708m-4.359 13.416-7.053-9.708m11.412-3.708-11.412 3.708m0-12v12m0 0-11.413 3.708m11.413-15.708-11.413 3.708m0 0v12m18.466-25.416v12m-7.053-2.292 7.053-9.708m-7.053 9.708v12m0 0 7.053-9.708m18.466 37.416-7.053-9.708m7.053-2.292v12m0-12-7.053-9.708m0 0v12m55.397 103.08-7.053-9.708m11.412-3.708-11.412 3.708m18.466 6-11.413 3.708m11.413-3.708-7.054-9.708m-48.345 23.125 11.413 3.708m-4.36 6-7.053-9.708m-11.412-3.709 11.413 3.708m-4.36 6-7.053-9.708m7.053 9.708 11.413 3.709m0 0-7.053-9.709m-22.826-7.416 11.413 3.708m-4.36 6-7.053-9.708m7.054 9.708 11.412 3.708m0 0-7.053-9.708m-4.359 6-7.054-9.708m0 0v12m0-12v12m0-12-11.413 3.708m11.413 8.292-11.413 3.708m0-12v12m-196.06-15.711v12m-7.054-2.292 7.054-9.708m-18.467 13.416 7.054-9.708m4.36 6-11.414 3.708m11.413-3.708 7.054-9.708m0 0-11.413 3.708m11.413-3.708 11.412 3.708m-11.412-3.708v12m11.412-8.292v12m-11.412-3.708 11.412 3.708m177.6-9.705-11.413 3.708m18.467 6-7.054-9.708m-29.879 9.708 7.054-9.708m-1e-3 0 11.413 3.708m41.292-95.665 7.053-9.709m-7.053 9.709 11.412 3.708m-4.359-13.417 11.413 3.709m-7.054 9.708 7.054-9.708m-29.879 9.708 7.053-9.708m4.36 6-11.413 3.708m11.413-3.708 7.053-9.709m0 0-11.413 3.709m-18.466 107.66-7.053-9.708m7.053-2.292v12m0-12-7.053-9.708m0 0v12m18.466-6-11.413 3.708m11.413-3.708-7.053-9.708m-4.36 13.416-7.053-9.708m11.413-3.708-11.413 3.708m0 0v12m0-12-11.413 3.708m11.413 8.292-11.413 3.708m0-12v12m11.413-15.708-11.413 3.708m0-7.416 11.413 3.708m-11.413-3.708-11.412 3.708m0 0 11.412 3.708m-11.412-3.708 11.412 3.708m-11.412-3.708v12m11.412-8.292v12m-11.412-3.708 11.412 3.708m41.292-18 11.412 3.708m-11.412-3.708v12m11.412-8.292v12m-11.412-3.708 11.412 3.708m-22.825-7.416-7.053-9.708m7.053-2.292v12m0-12-7.053-9.708m0 0v12m0-12v12m0-12-11.413 3.708m11.413 8.292-11.413 3.708m0-12v12m11.413-15.708-11.413 3.708m0-7.416 11.413 3.708m-11.413-3.708-11.413 3.708m0 0 11.413 3.708m-11.413-3.708 11.413 3.708m-11.413-3.708v12m11.413-8.292v12m-11.413-3.708 11.413 3.708m-73.864 19.418-11.413 3.708m62.452-23.125-7.054-9.708m11.413-3.708-11.413 3.708m18.466 6-11.412 3.708m11.412-3.708-7.053-9.708m-18.466 13.416 7.053-9.708m7.054 9.708-7.054-9.708m0 19.416-7.053-9.708m7.053 9.708 7.054-9.708m-73.856 19.413 11.413 3.709m-11.413-3.709-11.413 3.709m45.642-7.414-11.412 3.709m32.573-1.417 11.412 3.708m0-12v12m-11.413-3.708 11.413 3.708m-11.412-15.708 11.412 3.708m-11.412-3.708v12m-14.107 0 7.053-9.708m7.054 9.708-7.054-9.708m7.054 9.708-7.054-9.708m7.054-2.292v12m0-12-7.054-9.708m0 0v12m-7.053-2.292-7.054-9.708m0 0 7.054-9.708m0 19.416 7.053-9.708m0 0-7.053-9.708m-18.466 32.833-7.054-9.709m0 0 7.054-9.708m0 19.417 7.053-9.709m0 0-7.053-9.708m-22.817 19.413-11.413 3.709m11.413-3.709-7.053-9.708m-4.36 13.417-7.053-9.709m11.413-3.708-11.413 3.708m41.283 6.004-11.413 3.708m0 0-7.054-9.708m18.467 6-7.054-9.709m0 0-11.413 3.709m-11.412-3.709 11.412 3.709m-4.359 6-7.053-9.709m7.053 9.709 11.413 3.708m0 0-7.054-9.708m-73.855-7.42v12m0-12-11.413 3.708m11.413 8.292-11.413 3.708m0-12v12m11.413-3.708 7.053-9.708m7.054 9.708-7.054-9.708m0-12v12m-7.053-2.292 7.053-9.708m-7.053 9.708v12m0 0 7.053-9.708m7.054 9.708-7.054-9.708m7.054-2.292v12m0-12-7.054-9.708m0 0v12m39.626 11.124 11.413 3.709m-36.932-7.417 11.413 3.708m-11.413-3.708 7.054-9.708m0 0 11.412 3.708m-18.466 6 11.413 3.708m0 0 7.053-9.708m-18.466 6-7.053-9.708m0 0v12m96.68-11.997-11.412 3.708m11.413-3.708-7.054-9.708m-4.359 13.416-7.053-9.708m11.412-3.708-11.412 3.708m-52.696 9.705 11.413 3.708m-4.36 6-7.053-9.708m7.054 9.708 11.412 3.709m0 0-7.053-9.709m-29.879 2.292-7.053-9.708m7.053 9.708 7.054-9.708m-14.107 0 7.053-9.708m7.054 9.708-7.054-9.708m18.466 13.416-11.412-3.708m4.359-6 7.053 9.708m-7.053-9.708-11.413-3.708m0 0 7.054 9.708m4.359-6 11.413 3.708m-4.36 6-7.053-9.708m7.053 9.708 11.413 3.708m0 0-7.053-9.708m-11.413 15.708 7.053-9.708m7.054 9.708-7.054-9.708m126.56-29.121-11.413 3.708m11.413-3.708-7.053-9.709m-4.36 13.417-7.053-9.708m11.413-3.709-11.413 3.709m43.986 41.124 11.412 3.708m-170.55-19.419 7.053-9.708m-7.053 9.708 11.413 3.708m-4.36-13.416 11.413 3.708m-7.053 9.708 7.053-9.708m0 19.416-7.053-9.708m7.053 9.708 7.053-9.708m-14.106 0 7.053-9.708m7.053 9.708-7.053-9.708m11.404 15.711 7.053-9.708m-7.053 9.708 11.412 3.709m-4.359-13.417 11.413 3.708m-7.054 9.709 7.054-9.709m-7.054 9.709 7.054-9.709m4.36 6-11.414 3.709m11.413-3.709 7.054-9.708m0 0-11.413 3.708m11.414 15.709 7.053-9.708m4.36 6-11.413 3.708m11.412-3.708 7.054-9.708m0 0-11.413 3.708m-29.87-21.71v11.998m0-12-11.413 3.708m11.413 8.292-11.413 3.708m0-12v12m11.404-15.705 11.413 3.708m-11.413-3.708v12m11.413-8.292v12m-11.413-3.708 11.413 3.708m11.413-15.708v12m0-12-11.413 3.708m11.413 8.292-11.413 3.708m0-12v12m22.825-19.416v12m0-12-11.412 3.708m11.412 8.292-11.412 3.708m0-12v12m25.52-3.708 7.052-9.708m0 0 11.413 3.708m-18.466 6 11.413 3.708m0 0 7.053-9.708m-78.215 13.413-7.053-9.708m7.053-2.292v12m0-12-7.053-9.708m0 0v12m66.802 2.295-7.053-9.708m0 0 7.053-9.709m0 19.417 7.054-9.708m0 0-7.054-9.709m-14.107 7.417-11.412 3.708m11.412-3.708-7.053-9.708m-4.36 13.416-7.053-9.708m11.413-3.708-11.413 3.708m-15.772 9.708-11.412 3.708m11.412-3.708-7.053-9.708m-4.36 13.416-7.053-9.708m11.413-3.708-11.413 3.708m0.01 31.413 7.053-9.708m4.359 6-11.413 3.708m11.413-3.708 7.053-9.708m0 0-11.412 3.708m59.748-7.413v12m-7.053-2.292 7.053-9.708m-7.053 9.708v12m0 0 7.053-9.708m0-12 11.413 3.708m-4.36 6-7.053-9.708m7.054 9.708 11.412 3.708m0 0-7.053-9.708m-25.52-15.708-7.053-9.708m7.053 9.708 7.054-9.708m-14.107 0 7.053-9.709m7.054 9.709-7.054-9.709m-11.404 23.122-11.412 3.708m11.412-3.708-7.053-9.708m-4.36 13.416-7.053-9.708m11.413-3.708-11.413 3.708m73.856-7.413v12m0-12-11.413 3.708m11.413 8.292-11.413 3.708m0-12v12m-51.039-12 7.054-9.708m4.359 6-11.413 3.708m11.413-3.708 7.053-9.709m0 0-11.412 3.709m126.57 29.123v12m0-12-11.413 3.708m11.413 8.292-11.413 3.708m0-12v12m-89.635-48.538v12m-7.053-2.292 7.053-9.709m-7.053 9.709v12m0 0 7.053-9.709m11.413-8.291v12m-11.413-3.709 11.413 3.709m-11.413-15.709 11.413 3.709m-11.413-3.709v12m-7.053-2.291v12m-7.054-2.292 7.054-9.708m-7.054 9.708v12m0 0 7.054-9.708m0 19.416v12m-7.054-2.292 7.054-9.708m25.52-27.708-7.054-9.708m0 0 7.053-9.708m0 19.416 7.054-9.708m0 0-7.054-9.708m0 19.416 7.054-9.708m4.359 6-11.413 3.708m11.413-3.708 7.053-9.709m0 0-11.412 3.709m4.359 6 7.053-9.709m4.36 6-11.413 3.709m11.413-3.708 7.053-9.709m0 0-11.413 3.708m11.413 15.709-7.053-9.709m7.053 9.709 7.053-9.709m-14.106 0 7.053-9.708m7.053 9.708-7.053-9.708m-48.345 15.708 11.413 3.709m-4.36 6-7.053-9.709m7.054 9.709 11.412 3.708m0 0-7.053-9.708m7.053 9.708-7.053-9.708m7.053-2.292v12m0-12-7.053-9.708m0 0v12m-66.811-2.292 11.412 3.708m-4.359 6-7.053-9.708m7.053 9.708 11.413 3.708m0 0-7.054-9.708m-73.856 11.996v12m0-12-11.413 3.708m11.413 8.292-11.413 3.708m0-12v12m-11.412-15.708 11.412 3.708m-11.412-3.708v12m11.412-8.292v12m-11.412-3.708 11.412 3.708m-11.412-15.708v12m0-12-11.413 3.708m11.413 8.292-11.413 3.708m0-12v12m119.51-43.413v12m0-12-11.413 3.708m11.413 8.292-11.413 3.708m0-12v12m-11.403-15.711 11.412 3.708m-11.412-3.708v12m11.412-8.292v12m-11.412-3.708 11.412 3.708m-11.412-15.708v12m0-12-11.413 3.708m11.413 8.292-11.413 3.708m0-12v12m4.35-25.413 11.413 3.708m-4.36 6-7.053-9.708m7.054 9.708 11.412 3.708m0 0-7.053-9.708m-4.35 5.997-11.413 3.708m0 0-7.053-9.708m18.466 6-7.054-9.708m0 0-11.412 3.708m29.87 9.711-7.054-9.708m7.053-2.292v12m0-12-7.053-9.708m0 0v12m14.107-12v12m-7.054-2.292 7.054-9.708m-7.054 9.708v12m0 0 7.054-9.708m11.413-15.708v12m0 0-11.413 3.708m11.413-15.708-11.413 3.708m0 0v12m-7.054-2.292-7.053-9.708m7.053 9.708 7.054-9.708m-14.107 0 7.053-9.708m7.054 9.708-7.054-9.708m-18.457 5.997 11.413 3.708m-11.413-3.708v12m11.413-8.292v12m-11.413-3.708 11.413 3.708m-34.238-3.708 11.413 3.708m-4.36 6-7.053-9.708m7.053 9.708 11.413 3.708m0 0-7.053-9.708m-186.33 21.708 7.054-9.708m7.053 9.708-7.053-9.708m0 19.416-7.054-9.708m7.054 9.708 7.053-9.708m11.413 3.708 11.413 3.708m-7.054 9.709 7.054-9.709m-18.466 6 7.053-9.708m-7.053 9.708 11.412 3.709m0 0 7.054-9.709m4.359 6-11.413 3.709m11.413-3.709 7.053-9.708m0 0-11.412 3.708m11.412-3.708-11.412 3.708m0-7.416 11.412 3.708m-11.412-3.708-11.413 3.708m0 0 11.413 3.708m112.46 6.876 7.054-9.708m7.053 9.708-7.053-9.708m0 19.416-7.054-9.708m7.054 9.708 7.053-9.708m-14.107-12v12m-7.053-2.292 7.053-9.708m-7.053 9.708v12m0 0 7.053-9.708m14.107 0-7.053-9.708m7.053-2.292v12m0-12-7.053-9.708m0 0v12m0-12 11.412 3.708m-4.359 6-7.053-9.708m7.053 9.708 11.413 3.708m0 0-7.054-9.708m-36.932 19.416-7.053-9.708m11.412-3.708-11.412 3.708m18.466 6-11.413 3.708m11.413-3.708-7.054-9.708m-22.825 0 11.413 3.708m-4.36 6-7.053-9.708m7.054 9.708 11.412 3.708m0 0-7.053-9.708m92.321-17.997 7.054-9.708m4.36 6-11.414 3.708m11.413-3.708 7.054-9.708m0 0-11.413 3.708m-115.15 49.413-7.054-9.708m7.054-2.292v12m0-12-7.054-9.708m0 0v12m55.399-25.416v12m-7.054-2.292 7.054-9.708m-7.054 9.708v12m0 0 7.054-9.708m7.053-21.709 11.413 3.709m-7.054 9.708 7.054-9.708m-18.466 6 7.053-9.709m-7.053 9.709 11.412 3.708m-36.932-7.417 11.413 3.709m-7.054 9.708 7.054-9.708m-18.466 6 7.053-9.709m-7.053 9.709 11.412 3.708m2.695-23.125 11.412 3.708m-7.053 9.709 7.053-9.709m-18.466 6 7.054-9.708m-7.054 9.708 11.413 3.709m-7.054 9.708-11.412 3.708m0-7.416 11.412 3.708m-11.412-3.708-11.413 3.708m0 0 11.413 3.708m-11.413-15.708v12m0-12-11.412 3.708m11.412 8.292-11.412 3.708m0-12v12m-18.467 25.416 7.054-9.708m4.36 6-11.414 3.708m11.413-3.708 7.054-9.708m0 0-11.413 3.708m34.238-35.124v12m0-12-11.413 3.708m11.413 8.292-11.413 3.708m0-12v12m25.52-35.125 11.412 3.708m-11.412-3.708v12m11.412-8.292v12m-11.412-3.708 11.412 3.708m-25.52 3.709-7.053-9.709m7.054 9.709 7.053-9.709m-14.107 0 7.054-9.708m7.053 9.708-7.053-9.708m0 19.417-11.413 3.708m11.413-3.708-7.054-9.709m-4.358 13.417-7.053-9.708m11.412-3.709-11.412 3.709m32.573-13.417v12m-7.054-2.292 7.054-9.708m-7.054 9.708v12m0 0 7.054-9.708m-7.054-2.292v12m-7.053-2.291 7.053-9.709m-7.053 9.709v12m0 0 7.053-9.709m-71.17 30.541-7.053-9.708m7.053 9.708 7.053-9.708m-14.106 0 7.053-9.708m7.053 9.708-7.053-9.708m82.583-7.416 7.053-9.709m7.054 9.709-7.054-9.709m0 19.417-7.053-9.708m7.053 9.708 7.054-9.708m-96.69 7.416 11.413 3.708m-4.36 6-7.053-9.708m7.053 9.708 11.413 3.708m0 0-7.053-9.708m-11.414 15.708 7.053-9.708m-7.053 9.708 11.413 3.709m-4.36-13.417 11.413 3.708m-7.053 9.709 7.053-9.709m11.413-3.708-7.054-9.708m7.054-2.292v12m0-12-7.054-9.708m0 0v12m7.054 9.708v12m-7.054-2.292 7.054-9.708m-7.054 9.708v12m0 0 7.054-9.708m0-12-11.413 3.708m11.413-3.708-7.054-9.708m-4.359 13.416-7.053-9.708m11.412-3.708-11.412 3.708m110.8-7.416 11.413 3.708m0 0v12m-11.413-15.708v12m0 0 11.413 3.708m-145.04 23.125 11.413 3.708m-11.413-3.708-11.412 3.708m64.117-20.833-11.413 3.708m0-12v12m11.413-15.708v12m0-12-11.413 3.708m92.33-13.416-7.053-9.708m7.053-2.292v12m0-12-7.053-9.708m0 0v12m-103.74 36.54 7.053-9.708m4.36 6-11.413 3.709m11.412-3.709 7.054-9.708m0 0-11.413 3.708m-18.466 13.417v12m-11.413-3.708 11.413 3.708m-11.413-15.708 11.413 3.708m-11.413-3.708v12m119.52-38.833 7.054-9.708m7.053 9.708-7.053-9.708m0 19.416-7.054-9.708m7.054 9.708 7.053-9.708m-87.971 31.416 7.053-9.708m7.054 9.708-7.054-9.708m0 19.416-7.053-9.708m7.053 9.708 7.054-9.708m-18.466-30-7.054-9.708m11.413-3.708-11.413 3.708m18.467 6-11.413 3.708m11.413-3.708-7.054-9.708m7.054 9.708v12m0-12-11.413 3.708m11.413 8.292-11.413 3.708m0-12v12m29.879 2.292-11.413 3.708m11.413-3.708-7.054-9.708m-4.36 13.416-7.053-9.708m11.413-3.708-11.413 3.708m200.42-103.95-11.413 3.708m11.413-3.708-7.054-9.709m-4.36 13.417-7.053-9.708m11.413-3.709-11.413 3.709m89.637 57.708-11.413 3.708m0-7.416 11.413 3.708m-11.413-3.708-11.413 3.708m0 0 11.413 3.708m-34.238-47.125v12m0-12-11.413 3.709m11.413 8.291-11.413 3.709m0-12v12m-7.053-33.709v12m-7.053-2.291 7.053-9.709m-7.053 9.709v12m0 0 7.053-9.709m0 19.417-7.053-9.708m7.053 9.708 7.053-9.708m-14.106 0 7.053-9.709m7.053 9.709-7.053-9.709m0 31.417 7.053-9.708m4.36 6-11.413 3.708m11.413-3.708 7.053-9.709m0 0-11.413 3.709m-32.573-30v12m-7.053-2.292 7.053-9.708m-7.053 9.708v12m0 0 7.053-9.708m-18.466-6 7.054-9.709m0 0 11.412 3.709m-18.466 6 11.413 3.708m0 0 7.053-9.708m25.52 27.708-11.414 3.708m0 0-7.053-9.708m18.466 6-7.053-9.708m0 0-11.413 3.708m-25.52-15.708 11.413 3.708m0 0v12m-11.413-15.708v12m0 0 11.413 3.708m-22.825 74.833-7.054-9.709m0 0 7.054-9.708m0 19.417 7.053-9.709m0 0-7.053-9.708m92.33-44.833-11.413 3.709m0 0-7.053-9.709m18.466 6-7.053-9.708m0 0-11.412 3.708m-163.49 79.955 11.413 3.708m0 0v12m-11.413-15.708v12m0 0 11.413 3.708m85.268-35.122 7.053-9.708m0 0 11.413 3.708m-18.466 6 11.413 3.709m0 0 7.053-9.709m4.36-68.832v12m-7.054-2.292 7.053-9.708m-7.053 9.708v12m0 0 7.053-9.708m-18.466-6 11.413 3.708m0 0v12m-11.413-15.708v12m0 0 11.413 3.708m-22.816-24.004-7.054-9.708m7.054-2.292v12m0-12-7.054-9.708m0 0v12m14.107-12v12m-7.053-2.292 7.053-9.708m-7.053 9.708v12m0 0 7.053-9.708m-7.062 9.71 7.053-9.707m4.36 6-11.413 3.708m11.412-3.708 7.054-9.709m0 0-11.413 3.709m4.36 6v12m0 0-11.413 3.708m11.412-15.708-11.412 3.708m0 0v12m-36.924-12.003 7.054-9.708m0 0 11.413 3.708m-18.467 6 11.413 3.708m0 0 7.054-9.708m18.466 6-11.413 3.708m0 0-7.054-9.708m18.467 6-7.054-9.708m0 0-11.413 3.708m0 19.416 7.054-9.708m4.36 6-11.413 3.708m11.411-3.706 7.054-9.708m0 0-11.413 3.708m11.413-3.708v12m-7.054-2.292 7.054-9.708m-7.054 9.708v12m0 0 7.054-9.708m-7.054-2.292v12m0 0-11.413 3.708m11.414-15.708-11.411 3.707m0 0v12m0-12-7.054-9.708m0 0 7.053-9.708m0 19.416 7.054-9.708m0 0-7.054-9.708m-115.16 10.583 11.412 3.709m-7.053 9.707 7.053-9.708m-18.466 6 7.054-9.709m-7.054 9.709 11.413 3.708m-22.825 0 7.053-9.708m4.36 6-11.414 3.708m11.412-3.708 7.054-9.709m0 0-11.413 3.709m-18.466 6 7.053-9.709m0 0 11.413 3.709m-18.466 6 11.414 3.708m0 0 7.053-9.708m22.825 0v12m-7.053-2.292 7.053-9.708m-7.053 9.708v12m0 0 7.053-9.708m-7.053-2.292v12m-11.413-3.708 11.413 3.708m-11.413-15.707 11.413 3.707m-11.413-3.708v12m103.74-26.292-11.412 3.708m0-7.416 11.412 3.708m-11.412-3.708-11.413 3.708m0 0 11.413 3.708m163.49 69.712 11.412 3.708m-4.36 6-7.052-9.708m7.053 9.708 11.413 3.709m0 0-7.054-9.709m7.054 9.709-11.413 3.708m0-7.417 11.413 3.709m-11.413-3.709-11.413 3.709m0 0 11.413 3.708m-177.6-33.711 7.054-9.709m-7.054 9.709 11.413 3.708m-4.36-13.417 11.413 3.709m-7.053 9.708 7.053-9.708m-18.466 18-7.053-9.709m7.053-2.291v12m0-12-7.053-9.709m0 0v12m0-12v12m0 0-11.413 3.709m11.413-15.709-11.413 3.709m0 0v12m25.52-27.709 11.412 3.709m-11.412-3.709v12m11.412-8.291v12m-11.412-3.709 11.412 3.709m7.054-29.125-11.413 3.708m0-12v12m11.413-15.707v12m0-12-11.413 3.708m22.825 0v12m-11.412-3.708 11.412 3.708m-11.412-15.708 11.412 3.708m-11.412-3.708v12m-7.054-21.708 11.413 3.708m-4.36 6-7.053-9.708m7.054 9.708 11.412 3.708m0 0-7.053-9.708m7.045 53.128-11.413 3.708m11.413-3.708-7.054-9.709m-4.36 13.417-7.053-9.708m11.413-3.709-11.413 3.709m11.422-15.712v12m0 0-11.413 3.709m11.413-15.709-11.413 3.709m0 0v12m78.215-64.247-11.413 3.709m0-7.417 11.413 3.708m-11.413-3.708-11.412 3.708m0 0 11.412 3.709m32.573 18v12m-7.053-2.292 7.053-9.708m-7.053 9.708v12m0 0 7.053-9.708m11.413-15.709-11.413 3.709m11.413-3.709-7.053-9.708m-4.36 13.417-7.053-9.709m11.413-3.708-11.413 3.708m48.345 27.709v12m-7.054-2.292 7.054-9.708m-7.054 9.708v12m0 0 7.054-9.708m-122.2-12.879-11.413 3.708m0-7.416 11.412 3.708m-11.412-3.708-11.413 3.708m0 0 11.413 3.708m115.15 3.17 11.412 3.709m-11.412-3.708v12m11.412-8.292v12m-11.412-3.708 11.412 3.708m-11.412-15.708v12m0-12-11.413 3.708m11.413 8.292-11.413 3.708m0-12v12m-129.25 20.83-11.412 3.708m11.412-3.708-7.053-9.709m-4.36 13.417-7.053-9.708m11.413-3.709-11.413 3.709m85.268-54.538v12m0-12-11.412 3.708m11.412 8.292-11.412 3.708m0-12v12m-41.283-10.588-7.053-9.708m11.412-3.708-11.412 3.708m18.466 6-11.413 3.708m11.413-3.708-7.054-9.708m36.924 55.42v12m-7.054-2.293 7.054-9.708m-7.054 9.708v12m0 0 7.054-9.708m7.053 9.708-7.053-9.708m7.053-2.292v12m0-12-7.053-9.708m0 0v12m18.466-37.416 11.412 3.708m0 0v12m-11.412-15.708v12m0 0 11.412 3.708m-29.878-33.708v12m-7.054-2.292 7.054-9.708m-7.054 9.708v12m0 0 7.054-9.708m14.106 31.416v12m-7.053-2.292 7.053-9.708m-7.053 9.708v12m0 0 7.053-9.708m34.239-15.708 7.053-9.708m7.053 9.708-7.053-9.708m0 19.416-7.053-9.708m7.053 9.708 7.053-9.708m-110.79-74.836 11.412 3.708m-4.359 6-7.053-9.708m7.053 9.708 11.413 3.709m0 0-7.054-9.709m11.404 66.544 7.054-9.708m7.053 9.708-7.053-9.708m0 19.417-7.054-9.709m7.054 9.709 7.053-9.709m4.36 18v12m0 0-11.413 3.709m11.412-15.709-11.412 3.709m0 0v12m11.412-59.125v12m0 0-11.412 3.708m11.412-15.708-11.412 3.708m0 0v12m0-12v12m-7.054-2.292 7.054-9.708m-7.054 9.708v12m0 0 7.054-9.708m11.412 15.708v12m0-12-11.412 3.709m11.412 8.291-11.412 3.709m0-12v12m0-12 7.053-9.709m4.36 6-11.413 3.709m11.412-3.709 7.054-9.708m0 0-11.413 3.708m11.413-3.708v12m-7.054-2.292 7.054-9.708m-7.054 9.708v12m0 0 7.054-9.708m14.106 0v12m-7.053-2.292 7.053-9.708m-7.053 9.708v12m0 0 7.053-9.708m-14.106-12 7.053-9.708m7.053 9.708-7.053-9.708m0 19.416-7.053-9.708m7.053 9.708 7.053-9.708m-7.053-21.708v12m-7.053-2.292 7.053-9.708m-7.053 9.708v12m0 0 7.053-9.708m-14.107-12 7.054-9.708m7.053 9.708-7.053-9.708m0 19.416-7.054-9.708m7.054 9.708 7.053-9.708m-7.053 9.708-11.413 3.708m0 0-7.053-9.708m18.466 6-7.054-9.708m0 0-11.412 3.708m55.398-25.416-7.054-9.708m7.054-2.292v12m0-12-7.054-9.708m0 0v12m18.467 49.416v12m0-12-11.413 3.708m11.413 8.292-11.413 3.708m0-12v12m18.466-37.416 7.053 9.708m-7.053 2.292v-12m0 12 7.053 9.708m0 0v-12m-7.053-21.708v12m0-12-11.414 3.708m11.413 8.292-11.413 3.708m0-12v12m-7.053-21.708 7.053 9.708m-7.053 2.292v-12m0 12 7.053 9.708m0 0v-12m-32.573-1.416 11.413 3.708m-4.36 6-7.053-9.708m7.054 9.708 11.412 3.708m0 0-7.053-9.708m0 0 7.053-9.708m7.054 9.708-7.054-9.708m0 19.416-7.053-9.708m7.053 9.708 7.054-9.708m-18.466 6-11.413 3.708m0 0-7.053-9.708m18.466 6-7.054-9.708m0 0-11.412 3.708m18.466 6v12m0-12-11.413 3.708m11.413 8.292-11.413 3.708m0-12v12m11.413-15.708 11.412 3.708m0 0v12m-11.412-15.708v12m0 0 11.412 3.708m0-12 7.054-9.708m7.053 9.708-7.053-9.708m0 19.416-7.054-9.708m7.054 9.708 7.053-9.708m11.413-3.708v12m0-12-11.413 3.708m11.413 8.292-11.413 3.708m0-12v12m0 31.416-11.412 3.709m0 0-7.054-9.709m18.466 6-7.053-9.708m0 0-11.413 3.708m-11.412-15.708-7.053-9.708m11.413-3.708-11.413 3.708m18.466 6-11.413 3.708m11.413-3.708-7.053-9.708m0 0 11.412 3.708m-4.359 6-7.053-9.708m7.053 9.708 11.413 3.708m0 0-7.054-9.708m7.054 9.708-7.054-9.708m7.054-2.292v12m0-12-7.054-9.708m0 0v12m14.107 31.416-7.053-9.708m11.413-3.708-11.413 3.708m18.466 6-11.413 3.708m11.413-3.708-7.053-9.708m0-12 7.053-9.708m7.053 9.708-7.053-9.708m0 19.416-7.053-9.708m7.053 9.708 7.053-9.708m-14.106 0 7.053 9.708m-7.053 2.292v-12m0 12 7.053 9.708m0 0v-12m-18.466-6 7.053-9.708m4.36 6-11.413 3.708m11.413-3.708 7.053-9.708m0 0-11.413 3.708m-7.053 21.708-11.413 3.708m0-7.416 11.413 3.708m-11.413-3.708-11.413 3.708m0 0 11.413 3.708m22.826-19.416v12m0-12-11.413 3.708m11.413 8.292-11.413 3.708m0-12v12m-11.413-15.708v12m0 0-11.413 3.708m11.413-15.708-11.413 3.708m0 0v12m22.826-12v12m-11.413-3.708 11.413 3.708m-11.413-15.708 11.413 3.708m-11.413-3.708v12m-62.443-24.878 7.054-9.709m4.359 6-11.413 3.709m11.413-3.709 7.053-9.708m0 0-11.412 3.708m66.802-5.121-7.054-9.708m7.054-2.292v12m0-12-7.054-9.708m0 0v12m18.467-18v12m0-12-11.413 3.708m11.413 8.292-11.413 3.708m0-12v12m18.466 49.416 7.053-9.708m-7.053 9.708 11.413 3.708m-4.36-13.416 11.413 3.708m-7.053 9.708 7.053-9.708m11.413-3.708-11.413 3.708m0-7.416 11.413 3.708m-11.413-3.708-11.413 3.708m0 0 11.413 3.708m-18.466 6 11.413 3.708m-11.413-3.708v12m11.413-8.292v12m-11.413-3.708 11.413 3.708m7.053-41.124-11.413 3.708m11.413-3.708-7.053-9.708m-4.36 13.416-7.053-9.708m11.413-3.708-11.413 3.708m41.291 18-11.412 3.708m0-7.416 11.412 3.708m-11.412-3.708-11.413 3.708m0 0 11.413 3.708m-11.413-3.708-11.413 3.708m0-12v12m11.413-15.708v12m0-12-11.413 3.708m45.651 12 11.413 3.708m-4.36 6-7.053-9.708m7.054 9.708 11.412 3.708m0 0-7.053-9.708m11.412-3.708-11.412 3.708m0-7.416 11.412 3.708m-11.412-3.708-11.413 3.708m0 0 11.413 3.708m-45.65-19.416-7.054-9.708m7.053 9.708 7.053-9.708m-14.106 0 7.053-9.709m7.053 9.709-7.053-9.709m71.17 73.958-11.412 3.708m0-7.416 11.412 3.708m-11.412-3.708-11.413 3.708m0 0 11.413 3.708m-89.638 14.292-7.053-9.708m7.053-2.292v12m0-12-7.053-9.708m0 0v12m59.757-50.833 7.054-9.708m4.36 6-11.414 3.708m11.413-3.708 7.054-9.709m0 0-11.413 3.709m-48.344 35.124 11.413 3.708m-4.36 6-7.053-9.708m7.053 9.708 11.413 3.709m0 0-7.053-9.709m7.053 29.125 7.053-9.708m-7.053 9.708 11.413 3.708m-4.36-13.416 11.413 3.708m-7.053 9.708 7.053-9.708m-18.466 6-7.053-9.708m7.053 9.708 7.054-9.708m-14.107 0 7.053-9.708m7.054 9.708-7.054-9.708m41.292-13.417-7.054-9.708m7.054-2.292v12m0-12-7.054-9.708m0 0v12m-22.825 19.416-11.413 3.709m11.413-3.709-7.054-9.708m-4.359 13.417-7.053-9.709m11.412-3.708-11.412 3.708m25.52 15.709-11.414 3.708m11.413-3.708-7.053-9.709m-4.36 13.417-7.053-9.708m11.413-3.709-11.413 3.709m-18.466 6 7.053-9.709m-7.053 9.709 11.413 3.708m-4.36-13.417 11.413 3.709m-7.053 9.708 7.053-9.708m22.825-38.833 11.413 3.708m-11.413-3.708v12m11.413-8.292v12m-11.413-3.708 11.413 3.708m-11.413-15.708v12m0 0-11.412 3.708m11.412-15.708-11.412 3.708m0 0v12m18.466 6-11.413 3.708m0 0-7.053-9.708m18.466 6-7.054-9.708m0 0-11.412 3.708m11.412-3.708 11.413 3.708m-4.36 6-7.053-9.708m7.054 9.708 11.413 3.708m0 0-7.054-9.708m-4.36 32.833-7.053-9.708m0 0 7.054-9.709m0 19.417 7.053-9.708m0 0-7.053-9.709m-18.466-25.416v12m-7.054-2.292 7.054-9.708m-7.054 9.708v12m0 0 7.054-9.708m-18.466 1.416 7.053-9.708m4.36 6-11.413 3.708m11.412-3.708 7.054-9.708m0 0-11.413 3.708m41.292 6 11.412 3.708m0 0v12m-11.412-15.708v12m0 0 11.412 3.708m-48.344-15.708v12m0 0-11.412 3.708m11.412-15.708-11.412 3.708m0 0v12m-34.238 35.125v12m-7.054-2.292 7.054-9.708m-7.054 9.708v12m0 0 7.054-9.708m41.291-18 11.413 3.708m-11.413-3.708v12m11.413-8.292v12m-11.413-3.708 11.413 3.708m0-38.833-7.054-9.708m0 0 7.054-9.708m0 19.416 7.053-9.708m0 0-7.053-9.708m22.825 46.25-11.413 3.707m0-7.416 11.413 3.708m-11.413-3.708-11.412 3.708m0 0 11.412 3.708m18.467-40.249-11.413 3.708m0-7.416 11.413 3.708m-11.413-3.708-11.413 3.708m0 0 11.413 3.708m0 19.417-11.413 3.708m0-7.416 11.413 3.708m-11.413-3.708-11.412 3.708m0 0 11.412 3.708m29.879-17.125-11.413 3.709m0 0-7.053-9.709m18.466 6-7.053-9.708m0 0-11.413 3.708m-18.466 32.833 7.053-9.708m4.36 6-11.413 3.708m11.412-3.708 7.054-9.708m0 0-11.413 3.708m4.36 6 7.053-9.708m-7.054 9.708 11.413 3.708m-4.36-13.416 11.414 3.708m-7.054 9.708 7.054-9.708m-11.413-3.708 7.053-9.708m-7.053 9.708 11.413 3.708m-4.36-13.416 11.413 3.708m-7.053 9.708 7.053-9.708m-36.932-7.417 11.412 3.709m-4.359 6-7.053-9.709m7.053 9.709 11.413 3.708m0 0-7.054-9.708m-308.53 20.83 7.053-9.709m4.36 6-11.413 3.708m11.413-3.708 7.053-9.708m0 0-11.413 3.708m64.117-13.416-11.412 3.708m11.412-3.708-7.053-9.708m-4.36 13.416-7.053-9.708m11.413-3.708-11.413 3.708m99.383-78.542 7.053-9.708m4.36 6-11.413 3.708m11.413-3.708 7.053-9.709m0 0-11.413 3.709m-18.466 88.249 11.413 3.708m-11.413-3.708v12m11.413-8.292v12m-11.413-3.708 11.413 3.708m11.413-97.957 7.053-9.709m-7.053 9.709 11.412 3.708m-4.359-13.417 11.413 3.709m-7.054 9.708 7.054-9.708m-25.52 66.54-7.053-9.708m7.053 9.709 7.054-9.709m-14.107 0 7.053-9.708m7.054 9.708-7.054-9.708m14.107-12 11.413 3.708m-7.054 9.709 7.054-9.709m-18.466 6 7.053-9.708m-7.053 9.708 11.412 3.709m-36.932-26.833-7.053-9.708m7.053-2.292v12m0-12-7.053-9.708m0 0v12m-11.413-3.709 11.413 3.709m-4.36 6-7.053-9.709m7.054 9.709 11.412 3.708m0 0-7.053-9.708m7.053 41.124-11.412 3.708m0 0-7.054-9.708m18.466 6-7.053-9.708m0 0-11.413 3.708m43.986 9.708-7.054-9.708m7.054-2.292v12m0-12-7.054-9.708m0 0v12m-29.878-17.123-7.054-9.709m7.054-2.291v12m0-12-7.054-9.709m0 0v12m-18.466 32.833v12m-11.413-3.708 11.413 3.708m-11.413-15.707 11.413 3.708m-11.413-3.708v12m32.573 13.416v12m-7.053-2.291 7.053-9.709m-7.053 9.709v12m0 0 7.053-9.709m41.292-73.416v12m-11.413-3.708 11.413 3.708m-11.413-15.708 11.413 3.708m-11.413-3.708v12m-32.573-25.417 11.413 3.709m0 0v12m-11.413-15.709v12m0 0 11.413 3.709m32.573 32.832-7.054-9.708m0 0 7.054-9.708m0 19.416 7.053-9.708m0 0-7.053-9.708m7.053 9.708-7.053-9.708m7.053-2.292v12m0-12-7.053-9.708m0 0v12m-18.466-6-7.054-9.708m7.054 9.708 7.053-9.708m-14.107 0 7.054-9.708m7.053 9.708-7.053-9.708m7.053 9.708v12m-7.053-2.292 7.053-9.708m-7.053 9.708v12m0 0 7.053-9.708m-7.053 9.708-7.054-9.708m7.054-2.292v12m0-12-7.054-9.708m0 0v12m-11.412 8.292-7.054-9.709m7.054-2.291v12m0-12-7.054-9.709m0 0v12m18.466 1.417v12m-11.412-3.708 11.412 3.706m-11.412-15.708 11.412 3.708m-11.412-3.708v12m18.466 13.416-7.054-9.708m7.054-2.292v12m0-12-7.054-9.708m0 0v12m18.466 1.416v12m-11.412-3.708 11.412 3.708m-11.412-15.706 11.412 3.708m-11.412-3.708v12m0-12 7.053-9.708m0 0 11.413 3.708m-18.466 6 11.412 3.708m0 0 7.054-9.708m-48.345 71.125-7.054-9.709m7.054-2.291v12m0-12-7.054-9.709m0 0v12m-7.053-33.708-7.053-9.708m7.053 9.708 7.053-9.708m-14.106 0 7.053-9.708m7.053 9.708-7.053-9.708m7.053 41.124-11.412-3.708m4.359-6 7.053 9.708m-7.053-9.708-11.413-3.708m0 0 7.054 9.708m18.466 13.417-7.054-9.709m7.054 9.709 7.053-9.709m-14.107 0 7.054-9.708m7.053 9.708-7.053-9.708m18.466 13.417-11.413-3.709m4.36-6 7.053 9.709m-7.054-9.709-11.412-3.708m0 0 7.053 9.708m27.185-18-11.413 3.709m0-7.417 11.413 3.708m-11.413-3.708-11.413 3.708m0 0 11.413 3.709m0 0v12m-11.413-3.709 11.413 3.709m-11.413-15.709 11.413 3.709m-11.413-3.709v12m11.413-15.708 7.054-9.708m0 0 11.412 3.708m-18.466 6 11.413 3.708m0 0 7.053-9.708m-18.466 6-7.053-9.708m7.053 9.708 7.054-9.708m-14.107 0 7.053-9.708m7.054 9.708-7.054-9.708m0 19.416-11.413 3.708m0 0-7.053-9.708m18.466 6-7.053-9.708m0 0-11.413 3.708m7.053 9.708v12m-11.412-3.708 11.412 3.708m-11.412-15.708 11.412 3.708m-11.412-3.708v12m-7.054 9.708-7.053-9.708m7.053 9.708 7.054-9.708m-14.107 0 7.053-9.708m7.054 9.708-7.054-9.708m-18.466-25.417 7.054-9.709m0 0 11.412 3.709m-18.466 6 11.413 3.707m0 0 7.053-9.708m18.466 6 11.413 3.708m-7.053 9.708 7.053-9.708m-18.466 6 7.053-9.708m-7.053 9.708 11.413 3.708m0 0-11.413 3.708m0-7.416 11.413 3.708m-11.413-3.708-11.413 3.708m0 0 11.413 3.708m-11.413-3.708 11.413 3.708m-4.36 6-7.053-9.708m7.054 9.708 11.412 3.708m0 0-7.053-9.708m-29.879-17.123 11.413 3.707m-7.053 9.708 7.053-9.708m-18.466 6 7.053-9.708m-7.053 9.708 11.413 3.708m7.053 9.708v12m-11.413-3.708 11.413 3.708m-11.413-15.706 11.413 3.708m-11.413-3.708v12m11.413-8.292-11.413-3.708m4.36-6 7.053 9.708m-7.053-9.708-11.413-3.708m0 0 7.053 9.708m18.466-6v12m-7.053-2.292 7.053-9.708m-7.053 9.708v12m0 0 7.053-9.708m-7.053-21.708 7.053-9.708m4.36 6-11.413 3.706m11.413-3.708 7.053-9.709m0 0-11.413 3.709m-7.053 29.124-7.053-9.708m7.053 9.708 7.053-9.708m-14.106 0 7.053-9.708m7.053 9.708-7.053-9.708m18.466 6-7.053-9.708m0 0 7.053-9.709m0 19.417 7.054-9.708m0 0-7.054-9.709m-11.413 23.127-7.053-9.708m11.413-3.708-11.413 3.706m18.466 6-11.413 3.708m11.413-3.708-7.053-9.708m14.107 38.832 11.412 3.709m-4.36 6-7.052-9.709m7.053 9.709 11.413 3.708m0 0-7.054-9.708m-15.772 2.291 11.413 3.709m-11.413-3.709v12m11.413-8.291v12m-11.413-3.709 11.413 3.709m-244.42 14.833 7.054-9.708m4.359 6-11.413 3.708m11.413-3.708 7.053-9.708m0 0-11.412 3.708m11.412-3.708v12m-7.053-2.292 7.053-9.708m-7.053 9.708v12m0 0 7.053-9.708m-7.053-2.292v12m0-12-11.413 3.708m11.413 8.292-11.413 3.708m0-12v12m83.612-13.416 11.413 3.708m-7.053 9.708 7.053-9.708m-18.466 6 7.053-9.708m-7.053 9.708 11.413 3.708m-18.466-13.416v12m-11.413-3.708 11.413 3.708m-11.413-15.708 11.413 3.708m-11.413-3.708v12m-14.107 0 7.053-9.708m7.054 9.708-7.054-9.708m0 19.416-7.053-9.708m7.053 9.708 7.054-9.708m-14.107-12v12m-7.053-2.292 7.053-9.708m-7.053 9.708v12m0 0 7.053-9.708m14.107 0-7.054-9.708m7.054-2.292v12m0-12-7.054-9.708m0 0v12m0-12v12m-7.053-2.292 7.053-9.708m-7.053 9.708v12m0 0 7.053-9.708m-21.16-2.292 7.054-9.708m7.053 9.708-7.053-9.708m0 19.416-7.054-9.708m7.054 9.708 7.053-9.708m-43.986 5.124-11.412 3.709m0-12v12m11.412-15.709v12m0-12-11.412 3.709m41.291 3.167-11.413 3.708m0-12v12m11.413-15.708v12m0-12-11.413 3.708m-29.878-6.875-7.054-9.709m11.413-3.708-11.413 3.708m18.466 6-11.412 3.709m11.412-3.709-7.053-9.708m58.092 6.876v12m-7.053-2.292 7.053-9.708m-7.053 9.708v12m0 0 7.053-9.708m-69.505-54-7.053-9.709m7.053 9.709 7.054-9.709m-14.107 0 7.053-9.708m7.054 9.708-7.054-9.708m55.399-25.416v12m-7.054-2.292 7.054-9.708m-7.054 9.708v12m0 0 7.054-9.708m-7.054 9.708-11.413 3.708m0-12v12m11.413-15.707v12m0-12-11.413 3.708m-36.932 12 11.413 3.708m-4.36 6-7.053-9.708m7.054 9.708 11.412 3.709m0 0-7.053-9.709m-11.413 15.708 7.054-9.709m-7.054 9.709 11.413 3.708m-4.36-13.417 11.413 3.709m-7.053 9.708 7.053-9.708m11.413-3.709-7.053-9.708m7.053-2.292v12m0-12-7.053-9.708m0 0v12m14.106-12v12m-7.053-2.292 7.053-9.708m-7.053 9.708v12m0 0 7.053-9.708m181.97 32.293v12m0-12-11.412 3.708m11.412 8.292-11.412 3.708m0-12v12m-7.054 9.708 7.054-9.708m4.359 6-11.413 3.708m11.413-3.708 7.053-9.708m0 0-11.412 3.708m11.412-15.708-11.412 3.708m11.412-3.708-7.053-9.708m-4.36 13.416-7.052-9.708m11.413-3.708-11.413 3.708m29.879 72.541-7.054-9.708m7.054 9.708 7.053-9.708m-14.107 0 7.054-9.708m7.053 9.708-7.053-9.708m-82.584-4.585v12m0-12-11.413 3.708m11.413 8.292-11.413 3.708m0-12v12m57.064-23.124 7.053-9.709m4.36 6-11.413 3.709m11.412-3.709 7.054-9.708m0 0-11.413 3.708m11.413-3.708 7.053-9.708m7.054 9.708-7.054-9.708m0 19.416-7.053-9.708m7.053 9.708 7.054-9.708m-43.986 17.125-11.413 3.708m0-7.416 11.413 3.708m-11.413-3.708-11.412 3.708m0 0 11.412 3.708m0 0-11.412 3.708m0-7.416 11.412 3.708m-11.412-3.708-11.413 3.708m0 0 11.413 3.708m-11.413-3.708v12m0-12-11.413 3.708m11.413 8.292-11.413 3.708m0-12v12m11.413-15.708 11.413 3.708m-11.413-3.708v12m11.413-8.292v12m-11.413-3.708 11.413 3.708m-140.68-14.292-11.412 3.709m0-12v12m11.412-15.709v12m0-12-11.412 3.709m48.345-6.541v12m-7.054-2.292 7.054-9.708m-7.054 9.708v12m0 0 7.054-9.708m117.85-84.541v12m-7.055-2.293 7.054-9.708m-7.054 9.708v12m0 0 7.054-9.708m-7.054 9.708 7.054-9.708m4.359 6-11.413 3.708m11.413-3.708 7.053-9.709m0 0-11.412 3.709m-147.73 65.665v12m-7.053-2.292 7.054-9.708m-7.054 9.708v12m0 0 7.054-9.708m11.412-15.708v12m0-12-11.412 3.708m11.412 8.292-11.412 3.708m0-12v12m4.359-68.833-11.413 3.709m11.413-3.709-7.053-9.708m-4.36 13.417-7.053-9.709m11.413-3.708-11.413 3.708m258.52 79.417v12m-7.053-2.292 7.053-9.708m-7.053 9.708v12m0 0 7.053-9.708m-225.95-42v12m-7.054-2.292 7.054-9.708m-7.054 9.708v12m0 0 7.054-9.708m167.86-42.541-11.413 3.708m0-7.416 11.413 3.708m-11.413-3.708-11.412 3.708m0 0 11.412 3.708m-22.825-19.415v12m0-12-11.414 3.707m11.413 8.292-11.413 3.708m0-12v12m11.413-15.708 11.414 3.708m-11.413-3.708v12m11.413-8.292v12m-11.413-3.708 11.412 3.708m-25.519 35.124 11.413 3.709m-4.36 6-7.053-9.709m7.053 9.709 11.413 3.708m0 0-7.053-9.708m7.053-29.125 7.054-9.708m-7.054 9.708 11.413 3.708m-4.36-13.416 11.413 3.708m-7.053 9.708 7.053-9.708m-29.879 2.292 7.054-9.708m-7.054 9.708 11.413 3.708m-4.36-13.416 11.414 3.708m-7.054 9.708 7.054-9.708m11.412-15.708v12m0-12-11.412 3.708m11.412 8.292-11.412 3.708m0-12v12m-52.705-33.707 11.413 3.707m-11.413-3.708v12m11.413-8.292v12m-11.413-3.708 11.413 3.708m-11.413-15.707v12m0-12-11.412 3.707m11.412 8.292-11.412 3.708m0-12v12m68.476 62.833-11.413 3.708m11.413-3.708-7.054-9.709m-4.359 13.417-7.053-9.708m11.412-3.709-11.412 3.709m-15.772 9.708-11.413 3.709m11.413-3.708-7.054-9.708m-4.359 13.416-7.053-9.708m11.412-3.708-11.412 3.708m52.704 2.292-7.054-9.709m0 0 7.054-9.708m0 19.417 7.053-9.709m0 0-7.053-9.708m-18.466 6 7.053-9.708m0 0 11.413 3.708m-18.466 6 11.412 3.708m0 0 7.054-9.708m-7.054 9.708-11.412 3.709m0-7.417 11.412 3.708m-11.412-3.708-11.413 3.708m0 0 11.413 3.709m-119.52-12v12m0-12-11.413 3.708m11.413 8.292-11.413 3.708m0-12v12m115.16-32.833 11.412 3.708m0 0v12m-11.412-15.707v12m0 0 11.412 3.708m-152.09-15.168v12m0 0-11.412 3.708m11.412-15.708-11.412 3.708m0 0v12m29.878 26.292 7.054-9.708m4.36 6-11.414 3.708m11.413-3.708 7.054-9.708m0 0-11.413 3.708m-25.52-32.292-11.412 3.708m0-7.416 11.412 3.708m-11.412-3.708-11.413 3.708m0 0 11.413 3.708m25.52 8.292v12m-7.054-2.292 7.053-9.708m-7.053 9.708v12m0 0 7.053-9.708m43.986 26.292 7.053-9.708m0 0 11.413 3.708m-18.466 6 11.413 3.708m0 0 7.053-9.708m-58.093-45.708-11.412 3.708m0-12v12m11.412-15.708v12m0-12-11.412 3.708m174.91 34.583-7.053-9.708m7.053-2.292v12m0-12-7.053-9.708m0 0v12m14.107-12v12m-7.054-2.292 7.054-9.708m-7.054 9.708v12m0 0 7.054-9.708m-36.933 19.417-11.412 3.708m0 0-7.054-9.708m18.466 6-7.053-9.709m0 0-11.413 3.709m48.346-15.709-7.053-9.708m0 0 7.053-9.708m0 19.416 7.054-9.708m0 0-7.054-9.708m-48.346 35.125-11.412 3.708m0-7.417 11.412 3.709m-11.412-3.709-11.413 3.709m0 0 11.413 3.708m-11.413-3.708 11.413 3.708m-4.36 6-7.053-9.708m7.053 9.708 11.413 3.708m0 0-7.053-9.708m7.053 9.708-11.413 3.708m0-7.416 11.413 3.708m-11.413-3.708-11.412 3.708m0 0 11.412 3.708m0-7.416-11.412 3.708m11.412-3.708-7.053-9.708m-4.36 13.416-7.053-9.708m11.413-3.708-11.413 3.708m11.414-54.542 7.053-9.708m-7.053 9.708 11.413 3.708m-4.36-13.416 11.412 3.708m-7.053 9.708 7.053-9.708m-66.81-21.708v12m-7.055-2.292 7.053-9.708m-7.052 9.708v12m0 0 7.053-9.708m-7.053-2.292v12m0-12-11.413 3.709m11.413 8.292-11.413 3.708m0-12v12m92.33 6-7.053-9.708m7.053-2.292v12m0-12-7.053-9.708m0 0v12m18.466-6v12m0-12-11.413 3.708m11.413 8.292-11.413 3.708m0-12v12m27.185 18 11.413 3.708m0 0v12m-11.413-15.707v12m0 0 11.413 3.708m-45.65-24 7.052-9.708m4.36 6-11.413 3.708m11.413-3.708 7.053-9.708m0 0-11.413 3.707m-92.33-18-7.053-9.708m7.053-2.292v12m0-12-7.053-9.708m0 0v12m-43.986 67.957 7.053-9.708m7.054 9.708-7.054-9.708m0 19.416-7.053-9.708m7.053 9.708 7.054-9.708m115.16 3.167 7.053-9.708m4.36 6-11.413 3.708m11.412-3.708 7.054-9.708m0 0-11.413 3.708m15.772 9.708-11.413 3.709m0-7.417 11.413 3.708m-11.413-3.708-11.412 3.708m0 0 11.412 3.709m-152.09-42 11.413 3.708m-4.36 6-7.053-9.708m7.054 9.708 11.412 3.708m0 0-7.053-9.708m14.107 0v12m-7.054-2.292 7.054-9.708m-7.054 9.708v12m0 0 7.054-9.708m0 31.416 7.053-9.708m4.36 6-11.413 3.708m11.412-3.708 7.054-9.708m0 0-11.413 3.708m11.413-47.125-7.054-9.708m11.413-3.708-11.413 3.708m18.467 6-11.413 3.708m11.413-3.708-7.055-9.707m-15.77 48.54-7.053-9.708m11.412-3.708-11.412 3.708m18.466 6-11.413 3.708m11.413-3.708-7.054-9.708m39.627 20.291v12m-7.054-2.291 7.054-9.709m-7.054 9.709v12m0 0 7.054-9.709m0-12 11.412 3.709m0 0v12m-11.413-15.709v12m0 0 11.412 3.709m-62.451-12.876v12m-7.054-2.292 7.054-9.708m-7.054 9.708v12m0 0 7.054-9.708m-25.52-8.292 7.054-9.708m4.359 6-11.413 3.708m11.413-3.708 7.053-9.708m0 0-11.412 3.708m55.398-8.833v12m-7.053-2.291 7.053-9.709m-7.053 9.709v12m0 0 7.053-9.709m7.053 9.709-7.053-9.709m7.053-2.291v12m0-12-7.053-9.709m0 0v12m260.18 9.712v12m-7.054-2.292 7.054-9.708m-7.054 9.708v12m0 0 7.054-9.708m-241.72-59.128 11.413 3.708m0 0v12m-11.413-15.707v12m0 0 11.413 3.708m2.694 78.541-7.054-9.708m7.054-2.292v12m0-12-7.054-9.708m0 0v12m-39.626-102.54 7.054-9.708m7.053 9.708-7.053-9.708m0 19.416-7.055-9.707m7.054 9.708 7.053-9.708m0 0v12m-7.053-2.292 7.053-9.708m-7.053 9.708v12m0 0 7.054-9.708m14.107 31.416v12m-7.054-2.291 7.054-9.709m-7.054 9.709v12m0 0 7.054-9.709m-7.055 21.708 7.054-9.709m7.053 9.709-7.053-9.709m0 19.417-7.054-9.708m7.054 9.708 7.053-9.708m-72.2-50.292 7.054-9.708m7.054 9.708-7.054-9.708m0 19.416-7.053-9.708m7.053 9.708 7.054-9.708m-7.054 21.708 7.054-9.708m7.053 9.708-7.053-9.708m0 19.416-7.054-9.708m7.054 9.708 7.053-9.708m78.224-8.833 7.053-9.708m7.054 9.708-7.054-9.708m0 19.416-7.053-9.708m7.053 9.708 7.054-9.708m15.773-21.707 7.053-9.708m7.053 9.708-7.053-9.708m0 19.416-7.053-9.708m7.053 9.708 7.053-9.708m-48.344-8.293 7.053-9.708m4.36 6-11.414 3.708m11.413-3.707 7.054-9.708m0 0-11.413 3.708m4.36 18 7.053-9.708m4.359 6-11.413 3.707m11.414-3.708 7.053-9.708m0 0-11.413 3.707m38.597 53.124 7.053-9.708m4.36 6-11.413 3.708m11.413-3.708 7.053-9.708m0 0-11.413 3.708m-71.17-51.706-7.053-9.708m7.053-2.292v12m0-12-7.053-9.708m0 0v12m66.81 45.708 7.054-9.708m4.36 6-11.413 3.708m11.412-3.708 7.054-9.708m0 0-11.414 3.706m-41.29 52.25v12m0 0 11.412 3.708m-11.412-15.708 11.412 3.708m0 0v12m-41.291-13.416 11.413 3.708m-4.36 6-7.053-9.708m7.053 9.708 11.413 3.708m0 0-7.053-9.708m-69.506-49.416 7.054-9.709m7.053 9.709-7.053-9.709m0 19.417-7.054-9.708m7.054 9.708 7.053-9.708m73.865 43.416v12m0-12-11.413 3.708m11.413 8.292-11.413 3.708m0-12v12m-36.932-26.833 11.412 3.709m-4.359 6-7.053-9.709m7.053 9.709 11.413 3.708m0 0-7.054-9.708m-58.092-57.709 7.053-9.708m7.054 9.708-7.054-9.708m0 19.417-7.053-9.709m7.053 9.709 7.054-9.709m108.1 44.292 7.054-9.708m0 0 11.412 3.708m-18.466 6 11.413 3.708m0 0 7.053-9.708m-126.57-6.875v12m0 0-11.413 3.708m11.413-15.708-11.413 3.708m0 0v12m22.826-50.833v12m0 0-11.413 3.708m11.413-15.708-11.413 3.708m0 0v12m122.21-11.124v12m-7.054-2.292 7.053-9.708m-7.053 9.708v12m0 0 7.053-9.708m-103.74 60.539-7.053-9.707m7.053-2.292v12m0-12-7.053-9.708m0 0v12m-11.413-63.708v12m-7.054-2.291 7.054-9.709m-7.054 9.709v12m0 0 7.054-9.709m11.413 39.709 7.053-9.709m7.053 9.709-7.053-9.709m0 19.417-7.053-9.708m7.053 9.708 7.053-9.708m89.637-41.125v12m0-12-11.413 3.708m11.413 8.292-11.413 3.708m0-12v12m11.413-3.708v12m0-12-11.413 3.708m11.413 8.292-11.413 3.708m0-12v12m-92.33-10.583v12m0-12-11.413 3.708m11.413 8.292-11.413 3.708m0-12v12m0-12 7.053-9.708m4.36 6-11.413 3.708m11.413-3.708 7.053-9.709m0 0-11.413 3.709m11.413-3.709v12m-7.053-2.291 7.053-9.709m-7.053 9.709v12m0 0 7.053-9.709m14.107 0v12m-7.054-2.291 7.054-9.709m-7.054 9.709v12m0 0 7.054-9.709m-14.107-12 7.053-9.708m7.054 9.708-7.054-9.708m0 19.417-7.053-9.709m7.053 9.709 7.054-9.709m-7.055-21.708v12m-7.053-2.292 7.053-9.708m-7.053 9.708v12m0 0 7.053-9.708m-14.106-12 7.054-9.707m7.053 9.708-7.053-9.708m0 19.416-7.053-9.708m7.053 9.708 7.053-9.708m29.88-9.708-7.054-9.708m7.053-2.292v12m0-12-7.053-9.708m0 0v12m-29.879 29.123-11.413 3.709m0 0-7.053-9.709m18.466 6-7.053-9.708m0 0-11.413 3.708m55.398-25.415 7.054-9.708m7.053 9.708-7.053-9.708m0 19.416-7.054-9.708m7.054 9.708 7.053-9.708m11.413-3.708v12m-7.054-2.292 7.054-9.708m-7.054 9.708v12m0 0 7.054-9.708m11.412 15.707 11.413 3.708m0 0v12m-11.413-15.707v12m0 0 11.413 3.708m-36.932 0v12m0-12-11.413 3.707m11.413 8.292-11.413 3.708m0-12v12m36.932-31.415-11.412 3.707m0 0-7.054-9.707m18.466 6-7.052-9.709m0 0-11.414 3.708m0 0 7.054 9.708m-7.054 2.292v-12m0 12 7.054 9.708m0 0v-12m-7.054-21.707v12m0-12-11.412 3.707m11.412 8.293-11.412 3.707m0-12v12m-11.414 47.125 11.413 3.708m0 0v12m-11.413-15.708v12m0 0 11.413 3.708m34.238-35.125v12m0-12-11.413 3.709m11.413 8.291-11.413 3.709m0-12v12m-29.878-65.125 7.054 9.708m-7.054 2.293v-12m0 12 7.054 9.708m0 0v-12m-32.574-1.417 11.412 3.708m-4.359 6-7.053-9.708m7.053 9.708 11.413 3.708m0 0-7.053-9.707m0 0 7.054-9.708m7.053 9.708-7.053-9.708m0 19.416-7.054-9.708m7.054 9.708 7.053-9.708m-18.466 6-11.413 3.707m0 0-7.053-9.707m18.466 6-7.053-9.708m0 0-11.413 3.707m18.466 6v12m0-12-11.413 3.708m11.413 8.292-11.413 3.708m0-12v12m11.413-15.707 11.413 3.708m0 0v12m-11.413-15.708v12m0 0 11.413 3.708m0-12 7.053-9.708m7.054 9.708-7.054-9.708m0 19.416-7.053-9.708m7.053 9.708 7.054-9.708m22.825-7.416 11.413 3.708m-4.36 6-7.052-9.709m7.053 9.708 11.413 3.708m0 0-7.054-9.707m41.291 18-11.413 3.708m0-7.416 11.413 3.708m-11.413-3.708-11.412 3.708m0 0 11.412 3.708m-64.116-61.417v12m-7.054-2.292 7.054-9.708m-7.054 9.708v12m0 0 7.054-9.708m7.053 103.96-7.053-9.708m7.053-2.292v12m0-12-7.053-9.708m0 0v12m18.466-6-11.413 3.708m11.413-3.708-7.054-9.708m-4.359 13.416-7.053-9.708m11.412-3.708-11.412 3.708m11.412-54.541v12m0-12-11.412 3.708m11.412 8.292-11.412 3.708m0-12v12m-11.414 35.125 11.413 3.708m0 0v12m-11.413-15.708v12m0 0 11.413 3.708m-25.52-97.957v12m0 0 11.414 3.707m-11.413-15.707 11.413 3.707m0 0v12m36.932 62.833-11.413 3.708m0-7.417 11.413 3.709m-11.413-3.709-11.412 3.709m0 0 11.412 3.708m0 0-11.412 3.709m0-7.416 11.412 3.708m-11.412-3.708-11.414 3.708m0 0 11.413 3.708m0-7.416-11.413 3.708m0 0-7.054-9.708m18.467 6-7.054-9.709m0 0-11.413 3.709m-51.039-36-11.412 3.708m11.412-3.708-7.053-9.709m-4.36 13.417-7.053-9.708m11.413-3.709-11.413 3.709m76.559 63.708-7.054-9.708m7.054-2.292v12m0-12-7.054-9.708m0 0v12m-11.411-27.709-7.054-9.708m11.413-3.708-11.413 3.708m18.467 6-11.413 3.708m11.413-3.708-7.054-9.708m0 0 11.413 3.708m-4.36 6-7.053-9.708m7.054 9.708 11.412 3.708m0 0-7.053-9.708m7.053 9.708-7.053-9.708m7.053-2.292v12m0-12-7.053-9.708m0 0v12m14.107 31.417-7.054-9.709m11.413-3.708-11.413 3.708m18.466 6-11.412 3.709m11.412-3.709-7.053-9.708m29.879-2.292-11.413 3.709m0-7.417 11.413 3.708m-11.413-3.708-11.413 3.708m0 0 11.413 3.709m-11.413-3.709 7.054-9.708m4.359 6-11.413 3.708m11.413-3.708 7.053-9.708m0 0-11.412 3.708m22.825 0v12m-7.053-2.292 7.053-9.708m-7.053 9.708v12m0 0 7.053-9.708m-36.932-12 7.053-9.708m7.054 9.708-7.054-9.708m0 19.416-7.053-9.708m7.053 9.708 7.054-9.708m-14.107 0 7.053 9.708m-7.053 2.292v-12m0 12 7.053 9.708m0 0v-12m-18.466-6 7.054-9.708m4.359 6-11.413 3.708m11.413-3.708 7.053-9.708m0 0-11.412 3.708m-7.054 21.708-11.413 3.709m0-7.417 11.413 3.708m-11.413-3.708-11.412 3.708m0 0 11.412 3.709m22.826-19.417v12m0-12-11.413 3.708m11.413 8.292-11.413 3.708m0-12v12m-11.412-15.708v12m0 0-11.413 3.708m11.413-15.708-11.413 3.708m0 0v12m22.825-12v12m-11.412-3.708 11.412 3.708m-11.412-15.708 11.412 3.708m-11.412-3.708v12m29.878-2.292v12m0 0 11.413 3.709m-11.413-15.709 11.413 3.709m0 0v12m326.99 31.419 7.053-9.708m-7.053 9.708 11.412 3.708m-4.359-13.416 11.413 3.708m-7.054 9.708 7.054-9.708m0 0v12m-7.054-2.292 7.054-9.708m-7.054 9.708v12m0 0 7.054-9.708m-18.466-6 11.412 3.708m-11.412-3.708v12m11.412-8.292v12m-11.412-3.708 11.412 3.708m7.054 9.708 7.053-9.708m4.36 6-11.413 3.708m11.412-3.708 7.054-9.708m0 0-11.413 3.708m15.772 9.708-11.413 3.709m0-7.417 11.413 3.708m-11.413-3.708-11.412 3.708m0 0 11.412 3.709m-11.412-3.709-7.054-9.708m7.054 9.708 7.053-9.708m-14.107 0 7.054-9.708m7.053 9.708-7.053-9.708m-14.107 19.416-11.413 3.709m18.466 6-7.053-9.709m-4.36-25.416v12m-7.053-2.292 7.054-9.708m-7.054 9.708v12m0 0 7.054-9.708m4.359 13.416-11.413 3.709m0-7.417 11.413 3.708m-11.413-3.708-11.413 3.708m0 0 11.413 3.709m36.932-26.833-11.412 3.708m0-12v12m11.412-15.708v12m0-12-11.412 3.708m-18.466 18 11.412 3.708m-7.053 9.708 7.053-9.708m-18.466 6 7.054-9.708m-7.054 9.708 11.413 3.708m14.107 0 11.412 3.709m-18.466 6 7.054-9.709m-7.054 9.709-7.053-9.709m7.053 9.709 7.054-9.709m-14.107 0 7.053-9.708m7.054 9.708-7.054-9.708" fill="#959595" stroke="url(#d)" stroke-linecap="round" stroke-miterlimit="4.3" stroke-width=".8"/>
</svg>
